<svg version="1.1" id="Layer_1" xmlns="http://www.w3.org/2000/svg" xmlns:xlink="http://www.w3.org/1999/xlink" x="0px" y="0px"
	 width="100%" viewBox="0 0 600 600" enable-background="new 0 0 600 600" xml:space="preserve">
<path fill="#FFFFFF" opacity="1.000000" stroke="none" 
	d="
M376.000000,601.000000 
	C250.666672,601.000000 125.833336,601.000000 1.000000,601.000000 
	C1.000000,401.000000 1.000000,201.000000 1.000000,1.000000 
	C201.000000,1.000000 401.000000,1.000000 601.000000,1.000000 
	C601.000000,201.000000 601.000000,401.000000 601.000000,601.000000 
	C526.166687,601.000000 451.333344,601.000000 376.000000,601.000000 
M310.614960,513.113464 
	C316.557190,509.458221 322.970703,506.388214 328.360779,502.047302 
	C352.871307,482.307404 364.177368,456.794189 358.774200,425.395813 
	C354.911926,402.952087 339.830627,388.172516 321.264709,376.635559 
	C315.181061,372.855194 308.678619,369.748718 302.629425,366.475708 
	C309.382172,361.587494 316.393341,357.071320 322.780945,351.799591 
	C372.476624,310.785614 352.310059,256.164398 316.398865,232.276062 
	C298.215607,220.180466 278.133820,214.764725 256.445587,214.763596 
	C214.780945,214.761459 173.116287,214.762939 131.451645,214.762909 
	C129.838562,214.762909 128.225494,214.762894 126.389694,214.762894 
	C126.389694,317.720490 126.389694,420.127014 126.389694,523.001526 
	C128.367752,523.001526 130.154663,523.001526 131.941574,523.001526 
	C176.439423,523.001526 220.937790,522.879089 265.434845,523.067749 
	C281.059265,523.134033 295.801758,519.864563 310.614960,513.113464 
M472.999908,95.651764 
	C472.994629,85.210655 470.547150,82.774521 460.050659,82.774422 
	C397.223450,82.773842 334.396271,82.774338 271.569061,82.774475 
	C269.829224,82.774475 268.089386,82.774475 265.852203,82.774475 
	C266.530396,83.863411 266.707031,84.312164 267.019562,84.625328 
	C289.503510,107.154274 311.960846,129.710266 334.582458,152.100235 
	C335.983368,153.486771 338.679230,154.136353 340.780823,154.154007 
	C359.277710,154.309555 377.776459,154.243896 396.274658,154.243683 
	C398.035156,154.243668 399.795685,154.243668 401.854126,154.243668 
	C401.854126,174.788361 401.960815,194.602051 401.761841,214.412659 
	C401.723236,218.258362 402.943176,220.865417 405.618927,223.511658 
	C423.036774,240.737381 440.298859,258.120636 457.617371,275.446899 
	C462.516571,280.348267 467.433990,285.231415 472.999908,290.777435 
	C472.999908,225.459244 472.999908,161.035507 472.999908,95.651764 
z"/>
<path fill="#13222A" opacity="1.000000" stroke="none" 
	d="
M310.281677,513.286621 
	C295.801758,519.864563 281.059265,523.134033 265.434845,523.067749 
	C220.937790,522.879089 176.439423,523.001526 131.941574,523.001526 
	C130.154663,523.001526 128.367752,523.001526 126.389694,523.001526 
	C126.389694,420.127014 126.389694,317.720490 126.389694,214.762894 
	C128.225494,214.762894 129.838562,214.762909 131.451645,214.762909 
	C173.116287,214.762939 214.780945,214.761459 256.445587,214.763596 
	C278.133820,214.764725 298.215607,220.180466 316.398865,232.276062 
	C352.310059,256.164398 372.476624,310.785614 322.780945,351.799591 
	C316.393341,357.071320 309.382172,361.587494 302.629425,366.475708 
	C308.678619,369.748718 315.181061,372.855194 321.264709,376.635559 
	C339.830627,388.172516 354.911926,402.952087 358.774200,425.395813 
	C364.177368,456.794189 352.871307,482.307404 328.360779,502.047302 
	C322.970703,506.388214 316.557190,509.458221 310.281677,513.286621 
M209.506577,397.245911 
	C204.733688,397.245911 199.960785,397.245911 195.297546,397.245911 
	C195.297546,418.597931 195.297546,439.302155 195.297546,460.174591 
	C197.150803,460.174591 198.642502,460.175140 200.134201,460.174500 
	C218.940308,460.166382 237.758224,460.572632 256.549316,460.037384 
	C276.760132,459.461700 291.578491,438.925842 285.666351,420.589325 
	C281.404327,407.370697 266.212433,397.381897 249.948120,397.265808 
	C236.800964,397.171967 223.652618,397.246216 209.506577,397.245911 
M194.939545,305.500000 
	C194.939545,316.909912 194.939545,328.319824 194.939545,339.871094 
	C214.104355,339.871094 232.580048,340.329956 251.021774,339.735321 
	C267.724792,339.196716 280.166656,325.206879 280.166016,308.333588 
	C280.165436,291.845154 268.286194,279.117950 250.929306,278.526306 
	C232.637817,277.902832 214.306656,278.440460 195.992920,278.498749 
	C195.728424,278.499573 195.465088,278.862335 194.939545,279.248383 
	C194.939545,287.537628 194.939545,296.018829 194.939545,305.500000 
z"/>
<path fill="#0073FF" opacity="1.000000" stroke="none" 
	d="
M472.999908,96.131775 
	C472.999908,161.035507 472.999908,225.459244 472.999908,290.777435 
	C467.433990,285.231415 462.516571,280.348267 457.617371,275.446899 
	C440.298859,258.120636 423.036774,240.737381 405.618927,223.511658 
	C402.943176,220.865417 401.723236,218.258362 401.761841,214.412659 
	C401.960815,194.602051 401.854126,174.788361 401.854126,154.243668 
	C399.795685,154.243668 398.035156,154.243668 396.274658,154.243683 
	C377.776459,154.243896 359.277710,154.309555 340.780823,154.154007 
	C338.679230,154.136353 335.983368,153.486771 334.582458,152.100235 
	C311.960846,129.710266 289.503510,107.154274 267.019562,84.625328 
	C266.707031,84.312164 266.530396,83.863411 265.852203,82.774475 
	C268.089386,82.774475 269.829224,82.774475 271.569061,82.774475 
	C334.396271,82.774338 397.223450,82.773842 460.050659,82.774422 
	C470.547150,82.774521 472.994629,85.210655 472.999908,96.131775 
z"/>
<path fill="#FDFDFD" opacity="1.000000" stroke="none" 
	d="
M210.005676,397.245911 
	C223.652618,397.246216 236.800964,397.171967 249.948120,397.265808 
	C266.212433,397.381897 281.404327,407.370697 285.666351,420.589325 
	C291.578491,438.925842 276.760132,459.461700 256.549316,460.037384 
	C237.758224,460.572632 218.940308,460.166382 200.134201,460.174500 
	C198.642502,460.175140 197.150803,460.174591 195.297546,460.174591 
	C195.297546,439.302155 195.297546,418.597931 195.297546,397.245911 
	C199.960785,397.245911 204.733688,397.245911 210.005676,397.245911 
z"/>
<path fill="#FDFDFD" opacity="1.000000" stroke="none" 
	d="
M194.939545,305.000000 
	C194.939545,296.018829 194.939545,287.537628 194.939545,279.248383 
	C195.465088,278.862335 195.728424,278.499573 195.992920,278.498749 
	C214.306656,278.440460 232.637817,277.902832 250.929306,278.526306 
	C268.286194,279.117950 280.165436,291.845154 280.166016,308.333588 
	C280.166656,325.206879 267.724792,339.196716 251.021774,339.735321 
	C232.580048,340.329956 214.104355,339.871094 194.939545,339.871094 
	C194.939545,328.319824 194.939545,316.909912 194.939545,305.000000 
z"/>
</svg>