<?xml version="1.0" encoding="UTF-8"?><svg id="Layer_1" xmlns="http://www.w3.org/2000/svg" xmlns:xlink="http://www.w3.org/1999/xlink" viewBox="0 0 1080 1080"><defs><style>.cls-1{fill:#fff;}.cls-2{fill:#574c90;}.cls-3{fill:url(#linear-gradient);}</style><linearGradient id="linear-gradient" x1="540" y1="768" x2="540" y2="-126.58" gradientUnits="userSpaceOnUse"><stop offset="0" stop-color="#00984c"/><stop offset="1" stop-color="#004c46"/></linearGradient></defs><circle class="cls-3" cx="540" cy="540" r="447.29"/><path class="cls-1" d="M574.38,709.85h-39.1v-339.59h78.2v258.8c55.73-7.59,103.73-32.03,145.87-74.08,51.4-51.4,76.41-111.84,76.41-184.72h78.2c0,93.37-33.42,174.13-99.34,240.05-66.2,66.06-147.02,99.53-240.24,99.53Z"/><path class="cls-1" d="M244.24,709.73h-78.2c0-93.37,33.42-174.13,99.34-240.05,66.19-66.06,147.01-99.53,240.24-99.53v78.2c-72.78,0-133.28,25.07-184.97,76.66-51.41,51.4-76.41,111.84-76.41,184.73Z"/><path class="cls-1" d="M356.92,709.73h-78.2c0-62.31,22.29-116.27,66.25-160.38,44.32-44.17,98.35-66.53,160.66-66.53v78.2c-41.45,0-75.91,14.27-105.36,43.62-29.13,29.23-43.34,63.63-43.34,105.08Z"/><path class="cls-2" d="M912.4,225.3c-6.93,0-12.97-4.2-15.38-10.7l-.07-.18-12-42.43c-3.54-9.4-10.95-16.78-20.38-20.27l-32.44-12c-6.5-2.41-10.7-8.44-10.7-15.37s4.2-12.97,10.7-15.38l32.99-12.21c9.13-3.38,16.31-10.55,19.69-19.69l12.21-32.99c2.41-6.5,8.44-10.7,15.38-10.7s12.97,4.2,15.37,10.7l11.8,31.88c3.64,9.84,11.37,17.57,21.21,21.21l31.88,11.8c6.5,2.41,10.7,8.44,10.7,15.38s-4.2,12.97-10.7,15.37l-32.07,11.87c-9.66,3.57-17.26,11.14-20.89,20.77l-11.86,42.06-.07.19c-2.41,6.5-8.44,10.7-15.37,10.7Z"/><path class="cls-1" d="M912.4,38.37c4.43,0,8.85,2.48,10.69,7.44l11.8,31.88c4.14,11.19,12.97,20.02,24.16,24.16l31.88,11.8c9.92,3.67,9.92,17.7,0,21.37l-32.07,11.87c-11.08,4.1-19.81,12.83-23.91,23.91l-11.87,42.07c-1.84,4.96-6.26,7.44-10.69,7.44s-8.85-2.48-10.69-7.44l-12-42.44c-4.01-10.84-12.56-19.39-23.4-23.4l-32.44-12c-9.92-3.67-9.92-17.7,0-21.37l32.99-12.21c10.49-3.88,18.76-12.15,22.64-22.64l12.21-32.99c1.84-4.96,6.26-7.44,10.69-7.44M912.4,28.37c-9.05,0-16.92,5.48-20.06,13.97l-12.21,32.99c-2.87,7.76-8.97,13.86-16.73,16.73l-32.99,12.21c-8.49,3.14-13.97,11.02-13.97,20.06,0,9.05,5.48,16.92,13.97,20.06l32.44,12c8,2.96,14.31,9.2,17.36,17.15l11.89,42.03.11.38.14.37c3.14,8.49,11.02,13.97,20.06,13.97s16.92-5.48,20.06-13.97l.14-.37.11-.38,11.75-41.66c3.14-8.18,9.64-14.61,17.87-17.65l32.07-11.87c8.49-3.14,13.97-11.02,13.97-20.06s-5.48-16.92-13.97-20.06l-31.88-11.8c-8.47-3.13-15.12-9.79-18.25-18.25l-11.8-31.88c-3.14-8.49-11.02-13.97-20.06-13.97h0Z"/><path class="cls-2" d="M766.84,230.06c-4.87,0-9.11-2.95-10.81-7.52l-.07-.18-6.87-24.28c-1.82-4.76-5.59-8.5-10.38-10.27l-18.56-6.87c-4.57-1.69-7.52-5.93-7.52-10.81,0-4.87,2.95-9.11,7.52-10.81l18.88-6.99c4.64-1.72,8.29-5.36,10-10l6.99-18.88c1.69-4.57,5.93-7.52,10.81-7.52s9.11,2.95,10.8,7.52l6.75,18.25c1.87,5.04,5.83,9.01,10.87,10.87l18.25,6.75c4.57,1.69,7.52,5.93,7.52,10.81s-2.95,9.11-7.52,10.81l-18.35,6.79c-4.92,1.82-8.8,5.66-10.66,10.55l-6.79,24.07-.07.19c-1.69,4.57-5.93,7.52-10.8,7.52Z"/><path class="cls-1" d="M766.84,120.94c2.53,0,5.07,1.42,6.12,4.26l6.75,18.25c2.37,6.41,7.42,11.46,13.83,13.83l18.25,6.75c5.68,2.1,5.68,10.13,0,12.23l-18.35,6.79c-6.34,2.35-11.34,7.34-13.68,13.68l-6.79,24.08c-1.05,2.84-3.58,4.26-6.12,4.26s-5.07-1.42-6.12-4.26l-6.87-24.29c-2.3-6.21-7.19-11.1-13.39-13.39l-18.56-6.87c-5.68-2.1-5.68-10.13,0-12.23l18.88-6.99c6-2.22,10.74-6.96,12.96-12.96l6.99-18.88c1.05-2.84,3.58-4.26,6.12-4.26M766.84,110.94c-6.99,0-13.07,4.23-15.49,10.79l-6.99,18.88c-1.21,3.27-3.78,5.84-7.05,7.05l-18.88,6.99c-6.55,2.42-10.79,8.51-10.79,15.49s4.23,13.07,10.79,15.49l18.56,6.87c3.37,1.25,6.03,3.85,7.36,7.17l6.75,23.85.11.38.14.37c2.42,6.55,8.51,10.79,15.49,10.79s13.07-4.23,15.49-10.79l.14-.37.11-.38,6.67-23.64c1.38-3.45,4.15-6.16,7.65-7.46l18.35-6.79c6.55-2.43,10.79-8.51,10.79-15.49,0-6.99-4.23-13.07-10.79-15.49l-18.25-6.75c-3.67-1.36-6.56-4.25-7.92-7.92l-6.75-18.25c-2.42-6.55-8.51-10.79-15.49-10.79h0Z"/><path class="cls-2" d="M964.11,321.8c-3.8,0-7.11-2.3-8.43-5.87l-.07-.19-4.19-14.81c-.92-2.35-2.79-4.19-5.16-5.06l-11.34-4.2c-3.56-1.32-5.87-4.63-5.87-8.43s2.3-7.11,5.87-8.43l11.53-4.27c2.3-.85,4.11-2.66,4.96-4.96l4.27-11.53c1.32-3.56,4.63-5.87,8.43-5.87s7.11,2.3,8.42,5.87l4.12,11.15c.94,2.55,2.94,4.55,5.49,5.49l11.15,4.12c3.56,1.32,5.87,4.63,5.87,8.43s-2.3,7.11-5.87,8.43l-11.21,4.15c-2.45.91-4.39,2.81-5.34,5.24l-4.14,14.69-.07.19c-1.32,3.56-4.63,5.87-8.42,5.87Z"/><path class="cls-1" d="M964.1,253.2c1.55,0,3.09.87,3.74,2.6l4.12,11.15c1.45,3.91,4.53,7,8.45,8.45l11.15,4.12c3.47,1.28,3.47,6.19,0,7.47l-11.21,4.15c-3.87,1.43-6.93,4.49-8.36,8.36l-4.15,14.71c-.64,1.73-2.19,2.6-3.74,2.6s-3.09-.87-3.74-2.6l-4.2-14.84c-1.4-3.79-4.39-6.78-8.18-8.18l-11.34-4.2c-3.47-1.28-3.47-6.19,0-7.47l11.53-4.27c3.67-1.36,6.56-4.25,7.92-7.92l4.27-11.53c.64-1.73,2.19-2.6,3.74-2.6M964.1,243.2c-5.91,0-11.06,3.58-13.11,9.13l-4.27,11.53c-.34.93-1.08,1.66-2.01,2.01l-11.53,4.27c-5.55,2.05-9.13,7.2-9.13,13.11s3.58,11.06,9.13,13.11l11.34,4.2c.97.36,1.75,1.09,2.17,2.02l4.06,14.34.11.38.14.37c2.05,5.55,7.2,9.13,13.11,9.13s11.06-3.58,13.11-9.13l.14-.37.11-.38,4.01-14.21c.45-1.01,1.3-1.8,2.34-2.19l11.21-4.15c5.55-2.05,9.13-7.2,9.13-13.11s-3.58-11.06-9.13-13.11l-11.15-4.12c-1.18-.44-2.1-1.36-2.54-2.54l-4.12-11.15c-2.05-5.55-7.2-9.13-13.11-9.13h0Z"/></svg>