<?xml version="1.0" encoding="UTF-8"?><svg id="Layer_1" xmlns="http://www.w3.org/2000/svg" viewBox="0 0 1080 1080"><defs><style>.cls-1{fill:#009846;}.cls-2{fill:#fff;}</style></defs><circle class="cls-1" cx="540" cy="540" r="535"/><path class="cls-2" d="M581.12,743.16h-46.77v-406.17h93.54v309.55c66.66-9.08,124.07-38.31,174.47-88.61,61.48-61.48,91.39-133.77,91.39-220.94h93.54c0,111.67-39.98,208.28-118.82,287.12-79.18,79.01-175.84,119.05-287.35,119.05Z"/><path class="cls-2" d="M186.25,743.02h-93.54c0-111.68,39.98-208.28,118.82-287.12,79.17-79.01,175.84-119.05,287.35-119.05v93.54c-87.05,0-159.42,29.99-221.24,91.69-61.49,61.48-91.39,133.77-91.39,220.95Z"/><path class="cls-2" d="M321.02,743.02h-93.54c0-74.53,26.66-139.07,79.23-191.83,53.01-52.84,117.63-79.57,192.16-79.57v93.54c-49.57,0-90.8,17.07-126.02,52.17-34.84,34.96-51.84,76.11-51.84,125.68Z"/></svg>