<svg id="svg" version="1.1" xmlns="http://www.w3.org/2000/svg" xmlns:xlink="http://www.w3.org/1999/xlink" width="400" height="383.23353293413174" viewBox="0, 0, 400,383.23353293413174"><g id="svgg"><path id="path0" d="M0.000 191.755 L 0.000 383.509 200.000 383.509 L 400.000 383.509 400.000 191.755 L 400.000 0.000 200.000 0.000 L 0.000 0.000 0.000 191.755 M214.957 4.243 C 223.366 4.972,229.227 5.805,236.817 7.350 C 243.454 8.700,249.543 10.218,254.267 11.697 C 324.911 33.828,373.520 90.720,385.008 164.717 C 396.254 237.158,358.844 314.607,294.727 351.621 C 292.828 352.716,291.016 353.775,290.700 353.972 C 283.007 358.768,262.404 367.307,251.390 370.265 C 250.336 370.548,248.178 371.130,246.596 371.559 C 218.529 379.164,182.496 379.275,154.454 371.843 C 143.325 368.893,136.236 366.493,126.366 362.331 C 122.509 360.705,111.269 355.199,109.300 353.972 C 108.984 353.775,107.172 352.716,105.273 351.621 C 43.952 316.221,7.110 244.537,13.944 173.921 C 20.031 111.030,55.275 57.077,110.067 26.773 C 126.621 17.617,144.033 11.249,163.183 7.349 C 166.347 6.704,170.398 5.982,172.185 5.743 C 173.972 5.504,175.526 5.252,175.639 5.182 C 175.922 5.008,185.164 4.189,190.988 3.822 C 196.608 3.468,208.413 3.675,214.957 4.243 M194.631 82.853 C 145.393 88.251,115.423 130.676,127.182 178.332 C 134.803 209.219,160.182 252.286,194.701 292.910 C 199.938 299.073,199.337 299.153,206.000 291.410 C 221.072 273.896,239.323 248.420,250.604 229.147 C 271.435 193.557,278.988 165.479,273.766 143.049 C 273.545 142.100,273.139 140.288,272.864 139.022 C 267.729 115.390,245.054 92.076,221.093 85.794 C 210.920 83.127,201.588 82.090,194.631 82.853 M206.818 132.509 C 230.229 138.594,233.868 170.653,212.431 181.961 C 185.528 196.152,159.421 160.817,181.085 139.534 C 185.755 134.947,188.345 133.556,195.206 131.947 C 198.080 131.273,202.972 131.510,206.818 132.509 " stroke="none" fill="#fbfbfb" fill-rule="evenodd"></path><path id="path1" d="M190.988 3.822 C 185.164 4.189,175.922 5.008,175.639 5.182 C 175.526 5.252,173.972 5.504,172.185 5.743 C 163.343 6.924,151.088 9.875,140.748 13.315 C 73.576 35.659,26.167 92.737,14.992 164.717 C 3.746 237.158,41.156 314.607,105.273 351.621 C 107.172 352.716,108.984 353.775,109.300 353.972 C 117.323 358.973,137.297 367.185,149.569 370.527 C 156.682 372.464,158.579 372.902,165.868 374.289 C 191.768 379.219,222.113 378.193,246.596 371.559 C 248.178 371.130,250.336 370.548,251.390 370.265 C 262.404 367.307,283.007 358.768,290.700 353.972 C 291.016 353.775,292.828 352.716,294.727 351.621 C 356.048 316.221,392.890 244.537,386.056 173.921 C 379.969 111.030,344.725 57.077,289.933 26.773 C 273.377 17.616,255.954 11.245,236.817 7.350 C 222.131 4.360,204.272 2.986,190.988 3.822 M209.971 83.445 C 224.987 85.744,235.879 90.491,247.803 99.932 C 259.377 109.095,269.942 125.576,272.864 139.022 C 273.139 140.288,273.545 142.100,273.766 143.049 C 281.417 175.910,261.431 221.855,212.758 283.299 C 204.801 293.343,200.580 297.784,199.297 297.462 C 196.659 296.799,174.805 268.755,162.201 249.856 C 120.579 187.449,114.129 147.851,139.833 112.518 C 155.018 91.646,184.289 79.512,209.971 83.445 M195.206 131.947 C 188.345 133.556,185.755 134.947,181.085 139.534 C 166.664 153.702,172.844 178.237,192.277 183.969 C 212.751 190.008,231.858 170.669,225.507 150.336 C 221.555 137.683,207.394 129.089,195.206 131.947 " stroke="none" fill="#039946" fill-rule="evenodd"></path></g></svg>