<svg viewBox="366.7517730496454 0 544.6808510638298 532.088" xmlns="http://www.w3.org/2000/svg" data-name="Layer 1" id="f9991613-9c22-4ef1-8c37-b337baf35828" style="max-height: 500px" width="544.6808510638298" height="532.088"><path fill-rule="evenodd" fill="#0e0f13" d="M507.5,0H441.37a66.15,66.15,0,0,0-66.13,66.11V330.54h66.13a66.15,66.15,0,0,0,66.13-66.11ZM904.29,198.32H772V528.86h66.12a66.1,66.1,0,0,0,66.14-66.11Z"/><path fill-rule="evenodd" fill="#0e0f13" d="M705.9,198.32V528.86H441.37a66.15,66.15,0,0,1-66.13-66.11V396.64h66.13A132.28,132.28,0,0,0,573.63,264.43V198.32H705.9ZM904.29,66.11A66.1,66.1,0,0,0,838.16,0H573.64V132.21H904.29V66.11Z"/></svg>