<svg id="svg" version="1.1" xmlns="http://www.w3.org/2000/svg" xmlns:xlink="http://www.w3.org/1999/xlink" width="400" height="400" viewBox="0, 0, 400,400"><g id="svgg"><path id="path0" d="M89.205 35.645 C 87.060 36.794,33.746 90.267,32.792 92.226 C 30.727 96.468,27.428 92.832,91.500 156.919 C 123.015 188.441,148.800 214.494,148.800 214.815 C 148.800 215.136,135.989 228.210,120.331 243.869 L 91.862 272.340 94.031 274.788 C 95.224 276.134,97.459 278.442,98.997 279.918 C 103.339 284.081,128.381 309.190,130.411 311.415 C 132.889 314.130,137.813 318.400,138.467 318.400 C 138.761 318.400,151.601 305.800,167.000 290.400 C 188.908 268.490,195.212 262.400,195.983 262.400 C 196.759 262.400,209.194 274.623,254.450 319.871 C 286.065 351.480,312.422 377.599,313.022 377.913 C 313.765 378.302,314.989 378.434,316.868 378.328 L 319.625 378.172 347.239 350.586 C 373.803 324.049,376.400 321.241,376.400 319.049 C 376.400 316.130,376.331 316.058,317.236 257.001 C 279.006 218.794,259.600 199.131,259.600 198.600 C 259.600 198.070,273.157 184.242,299.600 157.800 C 321.600 135.801,339.600 117.518,339.600 117.172 C 339.600 116.656,304.598 81.169,296.005 72.972 L 293.569 70.648 253.074 111.124 C 230.802 133.386,212.405 151.600,212.193 151.600 C 211.980 151.600,185.795 125.614,154.003 93.854 C 122.211 62.094,95.755 35.814,95.211 35.454 C 93.913 34.596,90.991 34.689,89.205 35.645 M226.501 184.701 C 306.933 265.135,360.000 318.494,360.000 318.935 C 360.000 320.075,317.496 362.400,316.351 362.400 C 315.060 362.400,296.800 344.204,296.800 342.917 C 296.800 342.281,298.679 340.130,303.100 335.703 C 310.543 328.251,310.961 327.682,310.967 324.986 C 310.977 320.634,306.369 317.615,302.160 319.215 C 301.560 319.443,298.173 322.481,294.634 325.964 C 285.751 334.710,287.833 334.838,277.983 324.944 C 273.414 320.355,269.551 316.175,269.397 315.656 C 269.150 314.820,270.522 313.302,281.320 302.456 C 295.875 287.835,296.146 287.439,294.197 283.594 C 292.709 280.657,290.486 279.657,286.767 280.252 C 285.173 280.507,284.200 281.379,272.477 293.063 C 265.559 299.958,259.615 305.600,259.269 305.600 C 258.477 305.600,241.600 288.769,241.600 287.980 C 241.600 287.661,244.636 284.327,248.346 280.571 C 255.613 273.214,256.314 272.134,255.825 269.059 C 255.400 266.384,254.182 264.982,251.675 264.285 C 247.901 263.234,246.914 263.801,239.135 271.489 C 233.339 277.218,232.348 278.040,231.535 277.800 C 231.021 277.648,226.835 273.775,222.233 269.194 L 213.866 260.864 214.598 259.732 C 215.001 259.109,218.030 255.877,221.329 252.548 C 228.290 245.525,228.549 245.132,228.319 241.946 C 228.116 239.149,227.277 238.076,224.287 236.789 L 222.252 235.914 220.065 236.821 C 218.280 237.561,216.713 238.894,211.549 244.064 C 208.068 247.549,205.099 250.400,204.952 250.400 C 204.569 250.400,189.377 235.309,187.903 233.464 L 186.676 231.929 198.872 219.664 C 211.933 206.530,212.400 205.982,212.400 203.798 C 212.400 198.615,206.274 195.690,201.872 198.770 C 200.952 199.414,195.251 204.904,189.203 210.970 C 180.667 219.532,177.982 222.000,177.206 222.000 C 176.181 222.000,159.600 205.958,159.600 204.966 C 159.600 204.724,162.347 201.752,165.704 198.363 C 174.101 189.886,175.040 187.921,172.470 184.203 C 171.056 182.158,169.924 181.607,167.200 181.634 C 164.083 181.665,164.270 181.534,156.833 188.909 C 152.954 192.755,149.768 195.600,149.340 195.600 C 148.504 195.600,131.600 178.854,131.600 178.025 C 131.600 177.743,134.734 174.332,138.565 170.447 C 146.021 162.884,146.408 162.272,145.866 158.927 C 145.259 155.191,142.112 153.400,137.835 154.357 C 135.902 154.790,135.356 155.235,129.191 161.409 C 125.165 165.440,122.305 168.000,121.827 168.000 C 121.064 168.000,105.205 152.643,104.338 151.065 C 103.991 150.433,105.713 148.539,116.525 137.663 C 127.329 126.795,129.180 124.759,129.567 123.323 C 130.494 119.878,129.148 116.846,126.183 115.704 C 121.924 114.064,121.364 114.442,107.458 128.342 C 98.114 137.682,95.171 140.400,94.401 140.400 C 93.166 140.400,76.800 124.266,76.800 123.048 C 76.800 122.602,79.675 119.373,83.767 115.222 C 91.154 107.730,91.652 106.959,91.050 103.952 C 90.204 99.721,84.702 97.491,81.242 99.977 C 80.669 100.389,77.520 103.429,74.244 106.734 C 70.891 110.115,67.844 112.853,67.272 112.996 C 66.176 113.271,48.400 96.143,48.400 94.812 C 48.400 93.868,91.248 51.200,92.196 51.200 C 92.735 51.200,137.123 95.322,226.501 184.701 M318.800 51.865 C 313.414 52.975,305.200 57.634,305.200 59.578 C 305.200 60.477,350.277 105.600,351.175 105.600 C 351.986 105.600,354.724 102.102,356.518 98.775 C 359.327 93.563,360.426 86.191,358.988 82.200 C 358.671 81.320,358.409 80.310,358.406 79.955 C 358.351 74.040,340.934 56.169,332.058 52.921 C 329.405 51.950,321.457 51.317,318.800 51.865 M80.159 285.900 C 79.801 286.725,79.267 288.120,78.974 289.000 C 78.680 289.880,77.705 292.670,76.807 295.200 C 75.910 297.730,74.648 301.330,74.003 303.200 C 73.359 305.070,72.363 307.860,71.791 309.400 C 71.219 310.940,70.593 312.740,70.400 313.400 C 70.207 314.060,69.574 315.860,68.993 317.400 C 68.412 318.940,67.768 320.881,67.563 321.714 C 67.358 322.546,67.013 323.536,66.798 323.914 C 66.358 324.684,65.353 327.484,64.757 329.600 C 64.540 330.370,64.196 331.360,63.992 331.800 C 63.136 333.649,61.280 339.374,60.920 341.277 C 60.720 342.331,61.716 345.645,62.569 346.767 C 64.560 349.383,69.937 350.567,72.873 349.035 C 73.463 348.727,74.510 348.351,75.200 348.200 C 75.890 348.049,76.937 347.673,77.527 347.365 C 78.117 347.057,78.843 346.804,79.140 346.802 C 79.436 346.801,80.246 346.542,80.940 346.226 C 81.633 345.910,82.830 345.471,83.600 345.250 C 85.559 344.689,88.370 343.670,89.860 342.982 C 90.554 342.662,91.464 342.400,91.884 342.400 C 92.304 342.400,92.996 342.136,93.424 341.813 C 93.851 341.490,94.560 341.219,95.000 341.210 C 95.440 341.202,96.328 340.920,96.974 340.583 C 97.619 340.246,98.789 339.809,99.574 339.610 C 100.358 339.412,102.260 338.781,103.800 338.209 C 105.340 337.637,108.130 336.641,110.000 335.997 C 111.870 335.352,115.470 334.089,118.000 333.190 C 120.530 332.291,123.302 331.338,124.160 331.072 C 127.526 330.028,127.239 329.555,117.465 320.034 C 114.369 317.018,98.113 300.722,88.759 291.258 C 81.541 283.955,81.118 283.692,80.159 285.900 " stroke="none" fill="#454545" fill-rule="evenodd"></path><path id="path1" d="M0.000 200.000 L 0.000 400.000 200.000 400.000 L 400.000 400.000 400.000 200.000 L 400.000 0.000 200.000 0.000 L 0.000 0.000 0.000 200.000 M95.474 34.020 C 96.113 34.258,121.520 59.350,154.203 92.020 C 185.885 123.689,211.984 149.600,212.201 149.600 C 212.417 149.600,230.598 131.600,252.602 109.600 C 285.326 76.882,292.800 69.600,293.658 69.600 C 295.208 69.600,341.200 115.603,341.200 117.153 C 341.200 118.011,333.983 125.414,301.576 157.801 C 279.782 179.580,261.763 197.739,261.533 198.154 C 261.166 198.815,268.171 205.971,318.501 256.354 C 378.657 316.573,377.600 315.457,377.600 318.767 C 377.600 322.108,377.536 322.180,348.859 350.928 C 322.039 377.815,320.047 379.655,317.168 380.195 C 313.391 380.903,316.531 383.824,255.972 323.279 C 225.452 292.766,199.470 266.813,198.234 265.607 L 195.987 263.415 167.694 291.669 C 152.132 307.209,139.013 320.037,138.540 320.176 C 137.272 320.548,90.800 274.124,90.800 272.485 C 90.800 271.585,95.570 266.632,119.065 243.135 L 147.331 214.867 144.765 212.176 C 143.354 210.695,117.630 184.886,87.600 154.822 C 57.570 124.758,32.581 99.573,32.068 98.854 C 30.661 96.879,30.461 93.765,31.597 91.491 C 32.964 88.755,87.283 34.602,89.200 34.065 C 91.102 33.531,94.106 33.510,95.474 34.020 M329.204 50.744 C 336.870 52.347,347.624 60.677,355.097 70.800 C 362.855 81.310,362.714 93.536,354.712 104.100 C 351.114 108.850,353.660 110.687,327.240 84.268 C 302.909 59.937,303.397 60.463,303.772 58.971 C 305.108 53.645,320.018 48.822,329.204 50.744 M71.019 73.421 C 59.679 84.763,50.400 94.350,50.400 94.725 C 50.400 95.625,66.003 111.200,66.904 111.200 C 67.288 111.200,70.225 108.585,73.431 105.389 C 76.638 102.193,79.663 99.315,80.155 98.993 C 84.788 95.957,90.613 97.957,92.175 103.120 C 93.353 107.014,92.537 108.481,85.007 115.995 C 81.087 119.908,78.800 122.488,78.800 122.999 C 78.800 123.948,93.469 138.800,94.406 138.800 C 94.736 138.800,100.134 133.654,106.403 127.365 C 119.420 114.304,119.919 113.908,123.393 113.875 C 126.752 113.844,129.005 115.092,130.491 117.807 C 133.080 122.540,132.495 123.487,117.971 138.056 C 111.387 144.660,106.000 150.273,106.000 150.528 C 106.000 151.133,121.249 166.400,121.854 166.400 C 122.108 166.400,125.118 163.604,128.543 160.187 C 137.831 150.921,142.221 149.934,146.300 156.195 C 149.183 160.621,148.215 162.822,139.614 171.395 C 136.306 174.692,133.600 177.661,133.600 177.991 C 133.600 178.628,148.733 194.000,149.359 194.000 C 149.560 194.000,152.712 191.061,156.363 187.469 C 164.450 179.510,165.731 178.849,169.846 180.503 C 173.349 181.911,174.801 183.972,174.797 187.531 C 174.794 190.937,174.650 191.151,167.476 198.400 C 164.319 201.590,161.596 204.440,161.424 204.733 C 161.077 205.326,176.170 220.800,177.096 220.800 C 177.383 220.800,182.611 215.805,188.712 209.700 C 194.814 203.595,200.324 198.195,200.958 197.699 C 206.707 193.203,214.318 197.779,213.396 205.178 L 213.119 207.400 200.960 219.620 C 194.272 226.341,188.800 232.107,188.800 232.433 C 188.800 233.180,204.050 248.400,204.798 248.400 C 205.102 248.400,208.248 245.535,211.790 242.034 C 218.836 235.069,219.083 234.925,223.390 235.283 C 228.445 235.702,231.351 240.862,229.238 245.667 C 228.720 246.844,226.476 249.386,222.238 253.595 C 218.807 257.002,216.000 260.061,216.000 260.391 C 216.000 261.049,231.143 276.400,231.792 276.400 C 232.011 276.400,234.983 273.626,238.395 270.235 C 247.704 260.985,252.147 259.915,256.161 265.956 C 259.141 270.441,258.157 272.728,249.473 281.496 L 243.040 287.991 250.620 295.625 C 254.789 299.824,258.482 303.414,258.826 303.604 C 259.313 303.873,262.116 301.298,271.426 292.029 C 285.861 277.658,286.592 277.194,291.557 279.258 C 295.689 280.975,297.569 286.396,295.293 290.031 C 294.822 290.784,289.118 296.709,282.618 303.197 C 276.118 309.686,270.800 315.174,270.800 315.394 C 270.800 316.029,286.130 331.200,286.771 331.200 C 287.089 331.200,290.241 328.349,293.775 324.863 C 301.896 316.854,303.411 316.141,307.844 318.238 C 310.916 319.691,312.206 321.693,312.183 324.971 C 312.160 328.359,311.657 329.108,304.589 336.294 C 301.185 339.755,298.400 342.771,298.400 342.997 C 298.400 343.588,315.710 360.800,316.305 360.800 C 317.188 360.800,358.406 319.280,358.159 318.638 C 357.801 317.705,92.734 52.800,92.158 52.800 C 91.872 52.800,82.360 62.080,71.019 73.421 M81.980 282.971 C 83.046 283.562,127.457 327.803,128.010 328.825 C 128.552 329.827,127.535 331.332,125.994 331.808 C 125.227 332.045,124.150 332.430,123.600 332.664 C 122.131 333.289,120.017 334.030,118.200 334.558 C 117.320 334.813,116.240 335.221,115.800 335.464 C 115.360 335.707,114.376 336.040,113.613 336.204 C 112.850 336.368,111.950 336.658,111.613 336.848 C 110.901 337.250,108.019 338.274,106.000 338.843 C 105.230 339.060,104.240 339.404,103.800 339.608 C 102.608 340.160,99.614 341.199,97.800 341.692 C 96.920 341.930,95.845 342.368,95.411 342.663 C 94.977 342.958,94.257 343.206,93.811 343.214 C 93.365 343.221,92.280 343.575,91.400 344.000 C 90.520 344.425,89.435 344.779,88.989 344.786 C 88.543 344.794,87.823 345.047,87.389 345.349 C 86.955 345.651,85.976 346.034,85.213 346.200 C 84.450 346.366,83.550 346.658,83.213 346.848 C 82.424 347.293,79.451 348.336,77.400 348.887 C 76.520 349.124,75.620 349.451,75.400 349.616 C 74.818 350.050,70.110 351.200,68.914 351.200 C 62.608 351.200,57.426 343.576,60.165 338.327 C 60.473 337.737,60.849 336.690,61.000 336.000 C 61.151 335.310,61.527 334.263,61.835 333.673 C 62.143 333.083,62.397 332.330,62.400 332.000 C 62.403 331.670,62.657 330.917,62.965 330.327 C 63.273 329.737,63.653 328.657,63.810 327.927 C 63.966 327.197,64.293 326.240,64.536 325.800 C 64.779 325.360,65.187 324.280,65.442 323.400 C 65.958 321.624,66.693 319.520,67.329 318.000 C 67.560 317.450,67.967 316.280,68.234 315.400 C 68.502 314.520,69.470 311.730,70.386 309.200 C 71.301 306.670,72.238 303.970,72.467 303.200 C 72.696 302.430,73.024 301.620,73.195 301.400 C 73.367 301.180,73.639 300.370,73.800 299.600 C 73.961 298.830,74.315 297.750,74.586 297.200 C 75.107 296.146,76.220 293.021,76.795 291.000 C 78.005 286.749,79.997 282.379,80.709 282.414 C 80.869 282.422,81.441 282.673,81.980 282.971 " stroke="none" fill="#fbfbfb" fill-rule="evenodd"></path><path id="path2" d="M89.200 34.065 C 87.283 34.602,32.964 88.755,31.597 91.491 C 30.461 93.765,30.661 96.879,32.068 98.854 C 32.581 99.573,57.570 124.758,87.600 154.822 C 117.630 184.886,143.354 210.695,144.765 212.176 L 147.331 214.867 119.065 243.135 C 95.570 266.632,90.800 271.585,90.800 272.485 C 90.800 274.124,137.272 320.548,138.540 320.176 C 139.013 320.037,152.132 307.209,167.694 291.669 L 195.987 263.415 198.234 265.607 C 199.470 266.813,225.452 292.766,255.972 323.279 C 316.531 383.824,313.391 380.903,317.168 380.195 C 320.047 379.655,322.039 377.815,348.859 350.928 C 377.536 322.180,377.600 322.108,377.600 318.767 C 377.600 315.457,378.657 316.573,318.501 256.354 C 268.171 205.971,261.166 198.815,261.533 198.154 C 261.763 197.739,279.782 179.580,301.576 157.801 C 333.983 125.414,341.200 118.011,341.200 117.153 C 341.200 115.603,295.208 69.600,293.658 69.600 C 292.800 69.600,285.326 76.882,252.602 109.600 C 230.598 131.600,212.417 149.600,212.201 149.600 C 211.984 149.600,185.885 123.689,154.203 92.020 C 121.520 59.350,96.113 34.258,95.474 34.020 C 94.106 33.510,91.102 33.531,89.200 34.065 M95.074 34.421 C 95.712 34.659,121.239 59.868,154.006 92.621 C 185.799 124.399,211.986 150.400,212.199 150.400 C 212.412 150.400,230.683 132.310,252.800 110.200 C 274.917 88.090,293.306 70.000,293.664 70.000 C 294.849 70.000,340.400 115.968,340.400 117.164 C 340.400 118.007,332.983 125.614,300.776 157.801 C 278.982 179.580,260.963 197.739,260.733 198.154 C 260.366 198.815,267.395 205.996,317.901 256.554 C 349.573 288.259,375.872 314.851,376.343 315.647 C 377.594 317.760,377.485 320.205,376.043 322.422 C 373.756 325.936,320.808 378.304,318.850 378.988 C 313.642 380.808,319.203 385.814,254.185 320.778 C 222.526 289.110,196.349 263.200,196.015 263.200 C 195.681 263.200,182.713 275.890,167.197 291.400 C 151.681 306.910,138.683 319.600,138.311 319.600 C 137.181 319.600,91.200 273.411,91.200 272.276 C 91.200 272.021,103.975 259.030,119.590 243.407 C 141.839 221.144,147.899 214.870,147.605 214.400 C 147.400 214.070,121.489 188.048,90.026 156.574 C 28.442 94.969,30.797 97.483,31.367 93.918 C 31.505 93.052,31.914 91.861,32.275 91.272 C 33.225 89.721,86.330 36.506,88.022 35.410 C 90.217 33.988,92.906 33.611,95.074 34.421 M317.800 50.770 C 310.222 52.400,302.414 57.951,303.918 60.639 C 305.178 62.891,350.238 107.200,351.268 107.200 C 352.417 107.200,356.164 102.809,357.754 99.600 C 362.543 89.929,361.589 79.594,355.097 70.800 C 343.549 55.157,330.352 48.069,317.800 50.770 M332.048 52.037 C 339.582 54.611,353.539 67.657,357.684 76.000 C 361.927 84.541,360.915 94.227,354.880 102.848 C 351.727 107.352,351.398 107.409,347.880 104.060 C 338.982 95.588,304.450 60.634,304.260 59.906 C 303.656 57.598,312.612 52.122,318.541 51.173 C 322.095 50.605,329.182 51.058,332.048 52.037 M70.669 73.070 C 59.081 84.658,49.600 94.421,49.600 94.766 C 49.600 95.623,66.021 112.000,66.881 112.000 C 67.259 112.000,70.190 109.390,73.394 106.199 C 81.805 97.824,84.412 96.612,88.538 99.162 C 94.350 102.754,93.413 106.634,84.564 115.625 C 80.741 119.509,78.000 122.610,78.000 123.051 C 78.000 123.951,93.513 139.600,94.406 139.600 C 94.736 139.600,100.314 134.278,106.803 127.773 C 113.399 121.159,119.294 115.584,120.175 115.127 C 125.937 112.129,132.133 117.210,130.374 123.491 C 129.897 125.198,128.669 126.562,117.908 137.345 C 111.343 143.924,105.778 149.667,105.543 150.107 C 105.128 150.882,118.955 165.540,121.353 166.868 C 122.005 167.229,122.974 166.420,128.553 160.860 C 136.351 153.088,137.925 152.199,141.748 153.401 C 144.145 154.155,145.070 154.957,146.358 157.394 C 148.267 161.007,147.112 163.186,139.042 171.195 C 135.609 174.602,132.800 177.652,132.800 177.972 C 132.800 178.873,148.443 194.400,149.350 194.400 C 149.815 194.400,152.782 191.785,156.763 187.865 C 164.580 180.168,165.562 179.642,169.530 181.030 C 172.631 182.114,174.091 183.998,174.323 187.213 C 174.552 190.368,174.132 190.980,166.422 198.727 C 160.357 204.820,160.328 204.858,161.062 205.704 C 164.227 209.356,176.549 221.200,177.182 221.200 C 177.659 221.200,182.374 216.787,189.547 209.626 C 195.923 203.260,201.649 197.796,202.270 197.483 C 206.417 195.396,211.638 197.393,212.779 201.501 C 213.951 205.718,213.847 205.867,200.160 219.614 C 193.472 226.332,188.000 232.041,188.000 232.301 C 188.000 232.938,204.268 249.200,204.906 249.200 C 205.183 249.200,208.108 246.487,211.405 243.172 C 214.702 239.856,218.068 236.796,218.884 236.372 C 224.322 233.544,230.757 238.520,229.178 244.332 C 228.739 245.951,227.773 247.112,221.936 253.036 C 218.231 256.796,215.200 260.132,215.200 260.449 C 215.200 261.058,231.193 277.200,231.796 277.200 C 231.989 277.200,235.129 274.247,238.773 270.639 C 247.356 262.140,250.340 261.025,254.543 264.743 C 258.988 268.676,257.818 272.243,249.242 280.903 C 245.809 284.369,242.937 287.499,242.860 287.859 C 242.681 288.692,258.299 304.400,259.306 304.400 C 259.707 304.400,265.346 299.089,272.201 292.255 C 282.923 281.564,284.597 280.049,286.176 279.607 C 291.294 278.174,295.600 281.276,295.600 286.398 C 295.600 289.260,295.627 289.226,282.131 302.815 C 275.459 309.533,270.000 315.193,270.000 315.393 C 270.000 315.997,286.131 332.000,286.740 332.000 C 287.051 332.000,290.307 329.046,293.975 325.436 C 301.206 318.319,302.326 317.630,305.765 318.180 C 309.490 318.776,311.600 321.263,311.600 325.058 C 311.600 328.071,311.620 328.043,303.941 335.827 C 300.453 339.362,297.600 342.518,297.600 342.839 C 297.600 343.588,315.653 361.600,316.403 361.600 C 317.233 361.600,358.386 320.370,358.669 319.255 C 358.909 318.311,93.351 52.000,92.169 52.000 C 91.932 52.000,82.257 61.481,70.669 73.070 M225.307 185.427 C 298.253 258.372,358.036 318.317,358.159 318.638 C 358.406 319.280,317.188 360.800,316.305 360.800 C 315.710 360.800,298.400 343.588,298.400 342.997 C 298.400 342.771,301.185 339.755,304.589 336.294 C 311.657 329.108,312.160 328.359,312.183 324.971 C 312.206 321.693,310.916 319.691,307.844 318.238 C 303.411 316.141,301.896 316.854,293.775 324.863 C 290.241 328.349,287.089 331.200,286.771 331.200 C 286.130 331.200,270.800 316.029,270.800 315.394 C 270.800 315.174,276.118 309.686,282.618 303.197 C 289.118 296.709,294.822 290.784,295.293 290.031 C 297.569 286.396,295.689 280.975,291.557 279.258 C 286.592 277.194,285.861 277.658,271.426 292.029 C 262.116 301.298,259.313 303.873,258.826 303.604 C 258.482 303.414,254.789 299.824,250.620 295.625 L 243.040 287.991 249.473 281.496 C 258.157 272.728,259.141 270.441,256.161 265.956 C 252.147 259.915,247.704 260.985,238.395 270.235 C 234.983 273.626,232.011 276.400,231.792 276.400 C 231.143 276.400,216.000 261.049,216.000 260.391 C 216.000 260.061,218.807 257.002,222.238 253.595 C 226.476 249.386,228.720 246.844,229.238 245.667 C 231.351 240.862,228.445 235.702,223.390 235.283 C 219.083 234.925,218.836 235.069,211.790 242.034 C 208.248 245.535,205.102 248.400,204.798 248.400 C 204.050 248.400,188.800 233.180,188.800 232.433 C 188.800 232.107,194.272 226.341,200.960 219.620 L 213.119 207.400 213.396 205.178 C 214.318 197.779,206.707 193.203,200.958 197.699 C 200.324 198.195,194.814 203.595,188.712 209.700 C 182.611 215.805,177.383 220.800,177.096 220.800 C 176.170 220.800,161.077 205.326,161.424 204.733 C 161.596 204.440,164.319 201.590,167.476 198.400 C 174.650 191.151,174.794 190.937,174.797 187.531 C 174.801 183.972,173.349 181.911,169.846 180.503 C 165.731 178.849,164.450 179.510,156.363 187.469 C 152.712 191.061,149.560 194.000,149.359 194.000 C 148.733 194.000,133.600 178.628,133.600 177.991 C 133.600 177.661,136.306 174.692,139.614 171.395 C 148.215 162.822,149.183 160.621,146.300 156.195 C 142.221 149.934,137.831 150.921,128.543 160.187 C 125.118 163.604,122.108 166.400,121.854 166.400 C 121.249 166.400,106.000 151.133,106.000 150.528 C 106.000 150.273,111.387 144.660,117.971 138.056 C 132.495 123.487,133.080 122.540,130.491 117.807 C 129.005 115.092,126.752 113.844,123.393 113.875 C 119.919 113.908,119.420 114.304,106.403 127.365 C 100.134 133.654,94.736 138.800,94.406 138.800 C 93.469 138.800,78.800 123.948,78.800 122.999 C 78.800 122.488,81.087 119.908,85.007 115.995 C 92.537 108.481,93.353 107.014,92.175 103.120 C 90.613 97.957,84.788 95.957,80.155 98.993 C 79.663 99.315,76.638 102.193,73.431 105.389 C 70.225 108.585,67.288 111.200,66.904 111.200 C 66.003 111.200,50.400 95.625,50.400 94.725 C 50.400 93.938,91.374 52.800,92.158 52.800 C 92.445 52.800,152.361 112.482,225.307 185.427 M79.749 283.422 C 79.103 284.407,77.503 288.514,76.795 291.000 C 76.220 293.021,75.107 296.146,74.586 297.200 C 74.315 297.750,73.961 298.830,73.800 299.600 C 73.639 300.370,73.367 301.180,73.195 301.400 C 73.024 301.620,72.696 302.430,72.467 303.200 C 72.238 303.970,71.301 306.670,70.386 309.200 C 69.470 311.730,68.502 314.520,68.234 315.400 C 67.967 316.280,67.560 317.450,67.329 318.000 C 66.693 319.520,65.958 321.624,65.442 323.400 C 65.187 324.280,64.779 325.360,64.536 325.800 C 64.293 326.240,63.966 327.197,63.810 327.927 C 63.653 328.657,63.273 329.737,62.965 330.327 C 62.657 330.917,62.403 331.670,62.400 332.000 C 62.397 332.330,62.143 333.083,61.835 333.673 C 61.527 334.263,61.151 335.310,61.000 336.000 C 60.849 336.690,60.473 337.737,60.165 338.327 C 57.426 343.576,62.608 351.200,68.914 351.200 C 70.110 351.200,74.818 350.050,75.400 349.616 C 75.620 349.451,76.520 349.124,77.400 348.887 C 79.451 348.336,82.424 347.293,83.213 346.848 C 83.550 346.658,84.450 346.366,85.213 346.200 C 85.976 346.034,86.955 345.651,87.389 345.349 C 87.823 345.047,88.543 344.794,88.989 344.786 C 89.435 344.779,90.520 344.425,91.400 344.000 C 92.280 343.575,93.365 343.221,93.811 343.214 C 94.257 343.206,94.977 342.958,95.411 342.663 C 95.845 342.368,96.920 341.930,97.800 341.692 C 99.614 341.199,102.608 340.160,103.800 339.608 C 104.240 339.404,105.230 339.060,106.000 338.843 C 108.019 338.274,110.901 337.250,111.613 336.848 C 111.950 336.658,112.850 336.368,113.613 336.204 C 114.376 336.040,115.360 335.707,115.800 335.464 C 116.240 335.221,117.320 334.813,118.200 334.558 C 120.017 334.030,122.131 333.289,123.600 332.664 C 124.150 332.430,125.227 332.045,125.994 331.808 C 127.535 331.332,128.552 329.827,128.010 328.825 C 127.457 327.803,83.046 283.562,81.980 282.971 C 80.640 282.229,80.514 282.255,79.749 283.422 M104.649 306.161 C 117.272 318.789,127.600 329.285,127.600 329.484 C 127.600 330.249,126.544 331.153,125.200 331.540 C 124.430 331.761,122.540 332.417,121.000 332.996 C 119.460 333.575,117.660 334.207,117.000 334.400 C 116.340 334.593,114.540 335.219,113.000 335.791 C 111.460 336.363,108.670 337.359,106.800 338.003 C 104.930 338.648,101.330 339.906,98.800 340.800 C 96.270 341.694,92.670 342.955,90.800 343.604 C 88.930 344.252,86.140 345.242,84.600 345.803 C 69.682 351.241,67.128 351.594,63.498 348.719 C 58.943 345.111,59.023 342.811,64.198 328.600 C 64.759 327.060,65.748 324.270,66.396 322.400 C 67.045 320.530,68.306 316.930,69.200 314.400 C 70.094 311.870,71.352 308.270,71.997 306.400 C 72.641 304.530,73.637 301.740,74.209 300.200 C 74.781 298.660,75.407 296.860,75.600 296.200 C 75.793 295.540,76.425 293.740,77.004 292.200 C 77.583 290.660,78.237 288.801,78.456 288.070 C 79.306 285.232,80.382 283.200,81.035 283.200 C 81.400 283.200,92.026 293.532,104.649 306.161 " stroke="none" fill="#bfbfbf" fill-rule="evenodd"></path><path id="path3" d="M89.000 35.056 C 87.246 35.969,33.289 89.927,32.373 91.684 C 31.308 93.729,31.394 96.225,32.599 98.185 C 33.134 99.057,59.319 125.521,90.786 156.995 C 122.254 188.468,148.000 214.485,148.000 214.810 C 148.000 215.136,135.310 228.091,119.800 243.600 C 104.290 259.109,91.600 272.084,91.600 272.434 C 91.600 273.180,94.532 276.508,98.940 280.767 C 102.902 284.593,126.584 308.298,129.819 311.675 C 133.689 315.714,137.633 319.200,138.334 319.200 C 138.690 319.200,151.680 306.510,167.200 291.000 C 182.720 275.490,195.681 262.800,196.002 262.800 C 196.323 262.800,222.550 288.765,254.284 320.500 C 314.722 380.940,312.765 379.085,316.200 379.167 C 319.544 379.246,319.004 379.728,347.614 351.125 C 375.910 322.834,376.858 321.796,376.898 319.049 C 376.943 315.902,376.701 315.647,317.827 256.801 C 279.739 218.731,260.400 199.131,260.400 198.600 C 260.400 198.070,273.957 184.242,300.400 157.800 C 322.400 135.801,340.400 117.515,340.400 117.164 C 340.400 116.317,294.503 70.400,293.657 70.400 C 293.295 70.400,275.269 88.141,253.599 109.825 C 231.930 131.509,213.687 149.625,213.059 150.082 L 211.919 150.912 154.259 93.310 C 122.547 61.629,96.155 35.414,95.611 35.054 C 94.342 34.215,90.615 34.216,89.000 35.056 M95.211 35.454 C 95.755 35.814,122.211 62.094,154.003 93.854 C 185.795 125.614,211.980 151.600,212.193 151.600 C 212.405 151.600,230.802 133.386,253.074 111.124 L 293.569 70.648 296.005 72.972 C 304.598 81.169,339.600 116.656,339.600 117.172 C 339.600 117.518,321.600 135.801,299.600 157.800 C 273.157 184.242,259.600 198.070,259.600 198.600 C 259.600 199.131,279.006 218.794,317.236 257.001 C 376.331 316.058,376.400 316.130,376.400 319.049 C 376.400 321.241,373.803 324.049,347.239 350.586 L 319.625 378.172 316.868 378.328 C 314.989 378.434,313.765 378.302,313.022 377.913 C 312.422 377.599,286.065 351.480,254.450 319.871 C 209.194 274.623,196.759 262.400,195.983 262.400 C 195.212 262.400,188.908 268.490,167.000 290.400 C 151.601 305.800,138.761 318.400,138.467 318.400 C 137.813 318.400,132.889 314.130,130.411 311.415 C 128.381 309.190,103.339 284.081,98.997 279.918 C 97.459 278.442,95.224 276.134,94.031 274.788 L 91.862 272.340 120.331 243.869 C 135.989 228.210,148.800 215.136,148.800 214.815 C 148.800 214.494,123.015 188.441,91.500 156.919 C 27.428 92.832,30.727 96.468,32.792 92.226 C 33.746 90.267,87.060 36.794,89.205 35.645 C 90.991 34.689,93.913 34.596,95.211 35.454 M320.170 51.208 C 313.654 51.895,303.771 57.387,304.562 59.881 C 304.781 60.570,337.305 93.467,348.070 103.888 C 351.221 106.939,351.596 106.938,353.912 103.871 C 362.286 92.779,362.169 81.060,353.575 70.200 C 350.368 66.148,340.019 56.262,337.400 54.749 C 332.076 51.674,326.540 50.536,320.170 51.208 M69.895 72.709 C 58.073 84.538,48.400 94.485,48.400 94.812 C 48.400 96.143,66.176 113.271,67.272 112.996 C 67.844 112.853,70.891 110.115,74.244 106.734 C 77.520 103.429,80.669 100.389,81.242 99.977 C 84.702 97.491,90.204 99.721,91.050 103.952 C 91.652 106.959,91.154 107.730,83.767 115.222 C 79.675 119.373,76.800 122.602,76.800 123.048 C 76.800 124.266,93.166 140.400,94.401 140.400 C 95.171 140.400,98.114 137.682,107.458 128.342 C 121.364 114.442,121.924 114.064,126.183 115.704 C 129.148 116.846,130.494 119.878,129.567 123.323 C 129.180 124.759,127.329 126.795,116.525 137.663 C 105.713 148.539,103.991 150.433,104.338 151.065 C 105.205 152.643,121.064 168.000,121.827 168.000 C 122.305 168.000,125.165 165.440,129.191 161.409 C 135.356 155.235,135.902 154.790,137.835 154.357 C 142.112 153.400,145.259 155.191,145.866 158.927 C 146.408 162.272,146.021 162.884,138.565 170.447 C 134.734 174.332,131.600 177.743,131.600 178.025 C 131.600 178.854,148.504 195.600,149.340 195.600 C 149.768 195.600,152.954 192.755,156.833 188.909 C 164.270 181.534,164.083 181.665,167.200 181.634 C 169.924 181.607,171.056 182.158,172.470 184.203 C 175.040 187.921,174.101 189.886,165.704 198.363 C 162.347 201.752,159.600 204.724,159.600 204.966 C 159.600 205.958,176.181 222.000,177.206 222.000 C 177.982 222.000,180.667 219.532,189.203 210.970 C 195.251 204.904,200.952 199.414,201.872 198.770 C 206.274 195.690,212.400 198.615,212.400 203.798 C 212.400 205.982,211.933 206.530,198.872 219.664 L 186.676 231.929 187.903 233.464 C 189.377 235.309,204.569 250.400,204.952 250.400 C 205.099 250.400,208.068 247.549,211.549 244.064 C 216.713 238.894,218.280 237.561,220.065 236.821 L 222.252 235.914 224.287 236.789 C 227.277 238.076,228.116 239.149,228.319 241.946 C 228.549 245.132,228.290 245.525,221.329 252.548 C 218.030 255.877,215.001 259.109,214.598 259.732 L 213.866 260.864 222.233 269.194 C 226.835 273.775,231.021 277.648,231.535 277.800 C 232.348 278.040,233.339 277.218,239.135 271.489 C 246.914 263.801,247.901 263.234,251.675 264.285 C 254.182 264.982,255.400 266.384,255.825 269.059 C 256.314 272.134,255.613 273.214,248.346 280.571 C 244.636 284.327,241.600 287.661,241.600 287.980 C 241.600 288.769,258.477 305.600,259.269 305.600 C 259.615 305.600,265.559 299.958,272.477 293.063 C 284.200 281.379,285.173 280.507,286.767 280.252 C 290.486 279.657,292.709 280.657,294.197 283.594 C 296.146 287.439,295.875 287.835,281.320 302.456 C 270.522 313.302,269.150 314.820,269.397 315.656 C 269.551 316.175,273.414 320.355,277.983 324.944 C 287.833 334.838,285.751 334.710,294.634 325.964 C 298.173 322.481,301.560 319.443,302.160 319.215 C 306.369 317.615,310.977 320.634,310.967 324.986 C 310.961 327.682,310.543 328.251,303.100 335.703 C 298.679 340.130,296.800 342.281,296.800 342.917 C 296.800 344.204,315.060 362.400,316.351 362.400 C 317.496 362.400,360.000 320.075,360.000 318.935 C 360.000 317.882,93.248 51.200,92.196 51.200 C 91.665 51.200,84.067 58.528,69.895 72.709 M225.901 184.901 C 299.215 258.217,359.200 318.509,359.200 318.883 C 359.200 319.952,317.363 361.600,316.289 361.600 C 315.097 361.600,297.600 344.169,297.600 342.981 C 297.600 342.453,299.883 339.835,303.938 335.713 C 312.861 326.642,313.841 323.297,308.672 319.554 C 304.548 316.566,302.316 317.543,293.596 326.154 C 290.118 329.589,287.032 332.400,286.740 332.400 C 285.848 332.400,270.000 316.306,270.000 315.401 C 270.000 314.877,274.205 310.401,282.027 302.597 C 288.642 295.999,294.402 289.932,294.827 289.116 C 297.485 284.012,292.456 278.215,286.631 279.668 C 284.710 280.147,283.933 280.839,272.230 292.487 C 265.427 299.259,259.587 304.800,259.253 304.800 C 258.515 304.800,242.897 289.335,242.558 288.269 C 242.372 287.683,243.758 286.059,248.712 281.056 C 257.466 272.217,258.526 269.539,254.885 265.463 C 251.047 261.167,247.240 262.469,238.805 270.962 C 234.919 274.875,232.311 277.200,231.808 277.200 C 230.948 277.200,214.800 261.381,214.800 260.538 C 214.800 260.279,217.837 256.990,221.550 253.228 C 227.338 247.361,228.373 246.124,228.818 244.537 C 230.492 238.555,224.368 233.763,218.730 236.643 C 218.141 236.944,214.865 239.982,211.450 243.395 C 208.034 246.808,205.090 249.600,204.908 249.600 C 204.443 249.600,187.600 232.644,187.600 232.176 C 187.600 231.966,192.748 226.666,199.041 220.397 C 212.634 206.856,212.800 206.654,212.800 203.687 C 212.800 198.881,208.526 195.875,203.583 197.204 C 202.007 197.627,200.403 199.073,189.780 209.641 C 183.169 216.219,177.501 221.600,177.184 221.600 C 176.515 221.600,160.400 205.627,160.400 204.964 C 160.400 204.720,163.067 201.838,166.326 198.560 C 175.410 189.423,176.226 187.194,172.084 182.840 C 168.245 178.804,165.208 179.874,156.773 188.233 C 152.863 192.108,149.834 194.800,149.384 194.800 C 148.501 194.800,132.400 178.889,132.400 178.016 C 132.400 177.706,135.350 174.471,138.956 170.827 C 147.782 161.906,148.833 158.955,144.543 155.140 C 140.366 151.427,137.436 152.505,128.996 160.860 C 124.972 164.843,122.291 167.200,121.783 167.200 C 120.996 167.200,104.800 151.378,104.800 150.609 C 104.800 150.419,110.453 144.576,117.361 137.626 C 129.621 125.293,129.929 124.944,130.210 123.073 C 130.804 119.113,129.787 116.826,126.764 115.324 C 122.217 113.064,121.330 113.633,107.003 127.983 C 100.404 134.592,94.744 140.000,94.425 140.000 C 93.517 140.000,77.600 123.955,77.600 123.040 C 77.600 122.563,80.088 119.733,83.941 115.827 C 91.526 108.138,91.600 108.036,91.600 105.291 C 91.600 101.399,89.245 98.802,85.426 98.486 C 82.198 98.218,80.900 99.063,73.775 106.076 C 70.241 109.554,67.093 112.400,66.778 112.400 C 66.017 112.400,49.200 95.574,49.200 94.812 C 49.200 94.157,91.544 51.600,92.196 51.600 C 92.419 51.600,152.586 111.586,225.901 184.901 M332.058 52.921 C 340.934 56.169,358.351 74.040,358.406 79.955 C 358.409 80.310,358.671 81.320,358.988 82.200 C 360.426 86.191,359.327 93.563,356.518 98.775 C 354.724 102.102,351.986 105.600,351.175 105.600 C 350.277 105.600,305.200 60.477,305.200 59.578 C 305.200 57.634,313.414 52.975,318.800 51.865 C 321.457 51.317,329.405 51.950,332.058 52.921 M79.777 285.100 C 79.428 285.925,78.621 288.130,77.984 290.000 C 77.346 291.870,76.091 295.470,75.194 298.000 C 74.297 300.530,73.019 304.220,72.354 306.200 C 71.689 308.180,70.985 310.160,70.790 310.600 C 70.595 311.040,69.967 312.840,69.393 314.600 C 68.820 316.360,68.181 318.160,67.975 318.600 C 67.768 319.040,67.346 320.210,67.037 321.200 C 66.728 322.190,65.835 324.800,65.054 327.000 C 59.795 341.810,59.696 342.304,61.316 345.594 C 63.905 350.849,68.027 351.459,77.600 348.002 C 80.130 347.088,82.920 346.093,83.800 345.790 C 84.680 345.487,87.470 344.505,90.000 343.607 C 92.530 342.710,96.220 341.436,98.200 340.777 C 100.180 340.119,102.160 339.415,102.600 339.215 C 103.040 339.014,104.840 338.380,106.600 337.807 C 108.360 337.233,110.160 336.597,110.600 336.392 C 111.040 336.188,113.020 335.484,115.000 334.828 C 125.511 331.347,127.177 330.600,127.194 329.361 C 127.197 329.119,118.245 319.956,107.300 309.000 C 78.908 280.577,80.942 282.343,79.777 285.100 M84.515 287.100 C 86.057 288.585,87.966 290.456,88.759 291.258 C 98.113 300.722,114.369 317.018,117.465 320.034 C 127.239 329.555,127.526 330.028,124.160 331.072 C 123.302 331.338,120.530 332.291,118.000 333.190 C 115.470 334.089,111.870 335.352,110.000 335.997 C 108.130 336.641,105.340 337.637,103.800 338.209 C 102.260 338.781,100.358 339.412,99.574 339.610 C 98.789 339.809,97.619 340.246,96.974 340.583 C 96.328 340.920,95.440 341.202,95.000 341.210 C 94.560 341.219,93.851 341.490,93.424 341.813 C 92.996 342.136,92.304 342.400,91.884 342.400 C 91.464 342.400,90.554 342.662,89.860 342.982 C 88.370 343.670,85.559 344.689,83.600 345.250 C 82.830 345.471,81.633 345.910,80.940 346.226 C 80.246 346.542,79.436 346.801,79.140 346.802 C 78.843 346.804,78.117 347.057,77.527 347.365 C 76.937 347.673,75.890 348.049,75.200 348.200 C 74.510 348.351,73.463 348.727,72.873 349.035 C 69.937 350.567,64.560 349.383,62.569 346.767 C 61.716 345.645,60.720 342.331,60.920 341.277 C 61.280 339.374,63.136 333.649,63.992 331.800 C 64.196 331.360,64.540 330.370,64.757 329.600 C 65.353 327.484,66.358 324.684,66.798 323.914 C 67.013 323.536,67.358 322.546,67.563 321.714 C 67.768 320.881,68.412 318.940,68.993 317.400 C 69.574 315.860,70.207 314.060,70.400 313.400 C 70.593 312.740,71.219 310.940,71.791 309.400 C 72.363 307.860,73.359 305.070,74.003 303.200 C 74.648 301.330,75.910 297.730,76.807 295.200 C 77.705 292.670,78.680 289.880,78.974 289.000 C 80.780 283.588,80.847 283.565,84.515 287.100 " stroke="none" fill="#949494" fill-rule="evenodd"></path><path id="path4" d="M91.705 34.287 C 92.314 34.379,93.214 34.377,93.705 34.282 C 94.197 34.187,93.700 34.111,92.600 34.114 C 91.500 34.117,91.097 34.195,91.705 34.287 M59.999 63.100 L 32.600 90.600 60.100 63.201 C 75.225 48.132,87.600 35.757,87.600 35.701 C 87.600 35.421,85.469 37.536,59.999 63.100 M153.800 92.725 C 211.706 150.756,212.126 151.167,212.638 150.339 C 212.824 150.037,212.747 149.985,212.417 150.190 C 212.071 150.403,193.573 132.199,154.255 92.952 L 96.600 35.401 153.800 92.725 M320.900 51.076 C 321.285 51.176,321.915 51.176,322.300 51.076 C 322.685 50.975,322.370 50.893,321.600 50.893 C 320.830 50.893,320.515 50.975,320.900 51.076 M324.900 51.076 C 325.285 51.176,325.915 51.176,326.300 51.076 C 326.685 50.975,326.370 50.893,325.600 50.893 C 324.830 50.893,324.515 50.975,324.900 51.076 M90.378 53.100 L 89.000 54.600 90.419 53.300 C 91.200 52.585,92.009 52.000,92.219 52.000 C 92.428 52.000,152.540 111.895,225.800 185.100 L 359.000 318.200 225.800 184.900 C 152.540 111.585,92.411 51.600,92.179 51.600 C 91.947 51.600,91.137 52.275,90.378 53.100 M85.775 57.700 L 84.600 59.000 85.900 57.825 C 87.112 56.730,87.384 56.400,87.075 56.400 C 87.006 56.400,86.421 56.985,85.775 57.700 M346.600 62.800 C 349.894 66.100,352.680 68.800,352.790 68.800 C 352.900 68.800,350.294 66.100,347.000 62.800 C 343.706 59.500,340.920 56.800,340.810 56.800 C 340.700 56.800,343.306 59.500,346.600 62.800 M82.975 60.500 L 81.800 61.800 83.100 60.625 C 84.312 59.530,84.584 59.200,84.275 59.200 C 84.206 59.200,83.621 59.785,82.975 60.500 M304.400 60.248 C 304.400 60.458,305.345 61.523,306.500 62.615 L 308.600 64.600 306.600 62.408 C 305.500 61.203,304.555 60.138,304.500 60.042 C 304.445 59.945,304.400 60.038,304.400 60.248 M80.175 63.300 L 79.000 64.600 80.300 63.425 C 81.512 62.330,81.784 62.000,81.475 62.000 C 81.406 62.000,80.821 62.585,80.175 63.300 M310.200 66.800 C 311.283 67.900,312.260 68.800,312.370 68.800 C 312.480 68.800,311.683 67.900,310.600 66.800 C 309.517 65.700,308.540 64.800,308.430 64.800 C 308.320 64.800,309.117 65.700,310.200 66.800 M75.775 67.700 L 74.600 69.000 75.900 67.825 C 77.112 66.730,77.384 66.400,77.075 66.400 C 77.006 66.400,76.421 66.985,75.775 67.700 M72.975 70.500 L 71.800 71.800 73.100 70.625 C 73.815 69.979,74.400 69.394,74.400 69.325 C 74.400 69.016,74.070 69.288,72.975 70.500 M293.672 70.328 C 294.042 70.478,296.652 72.731,299.472 75.335 L 304.600 80.069 299.400 75.041 C 296.540 72.276,293.930 70.023,293.600 70.035 C 293.129 70.052,293.145 70.115,293.672 70.328 M327.400 83.600 C 334.878 91.080,341.086 97.200,341.196 97.200 C 341.306 97.200,335.278 91.080,327.800 83.600 C 320.322 76.120,314.114 70.000,314.004 70.000 C 313.894 70.000,319.922 76.120,327.400 83.600 M252.799 110.300 L 213.000 150.200 252.900 110.401 C 289.993 73.401,292.979 70.400,292.699 70.400 C 292.644 70.400,274.689 88.355,252.799 110.300 M70.175 73.300 L 69.000 74.600 70.300 73.425 C 71.512 72.330,71.784 72.000,71.475 72.000 C 71.406 72.000,70.821 72.585,70.175 73.300 M65.775 77.700 L 64.600 79.000 65.900 77.825 C 67.112 76.730,67.384 76.400,67.075 76.400 C 67.006 76.400,66.421 76.985,65.775 77.700 M62.975 80.500 L 61.800 81.800 63.100 80.625 C 64.312 79.530,64.584 79.200,64.275 79.200 C 64.206 79.200,63.621 79.785,62.975 80.500 M315.400 91.540 C 321.560 97.762,328.760 104.855,331.400 107.302 C 337.156 112.637,337.501 112.985,319.000 94.786 C 305.447 81.454,305.143 81.181,315.400 91.540 M60.175 83.300 L 59.000 84.600 60.300 83.425 C 61.512 82.330,61.784 82.000,61.475 82.000 C 61.406 82.000,60.821 82.585,60.175 83.300 M55.775 87.700 L 54.600 89.000 55.900 87.825 C 57.112 86.730,57.384 86.400,57.075 86.400 C 57.006 86.400,56.421 86.985,55.775 87.700 M52.975 90.500 L 51.800 91.800 53.100 90.625 C 54.312 89.530,54.584 89.200,54.275 89.200 C 54.206 89.200,53.621 89.785,52.975 90.500 M31.293 94.800 C 31.293 95.570,31.375 95.885,31.476 95.500 C 31.576 95.115,31.576 94.485,31.476 94.100 C 31.375 93.715,31.293 94.030,31.293 94.800 M49.225 94.803 C 49.191 95.618,66.028 112.400,66.880 112.400 C 67.250 112.400,67.654 112.237,67.777 112.037 C 67.900 111.838,67.623 111.773,67.161 111.894 C 66.287 112.123,50.367 96.814,49.592 95.000 C 49.364 94.464,49.242 94.399,49.225 94.803 M343.000 99.600 C 344.083 100.700,345.060 101.600,345.170 101.600 C 345.280 101.600,344.483 100.700,343.400 99.600 C 342.317 98.500,341.340 97.600,341.230 97.600 C 341.120 97.600,341.917 98.500,343.000 99.600 M356.253 100.500 L 355.533 101.800 356.358 100.800 C 357.089 99.913,357.414 99.200,357.086 99.200 C 357.024 99.200,356.649 99.785,356.253 100.500 M347.800 104.000 C 349.106 105.320,350.265 106.400,350.375 106.400 C 350.485 106.400,349.506 105.320,348.200 104.000 C 346.894 102.680,345.735 101.600,345.625 101.600 C 345.515 101.600,346.494 102.680,347.800 104.000 M35.600 102.125 C 35.600 102.194,36.185 102.779,36.900 103.425 L 38.200 104.600 37.025 103.300 C 35.930 102.088,35.600 101.816,35.600 102.125 M91.701 105.000 C 91.705 105.880,91.787 106.193,91.883 105.695 C 91.979 105.198,91.975 104.478,91.875 104.095 C 91.775 103.713,91.696 104.120,91.701 105.000 M38.400 104.925 C 38.400 104.994,38.985 105.579,39.700 106.225 L 41.000 107.400 39.825 106.100 C 38.730 104.888,38.400 104.616,38.400 104.925 M42.800 109.325 C 42.800 109.394,43.385 109.979,44.100 110.625 L 45.400 111.800 44.225 110.500 C 43.130 109.288,42.800 109.016,42.800 109.325 M83.884 115.928 C 80.109 119.730,77.600 122.566,77.600 123.032 C 77.600 123.511,80.701 126.869,85.700 131.804 L 93.800 139.800 85.900 131.796 C 81.155 126.989,78.000 123.486,78.000 123.025 C 78.000 122.568,80.551 119.688,84.284 115.928 C 87.740 112.448,90.477 109.600,90.367 109.600 C 90.257 109.600,87.340 112.448,83.884 115.928 M45.600 112.125 C 45.600 112.194,46.185 112.779,46.900 113.425 L 48.200 114.600 47.025 113.300 C 45.930 112.088,45.600 111.816,45.600 112.125 M338.000 114.200 C 339.195 115.410,340.263 116.400,340.373 116.400 C 340.483 116.400,339.595 115.410,338.400 114.200 C 337.205 112.990,336.137 112.000,336.027 112.000 C 335.917 112.000,336.805 112.990,338.000 114.200 M120.400 115.000 C 119.850 115.314,119.580 115.572,119.800 115.572 C 120.020 115.572,120.650 115.314,121.200 115.000 C 121.750 114.686,122.020 114.428,121.800 114.428 C 121.580 114.428,120.950 114.686,120.400 115.000 M126.000 115.000 C 126.550 115.314,127.180 115.572,127.400 115.572 C 127.620 115.572,127.350 115.314,126.800 115.000 C 126.250 114.686,125.620 114.428,125.400 114.428 C 125.180 114.428,125.450 114.686,126.000 115.000 M48.400 114.925 C 48.400 114.994,48.985 115.579,49.700 116.225 L 51.000 117.400 49.825 116.100 C 48.730 114.888,48.400 114.616,48.400 114.925 M107.197 127.433 C 100.709 133.941,95.040 139.419,94.600 139.607 C 94.066 139.836,94.000 139.958,94.402 139.975 C 94.734 139.989,100.493 134.510,107.200 127.800 C 113.907 121.090,119.305 115.600,119.195 115.600 C 119.085 115.600,113.686 120.925,107.197 127.433 M300.216 157.984 C 278.226 179.975,260.316 198.020,260.417 198.084 C 260.518 198.148,278.599 180.155,300.598 158.100 C 322.597 136.045,340.506 118.000,340.397 118.000 C 340.288 118.000,322.207 135.993,300.216 157.984 M52.800 119.325 C 52.800 119.394,53.385 119.979,54.100 120.625 L 55.400 121.800 54.225 120.500 C 53.130 119.288,52.800 119.016,52.800 119.325 M130.509 121.200 C 130.509 122.190,130.587 122.595,130.682 122.100 C 130.778 121.605,130.778 120.795,130.682 120.300 C 130.587 119.805,130.509 120.210,130.509 121.200 M55.600 122.125 C 55.600 122.194,56.185 122.779,56.900 123.425 L 58.200 124.600 57.025 123.300 C 55.930 122.088,55.600 121.816,55.600 122.125 M59.800 126.400 C 60.659 127.280,61.452 128.000,61.562 128.000 C 61.672 128.000,61.059 127.280,60.200 126.400 C 59.341 125.520,58.548 124.800,58.438 124.800 C 58.328 124.800,58.941 125.520,59.800 126.400 M63.400 130.000 C 64.259 130.880,65.052 131.600,65.162 131.600 C 65.272 131.600,64.659 130.880,63.800 130.000 C 62.941 129.120,62.148 128.400,62.038 128.400 C 61.928 128.400,62.541 129.120,63.400 130.000 M65.600 132.125 C 65.600 132.194,66.185 132.779,66.900 133.425 L 68.200 134.600 67.025 133.300 C 65.930 132.088,65.600 131.816,65.600 132.125 M68.400 134.925 C 68.400 134.994,68.985 135.579,69.700 136.225 L 71.000 137.400 69.825 136.100 C 68.730 134.888,68.400 134.616,68.400 134.925 M72.800 139.325 C 72.800 139.394,73.385 139.979,74.100 140.625 L 75.400 141.800 74.225 140.500 C 73.130 139.288,72.800 139.016,72.800 139.325 M75.600 142.125 C 75.600 142.194,76.185 142.779,76.900 143.425 L 78.200 144.600 77.025 143.300 C 75.930 142.088,75.600 141.816,75.600 142.125 M78.400 144.925 C 78.400 144.994,78.985 145.579,79.700 146.225 L 81.000 147.400 79.825 146.100 C 78.730 144.888,78.400 144.616,78.400 144.925 M82.800 149.325 C 82.800 149.394,83.385 149.979,84.100 150.625 L 85.400 151.800 84.225 150.500 C 83.130 149.288,82.800 149.016,82.800 149.325 M113.084 159.188 C 117.530 163.685,121.220 167.283,121.284 167.183 C 121.348 167.082,117.710 163.402,113.200 159.005 L 105.000 151.010 113.084 159.188 M87.000 153.600 C 87.859 154.480,88.652 155.200,88.762 155.200 C 88.872 155.200,88.259 154.480,87.400 153.600 C 86.541 152.720,85.748 152.000,85.638 152.000 C 85.528 152.000,86.141 152.720,87.000 153.600 M143.233 154.100 C 143.325 154.155,143.940 154.650,144.600 155.200 L 145.800 156.200 144.830 155.100 C 144.297 154.495,143.682 154.000,143.464 154.000 C 143.245 154.000,143.142 154.045,143.233 154.100 M128.595 160.900 L 122.200 167.400 128.700 161.005 C 134.739 155.063,135.381 154.400,135.095 154.400 C 135.038 154.400,132.113 157.325,128.595 160.900 M90.600 157.200 C 91.459 158.080,92.252 158.800,92.362 158.800 C 92.472 158.800,91.859 158.080,91.000 157.200 C 90.141 156.320,89.348 155.600,89.238 155.600 C 89.128 155.600,89.741 156.320,90.600 157.200 M146.893 160.000 C 146.893 160.770,146.975 161.085,147.076 160.700 C 147.176 160.315,147.176 159.685,147.076 159.300 C 146.975 158.915,146.893 159.230,146.893 160.000 M92.800 159.325 C 92.800 159.394,93.385 159.979,94.100 160.625 L 95.400 161.800 94.225 160.500 C 93.130 159.288,92.800 159.016,92.800 159.325 M95.600 162.125 C 95.600 162.194,96.185 162.779,96.900 163.425 L 98.200 164.600 97.025 163.300 C 95.930 162.088,95.600 161.816,95.600 162.125 M138.995 170.900 L 132.600 177.400 139.100 171.005 C 145.139 165.063,145.781 164.400,145.495 164.400 C 145.438 164.400,142.513 167.325,138.995 170.900 M98.400 164.925 C 98.400 164.994,98.985 165.579,99.700 166.225 L 101.000 167.400 99.825 166.100 C 98.730 164.888,98.400 164.616,98.400 164.925 M102.800 169.325 C 102.800 169.394,103.385 169.979,104.100 170.625 L 105.400 171.800 104.225 170.500 C 103.130 169.288,102.800 169.016,102.800 169.325 M105.600 172.125 C 105.600 172.194,106.185 172.779,106.900 173.425 L 108.200 174.600 107.025 173.300 C 105.930 172.088,105.600 171.816,105.600 172.125 M108.400 174.925 C 108.400 174.994,108.985 175.579,109.700 176.225 L 111.000 177.400 109.825 176.100 C 108.730 174.888,108.400 174.616,108.400 174.925 M132.412 177.980 C 132.405 178.299,135.955 182.081,140.300 186.385 L 148.200 194.211 140.747 186.606 C 136.648 182.423,133.099 178.640,132.859 178.200 C 132.575 177.677,132.420 177.601,132.412 177.980 M114.200 180.800 C 115.059 181.680,115.852 182.400,115.962 182.400 C 116.072 182.400,115.459 181.680,114.600 180.800 C 113.741 179.920,112.948 179.200,112.838 179.200 C 112.728 179.200,113.341 179.920,114.200 180.800 M165.400 180.810 C 164.866 181.047,165.198 181.086,166.400 180.927 C 167.390 180.796,168.275 180.624,168.367 180.544 C 168.714 180.243,166.164 180.472,165.400 180.810 M156.995 187.641 C 153.698 190.963,150.460 193.926,149.800 194.225 C 148.914 194.626,148.803 194.773,149.376 194.784 C 149.856 194.794,152.673 192.289,156.776 188.203 C 160.419 184.575,163.308 181.605,163.195 181.603 C 163.082 181.601,160.292 184.318,156.995 187.641 M172.038 182.577 C 172.388 183.030,172.973 183.845,173.338 184.389 C 173.702 184.933,174.000 185.188,174.000 184.956 C 174.000 184.723,173.415 183.908,172.700 183.143 C 171.985 182.379,171.687 182.124,172.038 182.577 M119.000 185.600 C 119.859 186.480,120.652 187.200,120.762 187.200 C 120.872 187.200,120.259 186.480,119.400 185.600 C 118.541 184.720,117.748 184.000,117.638 184.000 C 117.528 184.000,118.141 184.720,119.000 185.600 M122.800 189.325 C 122.800 189.394,123.385 189.979,124.100 190.625 L 125.400 191.800 124.225 190.500 C 123.130 189.288,122.800 189.016,122.800 189.325 M125.600 192.125 C 125.600 192.194,126.185 192.779,126.900 193.425 L 128.200 194.600 127.025 193.300 C 125.930 192.088,125.600 191.816,125.600 192.125 M128.400 194.925 C 128.400 194.994,128.985 195.579,129.700 196.225 L 131.000 197.400 129.825 196.100 C 128.730 194.888,128.400 194.616,128.400 194.925 M260.400 199.034 C 260.400 199.236,286.365 225.321,318.100 257.001 L 375.800 314.600 318.200 256.816 C 286.520 225.035,260.555 198.950,260.500 198.850 C 260.445 198.749,260.400 198.832,260.400 199.034 M132.800 199.325 C 132.800 199.394,133.385 199.979,134.100 200.625 L 135.400 201.800 134.225 200.500 C 133.130 199.288,132.800 199.016,132.800 199.325 M135.600 202.125 C 135.600 202.194,136.185 202.779,136.900 203.425 L 138.200 204.600 137.025 203.300 C 135.930 202.088,135.600 201.816,135.600 202.125 M212.893 203.600 C 212.893 204.370,212.975 204.685,213.076 204.300 C 213.176 203.915,213.176 203.285,213.076 202.900 C 212.975 202.515,212.893 202.830,212.893 203.600 M140.600 207.200 C 141.906 208.520,143.065 209.600,143.175 209.600 C 143.285 209.600,142.306 208.520,141.000 207.200 C 139.694 205.880,138.535 204.800,138.425 204.800 C 138.315 204.800,139.294 205.880,140.600 207.200 M199.415 219.985 C 192.827 226.576,187.518 232.021,187.618 232.085 C 187.718 232.148,193.197 226.755,199.793 220.100 C 206.389 213.445,211.697 208.000,211.590 208.000 C 211.483 208.000,206.004 213.393,199.415 219.985 M146.222 212.825 C 147.090 213.829,147.881 214.588,147.980 214.512 C 148.080 214.435,147.370 213.614,146.403 212.686 L 144.644 211.000 146.222 212.825 M119.599 243.500 L 91.400 271.800 119.700 243.601 C 135.265 228.092,148.000 215.357,148.000 215.301 C 148.000 215.021,145.813 217.192,119.599 243.500 M214.930 260.239 C 214.713 260.804,230.459 277.200,231.219 277.200 C 231.343 277.200,227.781 273.555,223.304 269.100 C 217.532 263.356,215.217 260.796,215.345 260.300 C 215.570 259.424,215.260 259.378,214.930 260.239 M196.000 263.081 C 196.330 263.202,197.140 263.772,197.800 264.350 L 199.000 265.400 197.825 264.100 C 197.179 263.385,196.369 262.814,196.025 262.832 C 195.487 262.859,195.483 262.893,196.000 263.081 M248.900 263.076 C 249.285 263.176,249.915 263.176,250.300 263.076 C 250.685 262.975,250.370 262.893,249.600 262.893 C 248.830 262.893,248.515 262.975,248.900 263.076 M167.199 291.003 C 139.071 319.136,138.497 319.668,137.281 318.755 C 136.647 318.279,136.645 318.294,137.255 318.963 C 137.654 319.400,138.203 319.589,138.655 319.445 C 139.335 319.228,195.659 263.200,195.198 263.200 C 195.088 263.200,182.488 275.712,167.199 291.003 M238.776 270.603 C 235.133 274.231,232.246 277.200,232.361 277.200 C 232.476 277.200,235.559 274.230,239.212 270.600 C 242.865 266.970,245.751 264.001,245.627 264.003 C 245.502 264.005,242.419 266.975,238.776 270.603 M253.233 264.100 C 253.325 264.155,253.940 264.650,254.600 265.200 L 255.800 266.200 254.830 265.100 C 254.297 264.495,253.682 264.000,253.464 264.000 C 253.245 264.000,253.142 264.045,253.233 264.100 M199.200 265.710 C 199.200 265.771,200.595 267.166,202.300 268.810 L 205.400 271.800 202.410 268.700 C 199.633 265.821,199.200 265.417,199.200 265.710 M205.600 272.125 C 205.600 272.194,206.185 272.779,206.900 273.425 L 208.200 274.600 207.025 273.300 C 205.930 272.088,205.600 271.816,205.600 272.125 M211.600 278.200 C 213.460 280.070,215.072 281.600,215.182 281.600 C 215.292 281.600,213.860 280.070,212.000 278.200 C 210.140 276.330,208.528 274.800,208.418 274.800 C 208.308 274.800,209.740 276.330,211.600 278.200 M249.800 280.000 C 247.167 282.640,245.103 284.800,245.213 284.800 C 245.323 284.800,247.567 282.640,250.200 280.000 C 252.833 277.360,254.897 275.200,254.787 275.200 C 254.677 275.200,252.433 277.360,249.800 280.000 M293.774 281.800 C 295.167 283.852,295.452 284.095,294.677 282.571 C 294.334 281.895,293.749 281.090,293.378 280.782 C 293.007 280.474,293.185 280.932,293.774 281.800 M215.600 282.125 C 215.600 282.194,216.185 282.779,216.900 283.425 L 218.200 284.600 217.025 283.300 C 215.930 282.088,215.600 281.816,215.600 282.125 M220.200 286.800 C 221.283 287.900,222.260 288.800,222.370 288.800 C 222.480 288.800,221.683 287.900,220.600 286.800 C 219.517 285.700,218.540 284.800,218.430 284.800 C 218.320 284.800,219.117 285.700,220.200 286.800 M243.431 286.368 C 242.815 287.010,242.408 287.775,242.524 288.068 C 242.690 288.483,242.744 288.473,242.768 288.022 C 242.786 287.704,243.284 286.939,243.875 286.322 C 244.466 285.705,244.860 285.200,244.750 285.200 C 244.640 285.200,244.046 285.726,243.431 286.368 M242.800 288.904 C 242.800 288.961,246.355 292.516,250.700 296.804 L 258.600 304.600 250.804 296.700 C 243.560 289.360,242.800 288.619,242.800 288.904 M224.200 290.800 C 225.059 291.680,225.852 292.400,225.962 292.400 C 226.072 292.400,225.459 291.680,224.600 290.800 C 223.741 289.920,222.948 289.200,222.838 289.200 C 222.728 289.200,223.341 289.920,224.200 290.800 M282.015 302.585 C 275.317 309.286,269.918 314.821,270.018 314.885 C 270.118 314.948,275.687 309.465,282.393 302.700 C 289.099 295.935,294.498 290.400,294.390 290.400 C 294.283 290.400,288.714 295.883,282.015 302.585 M240.200 306.800 C 247.237 313.840,253.085 319.600,253.195 319.600 C 253.305 319.600,247.637 313.840,240.600 306.800 C 233.563 299.760,227.715 294.000,227.605 294.000 C 227.495 294.000,233.163 299.760,240.200 306.800 M270.000 315.981 C 270.000 316.434,286.221 332.400,286.680 332.400 C 286.940 332.400,287.254 332.237,287.377 332.037 C 287.500 331.838,287.286 331.756,286.901 331.855 C 286.403 331.983,283.848 329.672,278.100 323.896 C 273.645 319.419,270.000 315.857,270.000 315.981 M376.213 315.931 C 376.363 316.224,376.631 316.944,376.809 317.531 C 377.067 318.389,377.138 318.437,377.166 317.776 C 377.185 317.324,376.917 316.604,376.570 316.176 C 376.224 315.749,376.063 315.639,376.213 315.931 M303.905 318.283 C 304.402 318.379,305.122 318.375,305.505 318.275 C 305.887 318.175,305.480 318.096,304.600 318.101 C 303.720 318.105,303.407 318.187,303.905 318.283 M298.000 321.400 C 297.028 322.390,296.323 323.200,296.433 323.200 C 296.543 323.200,297.428 322.390,298.400 321.400 C 299.372 320.410,300.077 319.600,299.967 319.600 C 299.857 319.600,298.972 320.410,298.000 321.400 M267.800 334.400 C 275.057 341.660,281.085 347.600,281.195 347.600 C 281.305 347.600,275.457 341.660,268.200 334.400 C 260.943 327.140,254.915 321.200,254.805 321.200 C 254.695 321.200,260.543 327.140,267.800 334.400 M293.188 326.300 L 290.600 329.000 293.300 326.412 C 294.785 324.988,296.000 323.773,296.000 323.712 C 296.000 323.417,295.593 323.792,293.188 326.300 M127.200 329.505 C 127.200 329.746,126.917 330.226,126.571 330.571 C 126.226 330.917,126.129 331.200,126.357 331.200 C 126.864 331.200,127.756 329.623,127.432 329.299 C 127.305 329.171,127.200 329.264,127.200 329.505 M288.975 330.500 L 287.800 331.800 289.100 330.625 C 289.815 329.979,290.400 329.394,290.400 329.325 C 290.400 329.016,290.070 329.288,288.975 330.500 M63.265 331.017 C 62.595 332.488,62.723 332.802,63.447 331.465 C 63.786 330.840,63.988 330.254,63.896 330.163 C 63.805 330.071,63.521 330.456,63.265 331.017 M60.073 341.800 C 60.047 342.970,60.283 344.215,60.642 344.800 C 61.027 345.428,61.146 345.502,60.961 345.000 C 60.798 344.560,60.542 343.210,60.392 342.000 L 60.118 339.800 60.073 341.800 M94.000 342.200 C 93.450 342.514,93.180 342.772,93.400 342.772 C 93.620 342.772,94.250 342.514,94.800 342.200 C 95.350 341.886,95.620 341.628,95.400 341.628 C 95.180 341.628,94.550 341.886,94.000 342.200 M306.484 352.587 C 311.480 357.635,315.620 361.683,315.684 361.583 C 315.748 361.482,311.660 357.352,306.600 352.404 L 297.400 343.409 306.484 352.587 M86.000 345.000 C 85.450 345.314,85.180 345.572,85.400 345.572 C 85.620 345.572,86.250 345.314,86.800 345.000 C 87.350 344.686,87.620 344.428,87.400 344.428 C 87.180 344.428,86.550 344.686,86.000 345.000 M81.600 346.600 C 81.050 346.914,80.780 347.172,81.000 347.172 C 81.220 347.172,81.850 346.914,82.400 346.600 C 82.950 346.286,83.220 346.028,83.000 346.028 C 82.780 346.028,82.150 346.286,81.600 346.600 M296.800 363.400 C 305.048 371.650,311.886 378.400,311.996 378.400 C 312.106 378.400,305.448 371.650,297.200 363.400 C 288.952 355.150,282.114 348.400,282.004 348.400 C 281.894 348.400,288.552 355.150,296.800 363.400 M73.600 349.400 C 73.050 349.714,72.780 349.972,73.000 349.972 C 73.220 349.972,73.850 349.714,74.400 349.400 C 74.950 349.086,75.220 348.828,75.000 348.828 C 74.780 348.828,74.150 349.086,73.600 349.400 M314.421 379.221 C 314.955 379.560,317.942 379.781,317.567 379.455 C 317.475 379.375,316.599 379.208,315.621 379.082 C 314.470 378.935,314.046 378.984,314.421 379.221 " stroke="none" fill="#a4a4a4" fill-rule="evenodd"></path></g></svg>