<svg id="svg" version="1.1" xmlns="http://www.w3.org/2000/svg" xmlns:xlink="http://www.w3.org/1999/xlink" width="400" height="400" viewBox="0, 0, 400,400"><g id="svgg"><path id="path0" d="M0.000 200.000 L 0.000 400.000 200.000 400.000 L 400.000 400.000 400.000 200.000 L 400.000 0.000 200.000 0.000 L 0.000 0.000 0.000 200.000 M106.541 93.463 C 108.204 93.738,112.800 97.558,112.800 98.666 C 112.800 98.984,113.655 99.640,114.700 100.122 L 116.600 101.000 198.314 101.091 C 286.407 101.188,284.672 101.144,287.940 103.353 C 289.117 104.149,290.336 104.800,290.649 104.800 C 291.614 104.800,294.733 107.985,295.223 109.471 C 295.479 110.244,295.937 111.355,296.241 111.939 C 296.546 112.522,296.796 113.242,296.798 113.537 C 296.799 113.832,297.146 114.514,297.570 115.052 C 298.825 116.648,298.838 117.501,298.921 202.200 C 299.003 286.787,298.972 285.200,300.579 285.200 C 302.003 285.200,305.979 289.234,306.593 291.301 C 308.149 296.541,306.575 302.778,303.248 304.552 C 302.672 304.860,301.480 305.505,300.600 305.987 C 299.218 306.744,298.555 306.838,295.734 306.678 C 292.065 306.470,291.742 306.306,288.260 302.894 L 285.920 300.600 202.093 300.500 C 150.462 300.439,117.792 300.254,117.033 300.020 C 110.224 297.917,107.559 296.542,105.784 294.215 C 105.191 293.437,104.452 292.800,104.143 292.800 C 103.833 292.800,103.401 292.305,103.182 291.700 C 102.963 291.095,102.613 290.240,102.405 289.800 C 100.807 286.419,99.939 283.923,99.579 281.671 C 99.127 278.839,99.004 123.079,99.453 120.837 C 99.586 120.170,99.573 118.647,99.424 117.453 C 99.144 115.215,98.970 114.968,94.893 111.050 C 91.175 107.476,92.422 98.116,96.980 95.394 C 100.775 93.128,102.455 92.788,106.541 93.463 M117.894 105.992 C 115.633 106.691,113.232 108.541,112.961 109.795 C 112.565 111.629,111.287 113.200,110.193 113.200 C 109.284 113.200,105.716 115.293,105.114 116.179 C 104.957 116.411,104.784 152.690,104.730 196.800 C 104.675 240.910,104.628 278.173,104.625 279.607 C 104.621 281.611,104.826 282.548,105.510 283.654 C 105.999 284.446,106.400 285.468,106.400 285.924 C 106.400 286.380,106.587 286.869,106.816 287.010 C 107.045 287.151,107.677 287.972,108.221 288.833 C 109.449 290.779,112.539 293.064,114.399 293.403 C 115.169 293.544,116.383 293.998,117.095 294.413 C 118.771 295.389,110.360 295.308,202.695 295.232 L 283.591 295.165 284.053 294.282 C 284.307 293.797,285.119 292.724,285.858 291.899 C 286.596 291.073,287.200 290.190,287.200 289.937 C 287.200 288.959,289.335 286.745,291.177 285.812 C 292.426 285.179,293.188 284.502,293.342 283.890 C 293.472 283.370,293.594 246.095,293.611 201.057 L 293.644 119.168 292.622 116.936 C 292.060 115.708,291.600 114.406,291.600 114.042 C 291.600 112.955,287.027 108.513,285.581 108.196 C 284.877 108.041,283.738 107.593,283.051 107.199 C 281.735 106.446,276.618 105.418,276.021 105.787 C 275.612 106.040,120.980 106.074,119.800 105.822 C 119.360 105.728,118.502 105.804,117.894 105.992 M180.711 141.906 C 181.566 142.349,182.318 143.125,182.573 143.825 C 182.808 144.471,183.540 145.785,184.200 146.745 C 185.330 148.389,186.401 150.154,188.155 153.262 C 188.571 153.998,189.426 155.191,190.055 155.914 C 190.685 156.637,191.200 157.571,191.200 157.990 C 191.200 158.410,191.381 158.865,191.603 159.002 C 192.263 159.410,195.690 164.661,197.289 167.714 C 198.108 169.278,199.253 170.998,199.833 171.536 C 200.414 172.074,201.156 173.164,201.484 173.957 C 201.811 174.751,202.484 175.940,202.980 176.600 C 203.476 177.260,204.201 178.430,204.591 179.200 C 204.981 179.970,205.881 181.320,206.593 182.200 C 207.304 183.080,208.015 184.210,208.173 184.711 C 208.331 185.212,209.167 186.438,210.030 187.435 C 210.894 188.433,211.600 189.566,211.600 189.954 C 211.600 190.342,212.230 191.545,213.000 192.628 C 213.770 193.711,214.400 194.809,214.400 195.068 C 214.400 195.327,214.850 196.073,215.400 196.727 C 215.950 197.381,216.400 198.068,216.400 198.254 C 216.400 198.727,219.211 202.768,220.300 203.861 C 220.795 204.357,221.200 205.028,221.200 205.351 C 221.200 205.674,221.826 206.759,222.591 207.761 C 223.357 208.764,224.241 210.203,224.557 210.960 C 224.874 211.717,225.516 212.541,225.985 212.792 C 226.454 213.043,227.012 213.706,227.225 214.265 C 227.779 215.722,230.410 219.600,230.845 219.600 C 231.210 219.600,231.148 144.958,230.782 143.456 C 230.246 141.262,231.685 141.033,245.563 141.107 C 260.087 141.184,261.991 141.479,261.350 143.558 C 261.173 144.131,260.990 170.160,260.944 201.400 L 260.859 258.200 259.911 259.261 C 258.560 260.774,256.986 260.883,238.800 260.728 C 219.094 260.559,220.501 261.033,215.822 253.000 C 214.540 250.800,213.151 248.550,212.735 248.000 C 212.319 247.450,211.711 246.415,211.384 245.700 C 211.057 244.985,210.634 244.400,210.443 244.400 C 210.253 244.400,209.912 243.905,209.686 243.300 C 209.460 242.695,209.165 241.930,209.030 241.600 C 208.896 241.270,207.800 239.650,206.595 238.000 C 205.389 236.350,204.128 234.370,203.792 233.600 C 203.456 232.830,203.004 231.930,202.788 231.600 C 202.572 231.270,202.093 230.415,201.723 229.700 C 201.354 228.985,200.874 228.400,200.657 228.400 C 199.890 228.400,198.800 227.063,198.800 226.122 C 198.800 224.967,197.344 222.000,196.778 222.000 C 196.554 222.000,196.033 221.210,195.619 220.244 C 195.205 219.278,194.692 218.381,194.480 218.250 C 194.268 218.118,193.405 216.865,192.562 215.464 C 191.720 214.063,190.540 212.636,189.939 212.291 C 189.239 211.889,188.700 211.116,188.434 210.132 C 188.031 208.640,186.109 205.280,184.432 203.137 C 183.974 202.552,183.600 201.812,183.600 201.492 C 183.600 200.946,182.546 199.392,180.282 196.600 C 179.747 195.940,179.171 194.950,179.001 194.400 C 178.832 193.850,177.997 192.521,177.147 191.448 C 176.296 190.374,175.600 189.310,175.600 189.083 C 175.600 188.552,173.266 184.843,172.275 183.800 C 171.857 183.360,170.922 182.044,170.197 180.875 C 169.472 179.706,168.761 178.939,168.617 179.172 C 168.145 179.937,168.371 255.198,168.848 256.091 C 169.386 257.095,168.373 258.616,166.392 259.776 C 163.312 261.579,139.622 260.813,137.848 258.853 C 137.020 257.938,136.818 143.142,137.643 142.148 C 138.849 140.695,177.953 140.475,180.711 141.906 " stroke="none" fill="#344bfb" fill-rule="evenodd"></path><path id="path1" d="M99.800 95.968 C 96.325 97.598,94.393 100.580,94.411 104.284 C 94.430 108.122,95.541 109.763,100.512 113.294 C 101.191 113.776,101.224 117.648,101.214 196.600 C 101.207 251.149,101.343 280.287,101.613 282.000 C 102.680 288.782,107.865 294.952,114.600 297.456 C 116.520 298.170,120.011 298.208,201.946 298.400 L 287.293 298.600 287.946 299.528 C 290.672 303.399,292.967 304.806,296.533 304.791 C 306.618 304.748,309.093 291.184,299.747 287.177 C 298.835 286.786,297.933 286.226,297.744 285.933 C 297.555 285.640,297.310 247.690,297.200 201.600 L 297.000 117.800 296.116 115.485 C 293.611 108.921,288.719 104.837,280.954 102.826 C 279.814 102.531,253.750 102.400,196.272 102.400 L 113.237 102.400 112.519 101.373 C 109.943 97.692,109.214 96.914,107.594 96.116 C 105.310 94.992,102.015 94.929,99.800 95.968 M281.865 104.559 C 289.237 106.522,294.183 111.871,295.563 119.373 C 296.231 123.004,296.164 284.256,295.494 285.566 C 295.222 286.098,294.395 286.736,293.655 286.984 C 290.578 288.015,288.265 290.839,287.431 294.583 C 287.077 296.171,286.790 296.622,285.994 296.843 C 284.019 297.393,120.860 297.205,117.800 296.649 C 111.202 295.451,105.654 290.714,103.824 284.717 L 102.800 281.359 102.800 197.687 L 102.800 114.015 103.900 113.745 C 108.515 112.609,112.400 109.090,112.400 106.045 C 112.400 103.856,106.460 104.000,196.729 104.005 C 265.911 104.009,280.145 104.101,281.865 104.559 M140.300 142.676 C 139.270 142.945,139.203 257.762,140.233 258.157 C 141.175 258.519,164.919 258.439,165.496 258.072 C 165.886 257.825,165.996 248.874,166.006 216.379 C 166.021 167.232,165.766 169.888,169.848 176.307 C 171.070 178.228,172.778 180.880,173.644 182.200 C 174.510 183.520,177.451 188.200,180.180 192.600 C 182.910 197.000,186.476 202.670,188.106 205.200 C 192.131 211.450,195.004 215.983,200.846 225.301 C 203.571 229.647,206.700 234.625,207.800 236.364 C 208.900 238.103,211.081 241.567,212.646 244.063 C 214.211 246.558,216.509 250.220,217.752 252.200 C 218.995 254.180,220.529 256.390,221.161 257.112 L 222.309 258.424 240.322 258.312 C 250.228 258.250,258.484 258.050,258.667 257.867 C 259.102 257.431,259.102 143.369,258.667 142.933 C 258.164 142.429,234.778 142.276,233.482 142.769 L 232.400 143.180 232.400 183.314 C 232.400 225.510,232.379 226.032,230.751 224.127 C 230.410 223.727,228.053 220.070,225.513 216.000 C 222.973 211.930,219.227 205.990,217.190 202.800 C 215.152 199.610,211.053 193.130,208.081 188.400 C 197.916 172.223,194.622 166.999,193.411 165.135 C 192.745 164.109,191.714 162.489,191.119 161.535 C 190.525 160.581,188.995 158.150,187.719 156.134 C 186.444 154.118,184.075 150.371,182.456 147.808 C 180.553 144.795,179.165 143.015,178.530 142.773 C 177.560 142.404,141.689 142.313,140.300 142.676 " stroke="none" fill="#f7f9fb" fill-rule="evenodd"></path><path id="path2" d="M100.966 94.195 C 91.588 97.156,90.145 108.189,98.451 113.432 L 99.985 114.401 100.093 198.700 C 100.197 280.814,100.220 283.057,100.972 285.200 C 103.086 291.221,107.900 296.166,114.121 298.703 C 115.682 299.340,121.795 299.402,201.267 299.594 C 248.273 299.707,286.801 299.890,286.883 300.000 C 286.966 300.110,287.451 300.834,287.961 301.608 C 290.086 304.831,294.789 306.856,298.174 306.003 C 308.707 303.350,310.223 290.891,300.586 286.176 L 298.400 285.106 298.400 201.939 L 298.400 118.772 297.374 115.686 C 295.396 109.735,291.064 105.166,285.210 102.852 L 282.059 101.607 199.330 101.577 C 110.647 101.544,113.824 101.609,112.846 99.800 C 110.292 95.075,105.435 92.784,100.966 94.195 M106.662 94.996 C 108.932 95.670,111.195 97.638,112.386 99.973 C 112.815 100.814,113.454 101.612,113.806 101.747 C 114.158 101.882,151.896 101.995,197.668 101.998 C 288.594 102.004,282.526 101.854,287.200 104.210 C 291.258 106.255,295.144 110.847,296.877 115.644 L 297.800 118.200 297.905 201.907 L 298.009 285.614 300.105 286.565 C 311.691 291.825,305.704 308.594,293.505 305.048 C 291.466 304.455,288.000 301.769,288.000 300.782 C 288.000 299.134,291.578 299.200,202.414 299.200 L 118.084 299.200 115.342 298.360 C 108.704 296.326,103.885 291.642,101.602 285.005 C 100.809 282.702,100.800 281.698,100.800 198.723 L 100.800 114.771 99.774 113.886 C 96.270 110.860,94.425 108.757,94.032 107.339 C 91.815 99.356,98.697 92.631,106.662 94.996 M113.420 105.295 C 113.332 105.573,113.058 106.461,112.810 107.268 C 111.798 110.562,107.782 114.000,104.945 114.000 C 104.451 114.000,103.943 114.169,103.815 114.375 C 103.376 115.085,103.559 281.034,104.001 283.006 C 105.466 289.542,111.630 295.163,118.278 296.025 C 121.746 296.475,284.711 296.454,285.843 296.004 C 286.444 295.764,286.748 295.199,286.905 294.034 C 287.358 290.655,289.191 288.548,293.971 285.914 L 295.215 285.229 295.107 201.714 C 295.002 119.987,294.983 118.161,294.222 116.400 C 292.085 111.459,289.155 108.287,284.842 106.249 L 282.200 105.000 197.889 104.895 C 130.310 104.812,113.547 104.891,113.420 105.295 M283.148 106.122 C 288.626 108.339,291.469 111.180,293.634 116.600 L 294.593 119.000 294.675 199.200 C 294.721 243.310,294.632 280.711,294.479 282.313 L 294.200 285.226 291.800 286.541 C 289.307 287.907,287.018 290.625,286.566 292.754 C 286.444 293.329,286.181 294.205,285.981 294.700 L 285.617 295.600 201.709 295.596 C 109.443 295.591,116.004 295.769,111.928 293.154 C 108.880 291.198,106.498 288.263,104.822 284.400 C 104.213 282.995,103.600 117.737,104.195 115.300 C 104.351 114.663,104.710 114.400,105.424 114.400 C 107.996 114.400,111.903 111.171,113.023 108.120 C 113.411 107.064,114.008 105.972,114.349 105.694 C 115.474 104.776,280.860 105.196,283.148 106.122 M138.880 142.080 C 137.900 143.060,138.218 258.675,139.203 259.201 C 140.311 259.795,166.189 259.572,166.796 258.964 C 167.104 258.656,167.225 247.724,167.208 221.668 C 167.186 186.386,167.370 176.000,168.015 176.000 C 168.177 176.000,170.199 179.015,172.508 182.700 C 179.401 193.701,185.246 202.935,185.991 204.000 C 186.375 204.550,187.404 206.170,188.276 207.600 C 189.149 209.030,193.433 215.870,197.797 222.800 C 206.878 237.222,207.339 237.956,212.172 245.687 C 218.326 255.532,220.731 259.088,221.409 259.348 C 223.022 259.967,258.592 259.621,259.511 258.977 L 260.400 258.355 260.400 200.457 C 260.400 155.959,260.289 142.449,259.920 142.080 C 258.972 141.132,232.124 141.422,231.608 142.385 C 231.323 142.918,231.192 154.607,231.200 178.685 C 231.207 198.218,231.210 215.955,231.206 218.100 C 231.199 222.767,231.090 222.813,228.864 219.098 C 227.909 217.504,225.357 213.410,223.194 210.000 C 210.766 190.410,206.835 184.175,203.396 178.600 C 202.175 176.620,198.819 171.310,195.937 166.800 C 193.056 162.290,189.761 157.070,188.615 155.200 C 184.818 149.003,181.701 144.217,180.604 142.900 L 179.521 141.600 159.441 141.600 C 144.356 141.600,139.241 141.719,138.880 142.080 M181.322 144.700 C 182.302 146.185,185.760 151.630,189.007 156.800 C 195.339 166.885,199.136 172.905,203.075 179.104 C 204.437 181.247,206.438 184.440,207.522 186.200 C 208.606 187.960,212.802 194.625,216.847 201.012 C 220.891 207.398,225.010 213.925,226.000 215.516 C 231.705 224.685,231.596 224.596,231.610 220.100 C 231.615 218.395,231.631 200.620,231.645 180.600 C 231.659 160.580,231.798 143.750,231.953 143.200 L 232.236 142.200 245.800 142.200 L 259.364 142.200 259.691 143.775 C 260.281 146.614,259.883 257.877,259.280 258.480 C 258.723 259.038,226.351 259.506,222.936 259.005 C 221.000 258.722,220.793 258.443,211.380 243.400 C 203.771 231.241,200.508 226.057,191.741 212.200 C 187.565 205.600,182.966 198.310,181.521 196.000 C 180.075 193.690,177.402 189.460,175.581 186.600 C 173.760 183.740,171.291 179.825,170.096 177.900 C 167.866 174.312,167.464 173.934,167.043 175.033 C 166.909 175.381,166.800 194.270,166.800 217.009 C 166.800 249.645,166.695 258.421,166.300 258.676 C 165.531 259.174,141.158 259.316,139.880 258.831 L 138.800 258.420 138.800 200.477 C 138.800 168.608,138.920 142.413,139.067 142.267 C 139.213 142.120,148.380 142.000,159.436 142.000 L 179.539 142.000 181.322 144.700 " stroke="none" fill="#6c7ccc" fill-rule="evenodd"></path><path id="path3" d="M100.400 93.479 C 96.610 94.841,93.492 98.290,92.998 101.668 L 92.803 103.000 93.201 101.746 C 96.162 92.420,108.235 91.095,112.751 99.600 C 113.343 100.715,113.811 101.056,115.047 101.273 C 116.855 101.591,281.845 101.712,281.528 101.395 C 281.411 101.278,244.254 101.141,198.958 101.091 L 116.600 101.000 114.700 100.122 C 113.655 99.640,112.800 98.984,112.800 98.666 C 112.800 97.558,108.204 93.738,106.541 93.463 C 104.725 93.163,101.254 93.172,100.400 93.479 M285.282 102.831 C 289.045 104.381,292.477 107.071,294.571 110.110 C 295.435 111.365,296.226 112.307,296.328 112.205 C 296.430 112.103,296.332 111.790,296.109 111.510 C 295.886 111.229,295.492 110.339,295.232 109.532 C 294.739 108.001,291.639 104.800,290.649 104.800 C 290.336 104.800,289.117 104.147,287.940 103.348 C 286.494 102.366,285.217 101.841,284.000 101.728 C 282.247 101.565,282.280 101.594,285.282 102.831 M114.349 105.694 C 114.008 105.972,113.410 107.067,113.021 108.127 C 112.618 109.225,111.609 110.730,110.676 111.627 C 109.061 113.178,109.053 113.200,110.092 113.200 C 111.297 113.200,112.547 111.710,112.966 109.775 C 113.292 108.265,116.807 105.965,118.862 105.917 C 119.598 105.899,155.181 105.912,197.936 105.944 C 240.691 105.976,275.829 105.905,276.021 105.787 C 276.618 105.418,281.735 106.446,283.051 107.199 C 283.738 107.593,284.877 108.041,285.581 108.196 C 287.027 108.513,291.600 112.955,291.600 114.042 C 291.600 114.406,292.060 115.708,292.622 116.936 L 293.644 119.168 293.611 201.057 C 293.594 246.095,293.472 283.370,293.342 283.890 C 293.188 284.502,292.426 285.179,291.177 285.812 C 289.335 286.745,287.200 288.959,287.200 289.937 C 287.200 290.190,286.596 291.073,285.858 291.899 C 285.119 292.724,284.307 293.797,284.053 294.282 L 283.591 295.165 202.728 295.183 C 158.253 295.194,121.775 295.292,121.666 295.401 C 121.556 295.510,158.401 295.600,203.542 295.600 L 285.617 295.600 285.981 294.700 C 286.181 294.205,286.444 293.329,286.566 292.754 C 287.018 290.625,289.307 287.907,291.800 286.541 L 294.200 285.226 294.479 282.313 C 294.632 280.711,294.721 243.310,294.675 199.200 L 294.593 119.000 293.634 116.600 C 291.469 111.180,288.626 108.339,283.148 106.122 C 280.860 105.196,115.474 104.776,114.349 105.694 M92.842 106.154 C 92.760 107.635,93.717 109.919,94.893 111.050 C 98.970 114.968,99.144 115.215,99.424 117.453 C 99.573 118.647,99.586 120.170,99.453 120.837 C 99.004 123.079,99.127 278.839,99.579 281.671 C 99.939 283.923,100.807 286.419,102.405 289.800 C 102.613 290.240,102.963 291.095,103.182 291.700 C 103.401 292.305,103.833 292.800,104.143 292.800 C 104.452 292.800,105.191 293.437,105.784 294.215 C 107.559 296.542,110.224 297.917,117.033 300.020 C 117.792 300.254,150.462 300.439,202.093 300.500 L 285.920 300.600 288.260 302.894 C 291.742 306.306,292.065 306.470,295.734 306.678 C 298.555 306.838,299.218 306.744,300.600 305.987 C 301.480 305.505,302.683 304.854,303.273 304.540 C 304.557 303.856,306.802 300.600,306.795 299.431 C 306.792 298.838,306.498 299.114,305.765 300.400 C 301.703 307.534,292.288 308.173,287.961 301.608 C 287.451 300.834,286.966 300.110,286.883 300.000 C 286.801 299.890,248.273 299.707,201.267 299.594 C 121.795 299.402,115.682 299.340,114.121 298.703 C 107.900 296.166,103.086 291.221,100.972 285.200 C 100.220 283.057,100.197 280.814,100.093 198.700 L 99.985 114.401 98.451 113.432 C 96.269 112.055,94.102 109.371,93.446 107.233 C 93.137 106.225,92.865 105.739,92.842 106.154 M107.600 113.800 C 107.050 114.114,106.124 114.378,105.543 114.386 C 103.930 114.407,103.997 110.655,104.056 198.333 C 104.087 243.800,104.249 280.010,104.416 278.800 C 104.582 277.590,104.743 240.600,104.774 196.600 C 104.804 152.600,104.957 116.402,105.114 116.160 C 105.271 115.918,106.165 115.240,107.100 114.655 C 108.035 114.069,108.800 113.502,108.800 113.395 C 108.800 113.128,108.740 113.148,107.600 113.800 M297.217 114.800 C 297.212 114.910,297.477 115.884,297.804 116.964 C 298.324 118.676,298.400 129.573,298.400 202.017 L 298.400 285.106 300.586 286.176 C 303.351 287.529,305.874 290.346,306.482 292.759 C 306.734 293.760,307.012 294.363,307.101 294.098 C 307.840 291.880,302.944 285.200,300.579 285.200 C 298.972 285.200,299.003 286.787,298.921 202.200 C 298.840 120.204,298.794 116.671,297.785 115.339 C 297.477 114.932,297.222 114.690,297.217 114.800 M139.669 141.317 C 138.790 141.491,137.878 141.865,137.643 142.148 C 136.818 143.142,137.020 257.938,137.848 258.853 C 139.622 260.813,163.312 261.579,166.392 259.776 C 168.373 258.616,169.386 257.095,168.848 256.091 C 168.371 255.198,168.145 179.937,168.617 179.172 C 168.761 178.939,169.472 179.706,170.197 180.875 C 170.922 182.044,171.857 183.360,172.275 183.800 C 173.266 184.843,175.600 188.552,175.600 189.083 C 175.600 189.310,176.296 190.374,177.147 191.448 C 177.997 192.521,178.832 193.850,179.001 194.400 C 179.171 194.950,179.747 195.940,180.282 196.600 C 182.546 199.392,183.600 200.946,183.600 201.492 C 183.600 201.812,183.974 202.552,184.432 203.137 C 186.109 205.280,188.031 208.640,188.434 210.132 C 188.700 211.116,189.239 211.889,189.939 212.291 C 190.540 212.636,191.712 214.050,192.544 215.433 C 193.376 216.817,194.305 218.155,194.608 218.407 C 194.911 218.658,195.363 219.481,195.612 220.235 C 195.860 220.989,196.405 221.789,196.822 222.012 C 197.244 222.238,195.699 219.445,193.334 215.709 C 190.999 212.019,188.553 208.100,187.898 207.000 C 187.243 205.900,186.389 204.550,185.999 204.000 C 185.260 202.955,179.659 194.112,172.508 182.700 C 170.199 179.015,168.177 176.000,168.015 176.000 C 167.370 176.000,167.186 186.386,167.208 221.668 C 167.225 247.724,167.104 258.656,166.796 258.964 C 166.189 259.572,140.311 259.795,139.203 259.201 C 138.218 258.675,137.900 143.060,138.880 142.080 C 139.241 141.719,144.356 141.600,159.441 141.600 L 179.521 141.600 180.604 142.900 C 181.701 144.217,184.818 149.003,188.615 155.200 C 189.761 157.070,193.056 162.290,195.937 166.800 C 198.819 171.310,202.175 176.620,203.396 178.600 C 206.835 184.175,210.766 190.410,223.194 210.000 C 225.357 213.410,227.909 217.504,228.864 219.098 C 229.819 220.692,230.735 221.997,230.900 221.998 C 231.642 222.003,231.091 219.930,230.046 218.785 C 229.411 218.090,228.396 216.542,227.790 215.345 C 227.184 214.148,226.339 212.981,225.911 212.752 C 225.482 212.523,224.874 211.717,224.557 210.960 C 224.241 210.203,223.357 208.764,222.591 207.761 C 221.826 206.759,221.200 205.674,221.200 205.351 C 221.200 205.028,220.795 204.357,220.300 203.861 C 219.211 202.768,216.400 198.727,216.400 198.254 C 216.400 198.068,215.950 197.381,215.400 196.727 C 214.850 196.073,214.400 195.327,214.400 195.068 C 214.400 194.809,213.770 193.711,213.000 192.628 C 212.230 191.545,211.600 190.342,211.600 189.954 C 211.600 189.566,210.894 188.433,210.030 187.435 C 209.167 186.438,208.331 185.212,208.173 184.711 C 208.015 184.210,207.304 183.080,206.593 182.200 C 205.881 181.320,204.981 179.970,204.591 179.200 C 204.201 178.430,203.476 177.260,202.980 176.600 C 202.484 175.940,201.811 174.751,201.484 173.957 C 201.156 173.164,200.414 172.074,199.833 171.536 C 199.253 170.998,198.108 169.278,197.289 167.714 C 195.690 164.661,192.263 159.410,191.603 159.002 C 191.381 158.865,191.200 158.410,191.200 157.990 C 191.200 157.571,190.685 156.637,190.055 155.914 C 189.426 155.191,188.571 153.998,188.155 153.262 C 186.401 150.154,185.330 148.389,184.200 146.745 C 183.540 145.785,182.808 144.471,182.573 143.825 C 181.617 141.198,181.392 141.170,160.272 141.081 C 149.820 141.036,140.549 141.142,139.669 141.317 M232.885 141.272 C 232.508 141.421,238.215 141.556,245.567 141.572 C 252.918 141.587,258.841 141.508,258.728 141.395 C 258.413 141.080,233.664 140.962,232.885 141.272 M231.053 142.341 C 230.542 142.906,230.474 143.311,230.766 144.041 L 231.149 145.000 231.175 144.074 C 231.189 143.564,231.386 142.799,231.614 142.374 C 232.136 141.398,231.918 141.385,231.053 142.341 M259.900 142.049 C 260.295 142.453,260.400 154.678,260.400 200.457 L 260.400 258.355 259.511 258.977 C 258.592 259.621,223.022 259.967,221.409 259.348 C 220.630 259.049,217.125 253.724,207.400 238.063 C 202.829 230.702,198.282 223.600,198.140 223.600 C 198.048 223.600,198.158 223.948,198.386 224.374 C 198.614 224.799,198.800 225.581,198.800 226.112 C 198.800 227.061,199.887 228.400,200.657 228.400 C 200.874 228.400,201.354 228.985,201.723 229.700 C 202.093 230.415,202.572 231.270,202.788 231.600 C 203.004 231.930,203.456 232.830,203.792 233.600 C 204.128 234.370,205.389 236.350,206.595 238.000 C 207.800 239.650,208.896 241.270,209.030 241.600 C 209.165 241.930,209.460 242.695,209.686 243.300 C 209.912 243.905,210.253 244.400,210.443 244.400 C 210.634 244.400,211.057 244.985,211.384 245.700 C 211.711 246.415,212.319 247.450,212.735 248.000 C 213.151 248.550,214.540 250.800,215.822 253.000 C 220.501 261.033,219.094 260.559,238.800 260.728 C 256.986 260.883,258.560 260.774,259.911 259.261 L 260.859 258.200 260.944 201.400 C 260.990 170.160,261.171 144.140,261.346 143.579 C 261.618 142.702,261.503 142.485,260.532 142.048 C 259.614 141.635,259.494 141.635,259.900 142.049 M104.440 282.000 C 104.272 287.929,112.915 295.751,119.400 295.539 L 121.000 295.486 119.600 295.243 C 118.830 295.109,117.654 294.700,116.986 294.334 C 116.319 293.968,115.148 293.551,114.385 293.408 C 112.531 293.061,109.442 290.768,108.221 288.833 C 107.677 287.972,107.045 287.151,106.816 287.010 C 106.587 286.869,106.400 286.353,106.400 285.865 C 106.400 285.377,106.111 284.566,105.758 284.061 C 105.405 283.557,104.970 282.662,104.792 282.072 L 104.469 281.000 104.440 282.000 " stroke="none" fill="#3f4fc8" fill-rule="evenodd"></path><path id="path4" d="M101.000 94.774 C 95.616 96.085,92.478 101.743,94.032 107.339 C 94.425 108.757,96.270 110.860,99.774 113.886 L 100.800 114.771 100.800 198.723 C 100.800 281.698,100.809 282.702,101.602 285.005 C 103.885 291.642,108.704 296.326,115.342 298.360 L 118.084 299.200 202.414 299.200 C 291.578 299.200,288.000 299.134,288.000 300.782 C 288.000 301.769,291.466 304.455,293.505 305.048 C 305.704 308.594,311.691 291.825,300.105 286.565 L 298.009 285.614 297.905 201.907 L 297.800 118.200 296.877 115.644 C 295.144 110.847,291.258 106.255,287.200 104.210 C 282.526 101.854,288.594 102.004,197.668 101.998 C 151.896 101.995,114.158 101.882,113.806 101.747 C 113.454 101.612,112.815 100.814,112.386 99.973 C 110.240 95.766,105.609 93.652,101.000 94.774 M107.594 96.116 C 109.214 96.914,109.943 97.692,112.519 101.373 L 113.237 102.400 196.272 102.400 C 253.750 102.400,279.814 102.531,280.954 102.826 C 288.719 104.837,293.611 108.921,296.116 115.485 L 297.000 117.800 297.200 201.600 C 297.310 247.690,297.555 285.640,297.744 285.933 C 297.933 286.226,298.835 286.786,299.747 287.177 C 309.093 291.184,306.618 304.748,296.533 304.791 C 292.967 304.806,290.672 303.399,287.946 299.528 L 287.293 298.600 201.946 298.400 C 120.011 298.208,116.520 298.170,114.600 297.456 C 107.865 294.952,102.680 288.782,101.613 282.000 C 101.343 280.287,101.207 251.149,101.214 196.600 C 101.224 117.648,101.191 113.776,100.512 113.294 C 95.541 109.763,94.430 108.122,94.411 104.284 C 94.379 97.556,101.526 93.128,107.594 96.116 M113.029 104.629 C 112.683 104.974,112.400 105.611,112.400 106.045 C 112.400 109.090,108.515 112.609,103.900 113.745 L 102.800 114.015 102.800 197.687 L 102.800 281.359 103.824 284.717 C 105.654 290.714,111.202 295.451,117.800 296.649 C 120.860 297.205,284.019 297.393,285.994 296.843 C 286.790 296.622,287.077 296.171,287.431 294.583 C 288.265 290.839,290.578 288.015,293.655 286.984 C 294.395 286.736,295.222 286.098,295.494 285.566 C 296.164 284.256,296.231 123.004,295.563 119.373 C 294.183 111.871,289.237 106.522,281.865 104.559 C 278.522 103.669,113.920 103.737,113.029 104.629 M284.842 106.249 C 289.155 108.287,292.085 111.459,294.222 116.400 C 294.983 118.161,295.002 119.987,295.107 201.714 L 295.215 285.229 293.971 285.914 C 289.191 288.548,287.358 290.655,286.905 294.034 C 286.748 295.199,286.444 295.764,285.843 296.004 C 284.711 296.454,121.746 296.475,118.278 296.025 C 111.630 295.163,105.466 289.542,104.001 283.006 C 103.559 281.034,103.376 115.085,103.815 114.375 C 103.943 114.169,104.451 114.000,104.945 114.000 C 107.782 114.000,111.798 110.562,112.810 107.268 C 113.058 106.461,113.332 105.573,113.420 105.295 C 113.547 104.891,130.310 104.812,197.889 104.895 L 282.200 105.000 284.842 106.249 M139.067 142.267 C 138.920 142.413,138.800 168.608,138.800 200.477 L 138.800 258.420 139.880 258.831 C 141.158 259.316,165.531 259.174,166.300 258.676 C 166.695 258.421,166.800 249.645,166.800 217.009 C 166.800 194.270,166.909 175.381,167.043 175.033 C 167.464 173.934,167.866 174.312,170.096 177.900 C 171.291 179.825,173.760 183.740,175.581 186.600 C 177.402 189.460,180.075 193.690,181.521 196.000 C 182.966 198.310,187.565 205.600,191.741 212.200 C 200.508 226.057,203.771 231.241,211.380 243.400 C 220.793 258.443,221.000 258.722,222.936 259.005 C 226.351 259.506,258.723 259.038,259.280 258.480 C 259.883 257.877,260.281 146.614,259.691 143.775 L 259.364 142.200 245.800 142.200 L 232.236 142.200 231.953 143.200 C 231.798 143.750,231.659 160.580,231.645 180.600 C 231.631 200.620,231.615 218.395,231.610 220.100 C 231.596 224.596,231.705 224.685,226.000 215.516 C 225.010 213.925,220.891 207.398,216.847 201.012 C 212.802 194.625,208.606 187.960,207.522 186.200 C 206.438 184.440,204.437 181.247,203.075 179.104 C 199.136 172.905,195.339 166.885,189.007 156.800 C 185.760 151.630,182.302 146.185,181.322 144.700 L 179.539 142.000 159.436 142.000 C 148.380 142.000,139.213 142.120,139.067 142.267 M178.530 142.773 C 179.165 143.015,180.553 144.795,182.456 147.808 C 184.075 150.371,186.444 154.118,187.719 156.134 C 188.995 158.150,190.525 160.581,191.119 161.535 C 191.714 162.489,192.745 164.109,193.411 165.135 C 194.622 166.999,197.916 172.223,208.081 188.400 C 211.053 193.130,215.152 199.610,217.190 202.800 C 219.227 205.990,222.973 211.930,225.513 216.000 C 228.053 220.070,230.410 223.727,230.751 224.127 C 232.379 226.032,232.400 225.510,232.400 183.314 L 232.400 143.180 233.482 142.769 C 234.778 142.276,258.164 142.429,258.667 142.933 C 259.102 143.369,259.102 257.431,258.667 257.867 C 258.484 258.050,250.228 258.250,240.322 258.312 L 222.309 258.424 221.161 257.112 C 220.529 256.390,218.995 254.180,217.752 252.200 C 216.509 250.220,214.211 246.558,212.646 244.063 C 211.081 241.567,208.900 238.103,207.800 236.364 C 206.700 234.625,203.571 229.647,200.846 225.301 C 195.004 215.983,192.131 211.450,188.106 205.200 C 186.476 202.670,182.910 197.000,180.180 192.600 C 177.451 188.200,174.510 183.520,173.644 182.200 C 172.778 180.880,171.070 178.228,169.848 176.307 C 165.766 169.888,166.021 167.232,166.006 216.379 C 165.996 248.874,165.886 257.825,165.496 258.072 C 164.919 258.439,141.175 258.519,140.233 258.157 C 139.203 257.762,139.270 142.945,140.300 142.676 C 141.689 142.313,177.560 142.404,178.530 142.773 " stroke="none" fill="#9ca4e7" fill-rule="evenodd"></path></g></svg>