<svg id="Layer_1" data-name="Layer 1" xmlns="http://www.w3.org/2000/svg" viewBox="0 0 407.19 152.68"><path d="M171.33,52.64h-.87A23.28,23.28,0,0,0,147.2,75.9v.87A23.28,23.28,0,0,0,170.46,100h.87a23.28,23.28,0,0,0,23.26-23.26V75.9A23.28,23.28,0,0,0,171.33,52.64Zm13.24,26.28c0,7.29-5,12-13.1,12-8.32,0-14.26-6.09-14.26-14.53s5.94-14.54,14.26-14.54c6.61,0,11.55,3.82,12.82,9.44l-4.85,1.23a7.86,7.86,0,0,0-8-6.13c-5.34,0-9.08,4-9.08,10s3.74,10,9.08,10c4.94,0,8-2.63,8.05-6.29h-7.61V75.86h12.66Z"/><path d="M96.3,52.64V100h47.4V52.64Zm34.06,14.3H114.78v6.93H129v4.34H114.78V85.7h15.54v4.58H109.65V62.4h20.71Z"/><path d="M70.94,75.14H62.22v-8.2h8.64c3.5,0,5.14,1.35,5.14,4.06S74.21,75.14,70.94,75.14Z"/><path d="M74.21,52.64H45.41V100H92.8V71.23A18.61,18.61,0,0,0,74.21,52.64Zm6.41,37.64H74.76L68,79.72H62.22V90.28H57.08V62.4h14.3c6.05,0,9.76,3.34,9.76,8.64,0,4.66-2.79,7.77-7.49,8.48v.08Z"/><path d="M223.71,75.14H215v-8.2h8.64c3.51,0,5.14,1.35,5.14,4.06S227,75.14,223.71,75.14Z"/><path d="M227,52.64h-28.8V100h47.39V71.23A18.61,18.61,0,0,0,227,52.64Zm6.4,37.64h-5.85l-6.73-10.56H215V90.28h-5.14V62.4h14.3c6.06,0,9.76,3.34,9.76,8.64,0,4.66-2.79,7.77-7.49,8.48v.08Z"/><path d="M331.07,76.34c0,6.73-3.14,9.35-9,9.35h-5.85V66.94h5.89C328,66.94,331.07,69.88,331.07,76.34Z"/><path d="M323.67,52.64H300V100h23.7a23.7,23.7,0,0,0,0-47.39Zm-1.52,37.63H311.08V62.4h11.15c8.57,0,14,4.74,14,13.94C336.25,85.89,330.76,90.27,322.15,90.27Z"/><path d="M249.08,52.64V100h47.39V52.64ZM281.82,67h-6.48V85.7h6.48v4.58H263.73V85.7h6.48V67h-6.48V62.4h18.09Z"/><path d="M347.41,96.65h-1.5v-.81h3.91v.81h-1.49V100h-.92Z"/><path d="M350.68,95.84h1.07l1.49,2.92h0l1.51-2.92h1.05V100h-.91V97.28h0L353.44,100h-.38l-1.45-2.75h0V100h-.92Z"/></svg>