<svg width="1070" height="1070" viewBox="0 0 1070 1070" fill="none" xmlns="http://www.w3.org/2000/svg">
<path d="M535 1070C830.472 1070 1070 830.472 1070 535C1070 239.528 830.472 0 535 0C239.528 0 0 239.528 0 535C0 830.472 239.528 1070 535 1070Z" fill="#004B45"/>
<path d="M576.12 738.16H529.35V331.99H622.89V641.54C689.55 632.46 746.96 603.23 797.36 552.93C858.84 491.45 888.75 419.16 888.75 331.99H982.29C982.29 443.66 942.31 540.27 863.47 619.11C784.29 698.12 687.63 738.16 576.12 738.16Z" fill="white"/>
<path d="M181.25 738.02H87.71C87.71 626.34 127.69 529.74 206.53 450.9C285.7 371.89 382.37 331.85 493.88 331.85V425.39C406.83 425.39 334.46 455.38 272.64 517.08C211.15 578.56 181.25 650.85 181.25 738.03V738.02Z" fill="white"/>
<path d="M316.02 738.02H222.48C222.48 663.49 249.14 598.95 301.71 546.19C354.72 493.35 419.34 466.62 493.87 466.62V560.16C444.3 560.16 403.07 577.23 367.85 612.33C333.01 647.29 316.01 688.44 316.01 738.01L316.02 738.02Z" fill="white"/>
</svg>
