<svg id="svg" version="1.1" xmlns="http://www.w3.org/2000/svg" xmlns:xlink="http://www.w3.org/1999/xlink" width="400" height="400" viewBox="0, 0, 400,400"><g id="svgg"><path id="path0" d="M188.000 79.790 C 139.454 84.759,108.961 121.671,119.591 162.600 C 125.722 186.206,143.870 200.947,183.000 214.102 C 204.018 221.169,206.514 222.097,212.526 225.084 C 225.335 231.447,230.339 239.778,228.025 250.888 C 226.301 259.164,217.825 266.453,208.200 267.936 C 202.641 268.793,201.257 268.850,196.598 268.417 C 181.859 267.045,172.274 258.308,170.000 244.171 C 169.334 240.034,172.166 240.369,138.914 240.492 C 110.755 240.597,109.919 240.622,109.368 241.376 C 108.325 242.803,108.750 249.350,110.448 258.000 C 113.917 275.677,126.213 293.360,142.425 303.986 C 182.180 330.045,249.748 322.988,276.349 290.000 C 281.152 284.044,281.499 283.508,284.595 277.278 C 296.051 254.225,293.376 223.326,278.361 205.276 C 271.216 196.686,257.105 187.358,243.400 182.165 C 239.019 180.505,215.794 172.753,207.600 170.216 C 188.605 164.333,181.423 160.152,178.193 153.096 C 172.201 140.009,183.392 127.821,200.771 128.509 C 213.534 129.014,222.044 135.906,224.221 147.501 C 225.156 152.482,224.380 152.219,239.046 152.534 C 245.841 152.679,257.843 152.799,265.718 152.799 L 280.036 152.800 281.073 151.764 C 284.498 148.338,278.112 124.359,270.683 112.755 C 255.476 89.001,223.309 76.176,188.000 79.790 " stroke="none" fill="#f9f9fc" fill-rule="evenodd"></path><path id="path1" d="M188.400 0.789 C 185.210 0.965,181.520 1.380,180.200 1.713 C 178.880 2.046,175.578 2.432,172.863 2.572 C 169.721 2.734,167.103 3.100,165.663 3.579 C 164.418 3.993,162.067 4.451,160.438 4.596 C 158.809 4.742,156.649 5.185,155.638 5.582 C 154.627 5.979,152.810 6.436,151.600 6.599 C 150.390 6.762,148.738 7.158,147.930 7.479 C 147.121 7.800,145.231 8.393,143.730 8.796 C 140.397 9.691,137.792 10.546,134.492 11.827 C 133.113 12.362,131.673 12.802,131.292 12.804 C 130.911 12.806,129.700 13.250,128.600 13.791 C 127.500 14.332,126.369 14.781,126.087 14.787 C 125.804 14.794,124.685 15.250,123.600 15.800 C 122.515 16.350,121.377 16.800,121.072 16.800 C 120.437 16.800,102.532 25.775,101.608 26.557 C 101.274 26.840,99.769 27.775,98.265 28.636 C 96.761 29.496,94.601 30.776,93.465 31.479 C 92.329 32.182,90.860 33.063,90.200 33.435 C 89.540 33.808,88.528 34.492,87.950 34.956 C 87.373 35.420,86.394 36.160,85.776 36.600 C 85.157 37.040,84.164 37.805,83.568 38.300 C 82.972 38.795,82.330 39.200,82.142 39.200 C 81.954 39.201,80.450 40.308,78.800 41.662 C 77.150 43.016,75.080 44.648,74.200 45.289 C 72.739 46.354,70.630 48.196,64.457 53.800 C 60.975 56.962,55.616 62.386,53.000 65.397 C 51.680 66.916,49.960 68.798,49.178 69.580 C 48.397 70.361,47.227 71.720,46.578 72.600 C 45.930 73.480,44.500 75.286,43.400 76.612 C 42.300 77.939,41.087 79.469,40.705 80.012 C 40.322 80.556,39.562 81.630,39.015 82.400 C 38.467 83.170,37.340 84.859,36.510 86.153 C 35.679 87.448,34.626 88.978,34.169 89.553 C 33.713 90.129,32.642 91.770,31.791 93.200 C 30.939 94.630,29.918 96.172,29.521 96.626 C 29.125 97.080,28.800 97.650,28.800 97.892 C 28.800 98.135,28.649 98.393,28.464 98.467 C 28.279 98.540,27.181 100.400,26.025 102.600 C 22.270 109.744,18.808 116.593,18.804 116.887 C 18.802 117.045,18.097 118.613,17.238 120.371 C 16.379 122.129,15.285 124.742,14.807 126.179 C 14.329 127.616,13.790 128.883,13.609 128.994 C 13.428 129.106,13.070 130.143,12.813 131.299 C 12.555 132.454,12.016 134.030,11.615 134.800 C 11.214 135.570,10.753 137.009,10.591 137.998 C 10.429 138.987,9.966 140.412,9.563 141.165 C 9.159 141.918,8.717 143.359,8.581 144.367 C 8.444 145.375,8.057 146.810,7.721 147.556 C 7.384 148.302,6.925 150.102,6.700 151.556 C 6.475 153.010,6.015 154.830,5.678 155.600 C 5.340 156.370,4.899 158.530,4.697 160.400 C 4.495 162.270,3.961 165.052,3.511 166.582 C 2.930 168.555,2.640 170.937,2.512 174.782 C 2.386 178.576,2.140 180.620,1.691 181.600 C 0.134 185.002,0.194 215.096,1.766 219.612 C 2.108 220.596,2.399 222.750,2.412 224.400 C 2.446 228.754,3.002 232.920,3.749 234.418 C 4.107 235.136,4.400 236.481,4.400 237.407 C 4.400 239.578,5.036 242.912,5.758 244.530 C 6.070 245.228,6.438 246.880,6.577 248.200 C 6.715 249.520,7.166 251.320,7.580 252.200 C 7.993 253.080,8.454 254.610,8.604 255.600 C 8.753 256.590,9.147 257.940,9.479 258.600 C 9.810 259.260,10.332 260.840,10.639 262.111 C 10.945 263.382,11.449 264.822,11.758 265.311 C 12.067 265.800,12.523 267.178,12.772 268.373 C 13.020 269.568,13.375 270.738,13.562 270.973 C 13.946 271.457,16.800 278.535,16.800 279.004 C 16.800 279.171,18.707 283.109,21.037 287.754 C 24.783 295.220,26.534 298.389,29.798 303.600 C 30.281 304.370,31.468 306.346,32.438 307.991 C 34.160 310.915,36.348 314.043,38.007 315.954 C 38.462 316.478,39.120 317.459,39.469 318.134 C 39.818 318.809,40.305 319.576,40.552 319.839 C 40.798 320.101,41.450 320.896,42.000 321.605 C 42.550 322.313,43.286 323.187,43.636 323.546 C 43.986 323.906,45.054 325.280,46.009 326.600 C 46.964 327.920,48.388 329.639,49.173 330.420 C 49.958 331.202,51.619 333.002,52.864 334.420 C 55.733 337.690,61.538 343.600,64.433 346.200 C 65.658 347.300,68.058 349.460,69.765 351.000 C 71.473 352.540,73.169 353.967,73.535 354.171 C 73.901 354.375,75.640 355.743,77.400 357.211 C 81.105 360.301,97.896 371.483,102.600 373.992 C 104.360 374.930,106.707 376.191,107.815 376.793 C 108.923 377.394,110.183 378.076,110.615 378.308 C 111.047 378.539,112.390 379.177,113.600 379.725 C 114.810 380.273,117.963 381.729,120.607 382.961 C 123.252 384.192,125.684 385.200,126.013 385.200 C 126.343 385.200,127.274 385.555,128.083 385.988 C 128.892 386.422,130.419 386.988,131.477 387.247 C 132.535 387.505,133.936 387.986,134.591 388.316 C 135.246 388.645,136.686 389.149,137.791 389.436 C 138.896 389.723,140.970 390.334,142.400 390.794 C 148.706 392.821,149.903 393.160,151.600 393.402 C 152.590 393.542,154.392 393.990,155.604 394.395 C 156.817 394.801,159.157 395.255,160.804 395.405 C 162.452 395.556,164.970 396.032,166.400 396.465 C 168.140 396.992,170.721 397.323,174.200 397.467 C 177.411 397.600,180.318 397.953,181.800 398.392 C 186.794 399.869,213.729 399.784,219.822 398.272 C 221.130 397.948,224.422 397.568,227.137 397.428 C 230.279 397.266,232.897 396.900,234.337 396.421 C 235.582 396.007,237.933 395.549,239.562 395.404 C 241.191 395.258,243.351 394.815,244.362 394.418 C 245.373 394.021,247.190 393.564,248.400 393.401 C 249.610 393.238,251.262 392.842,252.070 392.521 C 252.879 392.200,254.769 391.607,256.270 391.204 C 259.603 390.309,262.208 389.454,265.508 388.173 C 266.887 387.638,268.327 387.198,268.708 387.196 C 269.089 387.194,270.300 386.750,271.400 386.209 C 272.500 385.668,273.631 385.219,273.913 385.213 C 274.196 385.206,275.315 384.750,276.400 384.200 C 277.485 383.650,278.623 383.200,278.928 383.200 C 279.563 383.200,297.468 374.225,298.392 373.443 C 298.726 373.160,300.231 372.225,301.735 371.364 C 303.239 370.504,305.399 369.224,306.535 368.521 C 307.671 367.818,309.140 366.937,309.800 366.565 C 310.460 366.192,311.472 365.508,312.050 365.044 C 312.627 364.580,313.606 363.840,314.224 363.400 C 314.843 362.960,315.836 362.195,316.432 361.700 C 317.028 361.205,317.670 360.800,317.858 360.800 C 318.046 360.799,319.550 359.692,321.200 358.338 C 322.850 356.984,324.920 355.352,325.800 354.711 C 327.261 353.646,329.370 351.804,335.543 346.200 C 339.025 343.038,344.384 337.614,347.000 334.603 C 348.320 333.084,350.040 331.202,350.822 330.420 C 351.603 329.639,352.773 328.280,353.422 327.400 C 354.070 326.520,355.500 324.714,356.600 323.388 C 357.700 322.061,358.913 320.531,359.295 319.988 C 359.678 319.444,360.438 318.370,360.985 317.600 C 361.533 316.830,362.660 315.141,363.490 313.847 C 364.321 312.552,365.374 311.022,365.831 310.447 C 366.287 309.871,367.358 308.230,368.209 306.800 C 369.061 305.370,370.082 303.828,370.479 303.374 C 370.875 302.920,371.200 302.350,371.200 302.108 C 371.200 301.865,371.351 301.607,371.536 301.533 C 371.721 301.460,372.819 299.600,373.975 297.400 C 377.730 290.256,381.192 283.407,381.196 283.113 C 381.198 282.955,381.903 281.387,382.762 279.629 C 383.621 277.871,384.715 275.258,385.193 273.821 C 385.671 272.384,386.210 271.117,386.391 271.006 C 386.572 270.894,386.930 269.857,387.187 268.701 C 387.445 267.546,387.984 265.970,388.385 265.200 C 388.786 264.430,389.247 262.991,389.409 262.002 C 389.571 261.013,390.034 259.588,390.437 258.835 C 390.841 258.082,391.283 256.641,391.419 255.633 C 391.556 254.625,391.943 253.190,392.279 252.444 C 392.616 251.698,393.075 249.898,393.300 248.444 C 393.525 246.990,393.985 245.170,394.322 244.400 C 394.660 243.630,395.101 241.470,395.303 239.600 C 395.505 237.730,396.039 234.948,396.489 233.418 C 397.070 231.445,397.360 229.063,397.488 225.218 C 397.614 221.424,397.860 219.380,398.309 218.400 C 399.866 214.998,399.806 184.904,398.234 180.388 C 397.892 179.404,397.601 177.250,397.588 175.600 C 397.554 171.246,396.998 167.080,396.251 165.582 C 395.893 164.864,395.600 163.519,395.600 162.593 C 395.600 160.422,394.964 157.088,394.242 155.470 C 393.930 154.772,393.562 153.120,393.423 151.800 C 393.285 150.480,392.834 148.680,392.420 147.800 C 392.007 146.920,391.546 145.390,391.396 144.400 C 391.247 143.410,390.853 142.060,390.521 141.400 C 390.190 140.740,389.668 139.160,389.361 137.889 C 389.055 136.618,388.551 135.178,388.242 134.689 C 387.933 134.200,387.477 132.822,387.228 131.627 C 386.980 130.432,386.625 129.262,386.438 129.027 C 386.054 128.543,383.200 121.465,383.200 120.996 C 383.200 120.829,381.293 116.891,378.963 112.246 C 375.217 104.780,373.466 101.611,370.202 96.400 C 369.719 95.630,368.532 93.654,367.562 92.009 C 365.840 89.085,363.652 85.957,361.993 84.046 C 361.538 83.522,360.880 82.541,360.531 81.866 C 360.182 81.191,359.695 80.424,359.448 80.161 C 359.202 79.899,358.550 79.104,358.000 78.395 C 357.450 77.687,356.714 76.813,356.364 76.454 C 356.014 76.094,354.946 74.720,353.991 73.400 C 353.036 72.080,351.612 70.361,350.827 69.580 C 350.042 68.798,348.381 66.998,347.136 65.580 C 344.267 62.310,338.462 56.400,335.567 53.800 C 334.342 52.700,331.942 50.540,330.235 49.000 C 328.527 47.460,326.831 46.033,326.465 45.829 C 326.099 45.625,324.360 44.257,322.600 42.789 C 318.895 39.699,302.104 28.517,297.400 26.008 C 295.640 25.070,293.293 23.809,292.185 23.207 C 291.077 22.606,289.817 21.924,289.385 21.692 C 288.953 21.461,287.610 20.823,286.400 20.275 C 285.190 19.727,282.037 18.271,279.393 17.039 C 276.748 15.808,274.316 14.800,273.987 14.800 C 273.657 14.800,272.726 14.445,271.917 14.012 C 271.108 13.578,269.581 13.012,268.523 12.753 C 267.465 12.495,266.064 12.014,265.409 11.684 C 264.754 11.355,263.314 10.851,262.209 10.564 C 261.104 10.277,259.030 9.666,257.600 9.206 C 251.294 7.179,250.097 6.840,248.400 6.598 C 247.410 6.458,245.608 6.010,244.396 5.605 C 243.183 5.199,240.843 4.745,239.196 4.595 C 237.548 4.444,235.030 3.968,233.600 3.535 C 231.860 3.008,229.279 2.677,225.800 2.533 C 222.535 2.398,219.698 2.049,218.176 1.596 C 215.272 0.730,197.999 0.262,188.400 0.789 M213.400 80.008 C 238.001 82.852,259.355 95.059,270.683 112.755 C 278.112 124.359,284.498 148.338,281.073 151.764 L 280.036 152.800 265.718 152.799 C 257.843 152.799,245.841 152.679,239.046 152.534 C 224.380 152.219,225.156 152.482,224.221 147.501 C 222.044 135.906,213.534 129.014,200.771 128.509 C 183.392 127.821,172.201 140.009,178.193 153.096 C 181.423 160.152,188.605 164.333,207.600 170.216 C 215.794 172.753,239.019 180.505,243.400 182.165 C 260.885 188.791,275.259 199.496,282.812 211.518 C 295.222 231.273,294.134 266.380,280.544 284.678 C 266.057 304.184,246.370 314.891,218.200 318.584 C 164.274 325.655,118.697 300.029,110.448 258.000 C 108.750 249.350,108.325 242.803,109.368 241.376 C 109.919 240.622,110.755 240.597,138.914 240.492 C 172.166 240.369,169.334 240.034,170.000 244.171 C 172.274 258.308,181.859 267.045,196.598 268.417 C 201.257 268.850,202.641 268.793,208.200 267.936 C 217.825 266.453,226.301 259.164,228.025 250.888 C 230.339 239.778,225.335 231.447,212.526 225.084 C 206.514 222.097,204.018 221.169,183.000 214.102 C 143.870 200.947,125.722 186.206,119.591 162.600 C 106.802 113.358,152.657 72.986,213.400 80.008 " stroke="none" fill="#041bfc" fill-rule="evenodd"></path></g></svg>