<svg id="svg" version="1.1" width="400" height="400" viewBox="0 0 400 400" xmlns="http://www.w3.org/2000/svg" xmlns:xlink="http://www.w3.org/1999/xlink"><g id="svgg"><path id="path0" d="M291.400 101.466 C 290.080 101.802,288.100 102.407,287.000 102.812 C 285.900 103.216,281.580 104.560,277.400 105.798 C 273.220 107.036,268.360 108.479,266.600 109.004 C 258.403 111.450,253.555 112.741,247.683 114.040 C 245.859 114.444,244.215 114.867,244.030 114.981 C 243.392 115.376,225.190 119.790,222.441 120.217 C 221.473 120.367,220.123 120.720,219.441 121.001 C 218.758 121.282,217.210 121.633,216.000 121.781 C 214.790 121.929,212.630 122.392,211.200 122.808 C 209.770 123.225,207.222 123.749,205.539 123.973 C 203.855 124.198,201.155 124.728,199.539 125.151 C 197.922 125.575,193.900 126.403,190.600 126.993 C 187.300 127.582,182.322 128.499,179.538 129.032 C 176.753 129.564,173.963 129.998,173.338 129.996 C 172.712 129.994,170.400 130.342,168.200 130.769 C 162.765 131.825,160.275 132.201,148.200 133.791 C 130.829 136.079,123.428 136.931,114.800 137.635 C 95.899 139.178,89.331 141.073,85.600 146.063 C 78.395 155.698,77.826 163.633,83.602 173.970 C 87.660 181.232,97.387 184.985,108.600 183.615 C 114.087 182.945,118.912 182.454,124.200 182.029 C 129.630 181.593,148.257 179.397,151.600 178.800 C 152.810 178.583,155.690 178.219,158.000 177.991 C 160.310 177.762,164.000 177.237,166.200 176.824 C 168.400 176.411,171.730 175.885,173.600 175.655 C 175.470 175.425,179.430 174.793,182.400 174.250 C 185.370 173.707,189.600 172.967,191.800 172.605 C 196.858 171.772,205.186 170.157,209.600 169.151 C 211.470 168.726,214.530 168.115,216.400 167.794 C 218.270 167.474,220.520 167.048,221.400 166.848 C 222.280 166.648,224.710 166.109,226.800 165.649 C 228.890 165.190,232.580 164.367,235.000 163.820 C 237.420 163.274,240.660 162.547,242.200 162.205 C 243.740 161.862,245.452 161.402,246.004 161.182 C 246.556 160.962,248.986 160.349,251.404 159.819 C 257.771 158.424,272.669 154.455,277.142 152.963 C 278.100 152.643,281.610 151.668,284.942 150.796 C 288.274 149.925,292.620 148.656,294.600 147.977 C 296.580 147.297,299.280 146.409,300.600 146.002 C 310.537 142.939,315.066 139.607,318.123 133.110 C 326.397 115.526,310.437 96.627,291.400 101.466 M237.264 170.007 C 235.870 170.201,233.890 170.631,232.864 170.963 C 231.839 171.295,229.432 171.834,227.517 172.160 C 225.601 172.487,223.711 172.922,223.317 173.127 C 222.922 173.332,221.546 173.628,220.258 173.784 C 218.970 173.940,216.990 174.347,215.858 174.688 C 214.726 175.029,212.720 175.438,211.400 175.597 C 209.128 175.870,197.300 178.144,191.543 179.414 C 190.081 179.736,188.281 180.001,187.543 180.003 C 186.804 180.004,184.747 180.354,182.972 180.780 C 181.196 181.205,178.316 181.670,176.572 181.811 C 174.827 181.953,171.960 182.413,170.200 182.833 C 168.440 183.253,165.380 183.774,163.400 183.992 C 161.420 184.210,158.000 184.653,155.800 184.978 C 153.600 185.303,149.563 185.855,146.828 186.205 C 140.842 186.972,140.747 187.019,142.622 188.293 C 143.721 189.039,144.948 189.393,147.353 189.658 C 149.139 189.855,152.760 190.382,155.400 190.829 C 158.040 191.277,161.730 191.812,163.600 192.019 C 167.802 192.484,169.200 192.773,169.200 193.176 C 169.200 193.837,164.747 195.146,160.371 195.771 C 157.857 196.130,154.270 196.689,152.400 197.012 C 150.530 197.335,146.840 197.795,144.200 198.033 C 129.690 199.341,122.866 204.388,119.623 216.209 C 118.193 221.421,118.927 227.001,121.684 231.887 C 122.938 234.110,128.178 240.000,128.901 240.000 C 129.133 240.000,130.248 240.438,131.380 240.973 C 135.990 243.154,140.816 243.956,144.794 243.201 C 145.951 242.982,148.991 242.618,151.549 242.393 C 154.107 242.168,157.550 241.726,159.200 241.412 C 160.850 241.097,164.810 240.553,168.000 240.201 C 171.190 239.850,175.240 239.298,177.000 238.974 C 182.189 238.020,192.369 236.370,195.556 235.967 C 197.182 235.761,199.522 235.339,200.756 235.030 C 201.990 234.720,203.990 234.349,205.200 234.204 C 206.410 234.060,210.280 233.409,213.800 232.759 C 217.320 232.108,222.180 231.213,224.600 230.769 C 227.020 230.325,230.350 229.682,232.000 229.340 C 233.650 228.998,235.990 228.542,237.200 228.325 C 240.314 227.768,244.867 226.851,248.600 226.029 C 250.360 225.641,253.420 225.008,255.400 224.623 C 257.380 224.237,260.440 223.577,262.200 223.155 C 263.960 222.733,266.660 222.140,268.200 221.836 C 274.047 220.684,278.238 219.619,285.039 217.554 C 291.456 215.607,297.296 207.783,298.507 199.511 C 300.400 186.584,289.121 174.000,275.641 174.000 C 274.885 174.000,273.171 173.832,271.833 173.626 C 270.495 173.420,268.050 173.044,266.400 172.791 C 264.750 172.538,261.870 172.184,260.000 172.006 C 258.130 171.827,254.170 171.313,251.200 170.863 C 244.228 169.805,240.410 169.571,237.264 170.007 M221.000 238.300 C 220.120 238.358,217.510 238.751,215.200 239.173 C 212.890 239.596,208.390 240.398,205.200 240.957 C 202.010 241.515,197.780 242.267,195.800 242.627 C 193.820 242.988,190.940 243.452,189.400 243.658 C 187.860 243.865,184.620 244.375,182.200 244.792 C 179.780 245.210,176.810 245.667,175.600 245.808 C 174.390 245.949,172.770 246.222,172.000 246.416 C 171.230 246.610,167.810 247.138,164.400 247.590 C 157.688 248.480,156.800 248.669,156.800 249.208 C 156.800 249.785,160.345 252.049,161.932 252.486 C 163.963 253.046,172.524 256.396,172.940 256.794 C 173.503 257.334,172.824 258.746,171.031 260.766 C 161.655 271.322,162.456 285.375,172.931 294.118 C 179.417 299.530,188.621 300.434,202.600 297.029 C 203.920 296.708,206.980 296.246,209.400 296.003 C 211.820 295.760,214.790 295.307,216.000 294.997 C 217.210 294.687,219.460 294.262,221.000 294.053 C 238.804 291.633,249.645 289.207,252.314 287.045 C 252.911 286.562,253.883 285.862,254.474 285.490 C 255.884 284.604,259.092 280.082,260.008 277.690 C 260.406 276.651,261.016 275.260,261.363 274.600 C 262.229 272.955,262.227 264.492,261.360 262.200 C 261.027 261.320,260.463 259.792,260.107 258.804 C 258.004 252.970,250.746 247.910,238.600 243.808 C 237.720 243.511,235.560 242.696,233.800 241.998 C 230.577 240.718,225.453 238.939,223.600 238.455 C 223.050 238.312,221.880 238.242,221.000 238.300 " stroke="none" fill="#e84347" fill-rule="evenodd"></path><path id="path1" d="M0.000 200.000 L 0.000 400.000 200.000 400.000 L 400.000 400.000 400.000 200.000 L 400.000 0.000 200.000 0.000 L 0.000 0.000 0.000 200.000 M305.073 101.994 C 325.345 109.054,325.447 137.334,305.227 144.476 C 304.002 144.908,301.920 145.595,300.600 146.002 C 299.280 146.409,296.580 147.297,294.600 147.977 C 292.620 148.656,288.274 149.925,284.942 150.796 C 281.610 151.668,278.100 152.643,277.142 152.963 C 272.669 154.455,257.771 158.424,251.404 159.819 C 248.986 160.349,246.556 160.962,246.004 161.182 C 245.452 161.402,243.740 161.862,242.200 162.205 C 240.660 162.547,237.420 163.274,235.000 163.820 C 232.580 164.367,228.890 165.190,226.800 165.649 C 224.710 166.109,222.280 166.648,221.400 166.848 C 220.520 167.048,218.270 167.474,216.400 167.794 C 214.530 168.115,211.470 168.726,209.600 169.151 C 205.186 170.157,196.858 171.772,191.800 172.605 C 189.600 172.967,185.370 173.707,182.400 174.250 C 179.430 174.793,175.470 175.425,173.600 175.655 C 171.730 175.885,168.400 176.411,166.200 176.824 C 164.000 177.237,160.310 177.762,158.000 177.991 C 155.690 178.219,152.810 178.583,151.600 178.800 C 148.257 179.397,129.630 181.593,124.200 182.029 C 118.912 182.454,114.087 182.945,108.600 183.615 C 98.965 184.792,91.627 182.710,86.280 177.282 C 80.165 171.073,78.012 160.592,81.323 153.147 C 86.354 141.836,91.277 139.555,114.800 137.635 C 123.428 136.931,130.829 136.079,148.200 133.791 C 160.275 132.201,162.765 131.825,168.200 130.769 C 170.400 130.342,172.712 129.994,173.338 129.996 C 173.963 129.998,176.753 129.564,179.538 129.032 C 182.322 128.499,187.300 127.582,190.600 126.993 C 193.900 126.403,197.922 125.575,199.539 125.151 C 201.155 124.728,203.855 124.198,205.539 123.973 C 207.222 123.749,209.770 123.225,211.200 122.808 C 212.630 122.392,214.790 121.929,216.000 121.781 C 217.210 121.633,218.758 121.282,219.441 121.001 C 220.123 120.720,221.473 120.367,222.441 120.217 C 225.190 119.790,243.392 115.376,244.030 114.981 C 244.215 114.867,245.859 114.444,247.683 114.040 C 253.555 112.741,258.403 111.450,266.600 109.004 C 268.360 108.479,273.220 107.036,277.400 105.798 C 281.580 104.560,285.900 103.216,287.000 102.812 C 292.992 100.608,300.162 100.283,305.073 101.994 M251.200 170.863 C 254.170 171.313,258.130 171.827,260.000 172.006 C 261.870 172.184,264.750 172.538,266.400 172.791 C 268.050 173.044,270.495 173.420,271.833 173.626 C 273.171 173.832,274.885 174.000,275.641 174.000 C 289.121 174.000,300.400 186.584,298.507 199.511 C 297.296 207.783,291.456 215.607,285.039 217.554 C 278.238 219.619,274.047 220.684,268.200 221.836 C 266.660 222.140,263.960 222.733,262.200 223.155 C 260.440 223.577,257.380 224.237,255.400 224.623 C 253.420 225.008,250.360 225.641,248.600 226.029 C 244.867 226.851,240.314 227.768,237.200 228.325 C 235.990 228.542,233.650 228.998,232.000 229.340 C 230.350 229.682,227.020 230.325,224.600 230.769 C 222.180 231.213,217.320 232.108,213.800 232.759 C 210.280 233.409,206.410 234.060,205.200 234.204 C 203.990 234.349,201.990 234.720,200.756 235.030 C 199.522 235.339,197.182 235.761,195.556 235.967 C 192.369 236.370,182.189 238.020,177.000 238.974 C 175.240 239.298,171.190 239.850,168.000 240.201 C 164.810 240.553,160.850 241.097,159.200 241.412 C 157.550 241.726,154.107 242.168,151.549 242.393 C 148.991 242.618,145.951 242.982,144.794 243.201 C 140.816 243.956,135.990 243.154,131.380 240.973 C 130.248 240.438,129.133 240.000,128.901 240.000 C 128.178 240.000,122.938 234.110,121.684 231.887 C 118.927 227.001,118.193 221.421,119.623 216.209 C 122.866 204.388,129.690 199.341,144.200 198.033 C 146.840 197.795,150.530 197.335,152.400 197.012 C 154.270 196.689,157.857 196.130,160.371 195.771 C 164.747 195.146,169.200 193.837,169.200 193.176 C 169.200 192.773,167.802 192.484,163.600 192.019 C 161.730 191.812,158.040 191.277,155.400 190.829 C 152.760 190.382,149.139 189.855,147.353 189.658 C 144.948 189.393,143.721 189.039,142.622 188.293 C 140.747 187.019,140.842 186.972,146.828 186.205 C 149.563 185.855,153.600 185.303,155.800 184.978 C 158.000 184.653,161.420 184.210,163.400 183.992 C 165.380 183.774,168.440 183.253,170.200 182.833 C 171.960 182.413,174.827 181.953,176.572 181.811 C 178.316 181.670,181.196 181.205,182.972 180.780 C 184.747 180.354,186.804 180.004,187.543 180.003 C 188.281 180.001,190.081 179.736,191.543 179.414 C 197.300 178.144,209.128 175.870,211.400 175.597 C 212.720 175.438,214.726 175.029,215.858 174.688 C 216.990 174.347,218.970 173.940,220.258 173.784 C 221.546 173.628,222.922 173.332,223.317 173.127 C 223.711 172.922,225.601 172.487,227.517 172.160 C 229.432 171.834,231.839 171.295,232.864 170.963 C 237.485 169.467,241.839 169.443,251.200 170.863 M227.600 239.722 C 229.250 240.275,232.040 241.299,233.800 241.998 C 235.560 242.696,237.720 243.511,238.600 243.808 C 250.746 247.910,258.004 252.970,260.107 258.804 C 260.463 259.792,261.027 261.320,261.360 262.200 C 262.227 264.492,262.229 272.955,261.363 274.600 C 261.016 275.260,260.406 276.651,260.008 277.690 C 259.092 280.082,255.884 284.604,254.474 285.490 C 253.883 285.862,252.911 286.562,252.314 287.045 C 249.645 289.207,238.804 291.633,221.000 294.053 C 219.460 294.262,217.210 294.687,216.000 294.997 C 214.790 295.307,211.820 295.760,209.400 296.003 C 206.980 296.246,203.920 296.708,202.600 297.029 C 188.621 300.434,179.417 299.530,172.931 294.118 C 162.456 285.375,161.655 271.322,171.031 260.766 C 172.824 258.746,173.503 257.334,172.940 256.794 C 172.524 256.396,163.963 253.046,161.932 252.486 C 160.345 252.049,156.800 249.785,156.800 249.208 C 156.800 248.669,157.688 248.480,164.400 247.590 C 167.810 247.138,171.230 246.610,172.000 246.416 C 172.770 246.222,174.390 245.949,175.600 245.808 C 176.810 245.667,179.780 245.210,182.200 244.792 C 184.620 244.375,187.860 243.865,189.400 243.658 C 190.940 243.452,193.820 242.988,195.800 242.627 C 197.780 242.267,202.010 241.515,205.200 240.957 C 208.390 240.398,212.890 239.596,215.200 239.173 C 222.108 237.910,222.208 237.914,227.600 239.722 " stroke="none" fill="#f1f0f0" fill-rule="evenodd"></path></g></svg>