<svg id="svg" version="1.1" xmlns="http://www.w3.org/2000/svg" xmlns:xlink="http://www.w3.org/1999/xlink" width="400" height="400" viewBox="0, 0, 400,400"><g id="svgg"><path id="path0" d="M196.800 51.879 C 185.044 52.547,182.400 52.945,182.400 54.046 C 182.400 54.276,181.967 55.574,181.438 56.932 C 180.909 58.289,179.283 62.820,177.824 67.000 C 174.790 75.694,174.929 75.508,170.400 76.988 C 165.877 78.465,161.137 80.422,156.784 82.608 C 152.056 84.983,153.603 85.420,135.589 76.609 C 131.561 74.638,131.161 74.607,129.054 76.103 C 123.701 79.902,115.081 88.271,109.834 94.764 C 106.277 99.166,105.875 97.223,113.759 113.731 C 116.918 120.347,116.904 120.104,114.433 125.280 C 111.629 131.154,110.921 132.870,109.351 137.592 C 107.689 142.594,107.475 142.861,104.284 143.929 C 96.424 146.559,90.902 148.470,90.200 148.802 C 89.760 149.011,88.500 149.505,87.400 149.901 C 85.408 150.619,85.398 150.631,84.931 152.985 C 83.726 159.063,83.987 181.686,85.292 184.259 C 85.817 185.293,86.510 185.591,95.400 188.604 C 108.138 192.920,107.478 192.476,109.360 198.000 C 111.096 203.095,112.591 206.726,114.761 211.113 C 116.857 215.350,116.855 215.381,113.951 221.467 C 106.220 237.671,106.805 236.071,107.858 238.120 C 109.782 241.866,125.702 257.934,129.474 259.936 C 131.489 261.006,131.564 260.979,147.000 253.562 C 152.524 250.907,152.918 250.841,154.286 252.345 C 155.654 253.849,164.522 267.864,167.735 273.600 C 175.288 287.085,182.817 303.218,187.837 316.681 C 191.305 325.981,195.001 337.428,196.805 344.462 C 198.278 350.204,201.417 350.476,203.013 345.000 C 203.398 343.680,204.133 341.160,204.647 339.400 C 208.462 326.335,210.429 320.856,217.782 302.800 C 225.924 282.807,244.997 250.447,248.065 251.421 C 249.265 251.802,254.826 254.302,255.600 254.809 C 255.930 255.025,256.609 255.379,257.109 255.595 C 257.609 255.811,260.164 256.980,262.786 258.194 C 267.666 260.452,268.995 260.751,270.526 259.934 C 274.127 258.013,289.161 242.994,292.187 238.295 C 293.129 236.831,292.866 235.679,290.441 230.663 C 282.430 214.097,282.852 215.969,285.763 209.906 C 288.460 204.289,289.061 202.855,290.075 199.617 C 292.293 192.532,291.452 193.229,302.400 189.412 C 305.370 188.377,309.060 187.080,310.600 186.530 C 312.140 185.981,313.628 185.461,313.906 185.376 C 315.853 184.778,316.719 160.224,315.056 152.740 L 314.587 150.624 311.593 149.498 C 308.952 148.505,305.643 147.338,296.000 143.998 C 292.460 142.771,292.259 142.533,290.654 137.665 C 288.943 132.473,288.512 131.420,285.763 125.694 C 283.037 120.015,282.994 120.531,286.846 112.537 C 293.021 99.723,293.143 99.402,292.380 97.937 C 290.212 93.774,278.804 82.057,271.312 76.300 C 269.112 74.609,268.194 74.820,259.400 79.035 C 248.102 84.451,248.010 84.489,246.998 84.235 C 246.499 84.110,243.866 82.946,241.146 81.649 C 236.643 79.502,229.824 76.846,227.129 76.189 C 225.424 75.773,224.940 74.922,222.577 68.174 C 221.350 64.668,219.894 60.540,219.341 59.000 C 218.789 57.460,218.137 55.603,217.893 54.874 C 217.649 54.144,217.111 53.366,216.696 53.144 C 215.572 52.543,201.199 51.629,196.800 51.879 M210.800 126.951 C 252.793 137.983,252.120 198.482,209.888 208.891 C 187.610 214.382,164.480 200.277,159.014 177.867 C 153.514 155.316,167.640 131.916,189.800 126.868 C 191.780 126.417,193.760 125.958,194.200 125.847 C 196.489 125.272,207.093 125.978,210.800 126.951 " stroke="none" fill="#fbfaf9" fill-rule="evenodd"></path><path id="path1" d="M0.500 1.865 C 0.101 2.026,0.000 42.234,0.000 201.033 L 0.000 400.000 200.000 400.000 L 400.000 400.000 400.000 201.043 C 400.000 19.989,399.943 2.064,399.367 1.843 C 398.610 1.552,1.220 1.574,0.500 1.865 M207.993 50.387 C 208.264 50.827,209.526 51.027,213.036 51.187 C 217.970 51.412,217.918 51.390,218.799 53.600 C 219.019 54.150,219.360 54.870,219.557 55.200 C 220.799 57.274,222.366 61.276,222.552 62.852 C 222.673 63.871,223.228 65.563,223.786 66.612 C 224.344 67.661,224.800 69.092,224.800 69.793 C 224.800 71.380,225.083 71.680,226.025 71.092 C 226.941 70.519,227.485 70.975,226.829 71.765 C 225.738 73.080,227.930 75.135,230.786 75.473 C 231.955 75.611,233.173 76.023,233.541 76.404 C 233.903 76.779,234.901 77.195,235.757 77.327 C 236.614 77.460,237.694 77.913,238.157 78.335 C 238.621 78.756,239.653 79.217,240.451 79.360 C 241.249 79.502,242.363 80.045,242.926 80.567 C 244.892 82.389,250.871 82.311,252.563 80.441 C 252.942 80.022,253.868 79.564,254.621 79.422 C 255.374 79.281,256.166 78.837,256.381 78.436 C 256.607 78.013,257.420 77.603,258.318 77.460 C 259.169 77.323,260.193 76.849,260.595 76.406 C 260.996 75.963,261.684 75.600,262.124 75.600 C 262.564 75.600,263.490 75.169,264.181 74.642 C 265.021 74.001,266.160 73.618,267.619 73.486 C 268.818 73.378,270.140 73.224,270.556 73.145 C 271.063 73.048,271.531 73.389,271.978 74.180 C 272.370 74.876,273.131 75.487,273.834 75.669 C 275.221 76.028,276.800 77.378,276.800 78.205 C 276.800 78.521,277.295 79.046,277.900 79.372 C 278.505 79.698,279.664 80.647,280.476 81.482 C 281.287 82.317,283.327 84.343,285.009 85.985 C 286.691 87.627,288.327 89.472,288.644 90.085 C 288.961 90.698,289.470 91.200,289.775 91.200 C 290.536 91.200,292.400 93.489,292.400 94.423 C 292.400 94.911,292.987 95.483,294.037 96.019 C 295.535 96.783,295.622 96.912,295.064 97.529 C 294.728 97.900,294.326 99.193,294.170 100.402 C 294.015 101.611,293.553 103.078,293.144 103.662 C 292.735 104.246,292.400 104.914,292.400 105.146 C 292.400 105.379,292.025 105.918,291.567 106.345 C 291.081 106.797,290.640 107.845,290.506 108.860 C 290.363 109.954,289.930 110.927,289.339 111.481 C 288.823 111.965,288.400 112.706,288.400 113.127 C 288.400 113.548,288.057 114.328,287.639 114.860 C 287.220 115.393,286.673 116.587,286.423 117.514 C 286.173 118.441,285.796 119.200,285.585 119.200 C 285.003 119.200,285.124 120.639,285.749 121.157 C 286.050 121.408,286.400 122.243,286.525 123.013 C 286.650 123.783,287.123 124.884,287.576 125.460 C 288.029 126.036,288.400 127.024,288.400 127.654 C 288.400 128.310,288.785 129.183,289.300 129.696 C 290.256 130.648,292.373 136.322,292.398 138.000 C 292.422 139.637,294.272 141.200,296.186 141.200 C 296.821 141.200,297.200 141.424,297.200 141.800 C 297.200 142.130,296.975 142.403,296.700 142.406 C 295.562 142.420,297.461 143.161,299.273 143.410 C 300.325 143.555,301.612 144.009,302.134 144.419 C 302.727 144.886,304.106 145.271,305.816 145.446 C 307.674 145.636,308.992 146.026,309.931 146.663 C 310.690 147.178,311.782 147.600,312.356 147.600 C 313.011 147.600,314.034 148.180,315.100 149.154 L 316.800 150.708 316.800 155.174 C 316.800 158.586,316.959 159.942,317.473 160.920 C 318.424 162.727,318.478 173.807,317.544 175.245 C 316.767 176.439,316.362 180.677,316.832 182.687 C 317.521 185.630,316.501 186.564,310.800 188.215 C 310.250 188.375,309.331 188.835,308.757 189.239 C 308.183 189.643,306.407 190.189,304.811 190.453 C 302.881 190.772,301.658 191.201,301.162 191.733 C 300.646 192.287,299.729 192.590,298.179 192.718 C 296.364 192.869,295.878 193.065,295.612 193.752 C 295.432 194.218,294.635 195.170,293.842 195.866 C 292.970 196.631,292.397 197.501,292.391 198.066 C 292.386 198.580,292.019 199.801,291.575 200.780 C 291.131 201.759,290.586 203.371,290.363 204.364 C 290.141 205.356,289.804 206.355,289.614 206.584 C 286.102 210.826,285.345 216.798,287.736 221.400 C 288.079 222.060,288.459 222.932,288.582 223.338 C 288.704 223.744,289.163 224.170,289.602 224.285 C 290.161 224.431,290.400 224.831,290.400 225.621 C 290.400 227.007,291.004 228.661,291.802 229.459 C 292.131 229.788,292.400 230.300,292.400 230.598 C 292.400 230.895,292.823 231.647,293.341 232.269 C 294.940 234.192,295.109 239.208,293.604 240.072 C 292.912 240.469,292.377 241.194,292.208 241.964 C 292.057 242.651,291.474 243.525,290.911 243.906 C 290.027 244.506,285.446 248.736,283.309 250.926 C 282.919 251.326,281.205 253.036,279.500 254.727 C 277.795 256.418,276.400 258.013,276.400 258.272 C 276.400 258.941,274.435 260.400,273.533 260.400 C 273.089 260.400,272.430 260.982,271.947 261.800 C 271.017 263.377,270.980 263.389,269.600 262.600 C 269.050 262.286,267.935 262.022,267.121 262.014 C 265.574 261.999,262.033 260.360,261.503 259.413 C 261.334 259.110,260.641 258.741,259.964 258.592 C 259.286 258.443,257.739 257.799,256.525 257.161 C 255.312 256.522,253.907 256.000,253.404 256.000 C 252.901 256.000,251.615 255.399,250.545 254.665 C 249.475 253.930,248.342 253.416,248.026 253.523 C 247.050 253.851,244.000 257.329,244.000 258.113 C 244.000 258.808,242.913 260.527,240.305 263.959 C 239.702 264.751,238.863 266.142,238.440 267.050 C 238.018 267.957,237.025 269.546,236.236 270.580 C 235.396 271.680,234.800 272.916,234.800 273.555 C 234.800 274.307,234.425 274.927,233.600 275.537 C 232.940 276.025,232.400 276.667,232.400 276.963 C 232.400 277.259,232.150 277.710,231.843 277.964 C 231.537 278.218,230.532 279.995,229.609 281.913 C 228.686 283.831,227.646 285.622,227.299 285.893 C 226.935 286.176,226.681 286.942,226.701 287.693 C 226.739 289.160,226.079 291.200,225.567 291.200 C 225.382 291.200,225.043 291.899,224.813 292.753 C 224.582 293.608,224.135 294.522,223.818 294.785 C 223.500 295.049,223.030 295.904,222.771 296.686 C 222.513 297.469,221.870 298.746,221.341 299.525 C 220.812 300.304,220.269 301.405,220.135 301.971 C 220.000 302.537,219.732 303.202,219.539 303.449 C 219.345 303.695,218.922 304.791,218.598 305.883 C 218.273 306.975,217.664 308.180,217.244 308.561 C 216.823 308.941,216.356 309.916,216.206 310.726 C 216.055 311.537,215.700 312.470,215.417 312.800 C 215.134 313.130,214.674 314.390,214.397 315.600 C 214.119 316.810,213.556 318.468,213.146 319.284 C 212.736 320.100,212.400 321.015,212.400 321.317 C 212.400 322.216,210.115 329.050,209.475 330.063 C 209.150 330.578,208.674 332.250,208.417 333.777 C 208.160 335.305,207.624 337.285,207.225 338.177 C 206.827 339.070,206.379 340.480,206.230 341.312 C 206.081 342.143,205.626 343.403,205.218 344.112 C 204.810 344.820,204.353 346.164,204.203 347.098 C 203.465 351.692,196.543 351.692,195.792 347.098 C 195.640 346.164,195.195 344.770,194.803 344.000 C 193.827 342.077,192.145 336.693,191.631 333.844 C 191.397 332.547,190.498 329.937,189.632 328.044 C 188.767 326.150,187.932 323.700,187.777 322.600 C 187.622 321.500,187.153 319.922,186.736 319.093 C 186.318 318.264,185.800 316.657,185.585 315.521 C 185.370 314.385,184.945 313.173,184.641 312.828 C 184.338 312.483,183.961 311.597,183.804 310.859 C 183.647 310.122,183.190 309.190,182.790 308.790 C 181.810 307.810,181.200 306.618,181.200 305.681 C 181.200 304.610,178.921 299.185,178.244 298.644 C 177.938 298.400,177.479 297.539,177.224 296.732 C 176.968 295.925,176.498 295.048,176.180 294.783 C 175.861 294.518,175.600 294.079,175.600 293.807 C 175.600 293.535,175.062 292.252,174.405 290.956 C 173.748 289.660,173.208 288.116,173.205 287.524 C 173.202 286.932,173.010 286.330,172.779 286.187 C 172.547 286.044,171.608 284.368,170.693 282.463 C 168.847 278.624,167.284 276.158,166.029 275.104 C 165.573 274.721,165.200 274.023,165.200 273.552 C 165.200 273.082,164.472 271.630,163.582 270.326 C 162.691 269.022,161.788 267.494,161.574 266.932 C 161.360 266.369,160.816 265.434,160.365 264.854 C 157.057 260.600,156.000 258.985,156.000 258.185 C 156.000 257.655,155.317 256.555,154.392 255.591 L 152.783 253.917 150.377 254.341 C 149.053 254.574,147.509 255.128,146.945 255.572 C 146.380 256.016,145.314 256.493,144.574 256.631 C 143.834 256.770,143.021 257.134,142.768 257.439 C 142.514 257.744,141.563 258.192,140.653 258.433 C 139.744 258.674,138.640 259.196,138.200 259.594 C 136.749 260.903,134.236 262.000,132.686 262.000 C 131.847 262.000,130.645 262.266,130.015 262.592 C 128.897 263.171,128.851 263.153,128.072 261.832 C 127.554 260.954,126.855 260.388,126.079 260.217 C 124.787 259.934,123.844 259.070,123.440 257.800 C 123.300 257.360,122.258 256.372,121.126 255.604 C 119.993 254.837,118.568 253.521,117.959 252.680 C 117.351 251.840,116.081 250.542,115.137 249.795 C 114.194 249.049,112.916 247.755,112.297 246.919 C 111.678 246.084,110.503 244.942,109.686 244.383 C 108.777 243.762,108.026 242.829,107.753 241.983 C 107.499 241.199,106.840 240.340,106.229 240.000 C 105.339 239.504,105.192 239.201,105.377 238.250 C 105.500 237.618,105.600 236.326,105.600 235.381 C 105.600 234.130,105.873 233.337,106.600 232.473 C 107.150 231.819,107.600 231.003,107.600 230.658 C 107.600 230.313,107.943 229.709,108.363 229.316 C 108.783 228.922,109.252 227.753,109.406 226.718 C 109.607 225.365,109.954 224.660,110.643 224.209 C 111.169 223.864,111.600 223.250,111.600 222.845 C 111.600 222.439,111.931 221.679,112.336 221.154 C 114.119 218.845,114.357 213.070,112.753 211.031 C 112.339 210.505,112.000 209.960,112.000 209.820 C 112.000 209.681,111.460 208.412,110.800 207.000 C 110.140 205.588,109.600 204.213,109.600 203.943 C 109.600 203.673,109.253 202.721,108.829 201.826 C 108.404 200.932,107.856 199.429,107.609 198.486 C 107.343 197.467,106.664 196.331,105.936 195.686 C 105.262 195.089,104.555 194.195,104.365 193.700 C 104.070 192.932,103.725 192.800,102.010 192.800 C 100.495 192.800,99.791 192.591,99.151 191.951 C 98.276 191.076,95.001 190.013,93.154 190.005 C 92.579 190.002,91.679 189.667,91.154 189.259 C 90.629 188.852,88.717 188.028,86.904 187.428 C 83.105 186.170,83.064 186.129,83.208 183.657 C 83.418 180.067,83.148 176.582,82.523 174.800 C 81.603 172.175,81.648 163.694,82.596 161.000 C 83.114 159.529,83.290 157.859,83.262 154.688 C 83.222 150.218,83.725 148.800,85.351 148.800 C 85.654 148.800,86.126 148.530,86.400 148.200 C 86.674 147.870,87.381 147.600,87.971 147.600 C 88.562 147.600,89.655 147.150,90.400 146.600 C 91.429 145.841,92.247 145.600,93.800 145.600 C 95.344 145.600,96.171 145.359,97.178 144.616 C 97.912 144.075,99.342 143.524,100.356 143.391 C 102.196 143.151,104.248 142.478,103.300 142.427 C 102.298 142.373,102.789 141.200,103.814 141.200 C 106.000 141.200,107.422 139.785,107.802 137.234 C 107.952 136.225,108.210 135.220,108.375 135.000 C 108.541 134.780,108.915 133.700,109.208 132.600 C 109.500 131.500,110.158 130.204,110.670 129.719 C 111.229 129.190,111.600 128.373,111.600 127.673 C 111.600 127.032,111.958 126.053,112.395 125.497 C 114.271 123.112,114.301 117.529,112.451 114.903 C 112.024 114.296,111.558 113.113,111.414 112.273 C 111.168 110.829,111.091 110.760,109.977 111.005 C 108.764 111.272,108.461 110.899,109.250 110.110 C 109.780 109.580,109.409 107.083,108.684 106.307 C 108.418 106.021,107.857 105.116,107.437 104.294 C 107.017 103.472,106.547 102.800,106.392 102.800 C 106.237 102.800,105.992 101.791,105.847 100.558 C 105.702 99.325,105.400 97.973,105.175 97.554 C 104.831 96.911,104.989 96.662,106.184 95.957 C 107.047 95.447,107.600 94.812,107.600 94.329 C 107.600 93.639,110.275 90.748,119.490 81.482 C 120.321 80.647,121.495 79.698,122.100 79.372 C 122.705 79.046,123.200 78.530,123.200 78.225 C 123.200 77.480,125.480 75.600,126.385 75.600 C 126.783 75.600,127.403 75.150,127.763 74.600 C 128.364 73.684,128.664 73.600,131.353 73.600 C 133.824 73.600,134.521 73.758,135.762 74.600 C 136.572 75.150,137.351 75.600,137.492 75.600 C 137.633 75.600,138.154 75.981,138.649 76.446 C 139.185 76.950,140.295 77.377,141.390 77.500 C 142.610 77.638,143.361 77.953,143.620 78.436 C 143.834 78.837,144.626 79.281,145.379 79.422 C 146.132 79.564,147.048 80.011,147.415 80.417 C 147.783 80.823,148.649 81.276,149.341 81.424 C 150.034 81.571,150.782 81.838,151.003 82.015 C 151.627 82.513,156.522 81.250,157.200 80.415 C 157.530 80.009,158.599 79.548,159.575 79.391 C 160.554 79.233,161.629 78.762,161.975 78.340 C 162.319 77.920,163.320 77.469,164.200 77.339 C 165.080 77.209,166.022 76.825,166.292 76.486 C 166.563 76.146,167.798 75.731,169.036 75.563 C 171.924 75.171,173.331 73.976,173.112 72.100 C 172.964 70.827,173.632 70.281,174.204 71.207 C 174.658 71.942,175.084 71.252,175.344 69.359 C 175.484 68.334,175.959 66.913,176.400 66.200 C 176.841 65.487,177.306 64.025,177.434 62.952 C 177.632 61.294,179.176 57.315,180.443 55.200 C 180.640 54.870,180.981 54.150,181.201 53.600 C 182.082 51.390,182.030 51.412,186.964 51.187 C 189.709 51.062,191.760 50.792,191.923 50.533 C 192.613 49.436,207.323 49.302,207.993 50.387 M195.800 127.556 C 195.360 127.745,194.010 128.019,192.800 128.166 C 188.365 128.705,187.572 128.885,186.964 129.493 C 186.622 129.835,185.511 130.269,184.495 130.459 C 183.249 130.692,182.028 131.326,180.751 132.402 C 179.709 133.281,178.588 134.000,178.261 134.000 C 177.933 134.000,176.706 134.828,175.533 135.840 C 174.360 136.852,172.838 137.955,172.150 138.290 C 171.463 138.626,170.632 139.463,170.303 140.150 C 169.975 140.838,168.872 142.326,167.853 143.459 C 166.834 144.591,166.000 145.819,166.000 146.187 C 166.000 146.555,165.290 147.699,164.423 148.728 C 163.411 149.930,162.691 151.294,162.413 152.539 C 162.174 153.605,161.746 154.711,161.460 154.997 C 160.347 156.110,159.449 168.512,160.164 172.896 C 160.514 175.038,160.800 177.417,160.800 178.182 C 160.800 179.126,161.038 179.699,161.542 179.969 C 162.078 180.256,162.349 180.994,162.518 182.626 C 162.770 185.068,164.291 187.784,165.646 188.215 C 166.159 188.377,166.400 188.829,166.400 189.627 C 166.400 190.799,166.897 191.487,168.841 193.008 C 169.408 193.452,170.108 194.254,170.394 194.789 C 170.681 195.325,171.365 196.132,171.913 196.582 C 172.462 197.032,173.848 198.255,174.994 199.300 C 176.391 200.574,177.430 201.200,178.147 201.200 C 178.868 201.200,179.351 201.493,179.628 202.100 C 180.365 203.715,182.755 204.943,185.517 205.128 C 187.811 205.280,188.024 205.371,187.917 206.145 C 187.742 207.419,197.241 208.282,204.200 207.624 C 206.840 207.375,209.270 207.166,209.600 207.160 C 211.202 207.131,212.000 206.743,212.000 205.992 C 212.000 205.293,212.274 205.200,214.340 205.200 C 216.886 205.200,219.872 203.577,220.294 201.963 C 220.438 201.412,220.850 201.200,221.782 201.200 C 222.792 201.200,223.434 200.812,224.757 199.400 C 225.685 198.410,226.686 197.600,226.983 197.600 C 227.279 197.600,228.034 196.962,228.661 196.182 C 229.287 195.403,230.655 193.880,231.700 192.798 C 233.085 191.365,233.600 190.514,233.600 189.662 C 233.600 188.884,233.835 188.432,234.302 188.310 C 235.559 187.981,237.205 185.090,237.460 182.762 C 237.600 181.477,237.960 180.390,238.348 180.083 C 240.370 178.481,240.309 157.130,238.276 154.884 C 237.930 154.501,237.474 153.422,237.264 152.486 C 236.828 150.544,235.869 148.929,234.526 147.871 C 233.995 147.453,233.600 146.711,233.600 146.132 C 233.600 145.518,232.956 144.395,231.952 143.261 C 231.046 142.238,230.023 140.815,229.678 140.100 C 229.334 139.385,228.925 138.800,228.771 138.800 C 228.277 138.800,224.219 135.890,223.700 135.163 C 223.424 134.778,222.704 134.354,222.100 134.220 C 221.495 134.087,220.211 133.247,219.246 132.355 C 218.114 131.307,216.979 130.653,216.046 130.510 C 215.251 130.387,214.060 130.014,213.400 129.681 C 210.501 128.215,197.833 126.686,195.800 127.556 " stroke="none" fill="#fb441c" fill-rule="evenodd"></path><path id="path2" d="M0.000 0.600 C 0.000 1.133,22.489 1.200,200.000 1.200 C 377.511 1.200,400.000 1.133,400.000 0.600 C 400.000 0.067,377.511 0.000,200.000 0.000 C 22.489 0.000,0.000 0.067,0.000 0.600 M189.456 51.104 C 181.893 51.759,181.794 51.801,180.968 54.684 C 180.602 55.958,180.178 57.180,180.024 57.400 C 179.870 57.620,179.500 58.610,179.202 59.600 C 178.904 60.590,178.426 61.850,178.139 62.400 C 177.853 62.950,176.975 65.380,176.188 67.800 C 175.401 70.220,174.574 72.673,174.350 73.252 C 173.921 74.359,172.618 75.061,168.800 76.241 C 165.975 77.115,162.039 78.776,156.959 81.240 C 152.156 83.569,152.965 83.504,149.462 81.844 C 147.888 81.098,145.250 79.857,143.600 79.087 C 141.950 78.317,138.646 76.767,136.258 75.644 C 129.839 72.622,129.877 72.603,117.429 85.009 C 107.150 95.253,104.677 98.610,106.117 100.369 C 106.402 100.716,106.875 101.708,107.170 102.573 C 107.464 103.438,109.479 107.779,111.648 112.220 L 115.592 120.294 113.202 125.047 C 111.888 127.661,110.810 130.020,110.806 130.289 C 110.803 130.558,110.379 131.728,109.865 132.889 C 108.648 135.637,108.015 137.403,107.484 139.528 C 106.970 141.585,106.839 141.663,99.800 144.128 C 96.940 145.129,93.070 146.517,91.200 147.213 C 89.330 147.908,87.319 148.568,86.731 148.679 C 83.707 149.252,82.573 155.630,82.941 170.000 C 83.315 184.587,83.672 186.050,87.105 187.048 C 88.362 187.413,89.663 187.845,89.995 188.007 C 90.328 188.170,91.770 188.704,93.200 189.194 C 107.903 194.233,106.727 193.556,108.014 197.727 C 109.096 201.232,109.275 201.724,110.307 204.000 C 110.756 204.990,111.535 206.790,112.038 208.000 C 112.541 209.210,113.548 211.316,114.275 212.680 L 115.596 215.159 113.054 220.480 C 107.400 232.310,106.800 233.618,106.800 234.122 C 106.800 234.411,106.536 234.996,106.213 235.424 C 105.378 236.527,105.455 237.058,106.692 238.727 C 111.022 244.567,118.771 252.558,125.917 258.549 C 130.032 261.998,131.099 262.483,132.705 261.632 C 133.087 261.429,134.570 260.728,136.000 260.073 C 137.430 259.419,141.714 257.410,145.520 255.609 C 151.461 252.799,152.532 252.411,153.083 252.868 C 154.204 253.796,163.000 267.523,165.983 273.000 C 166.942 274.760,168.178 277.010,168.730 278.000 C 171.090 282.234,171.840 283.661,174.197 288.400 C 178.247 296.543,180.932 302.370,182.586 306.600 C 183.187 308.140,183.836 309.704,184.028 310.075 C 184.219 310.446,184.726 311.706,185.154 312.875 C 185.583 314.044,186.415 316.260,187.003 317.800 C 189.619 324.648,194.861 341.000,195.623 344.688 C 197.013 351.419,201.694 352.567,203.732 346.677 C 204.665 343.980,206.400 337.698,206.400 337.016 C 206.400 336.671,206.570 336.077,206.779 335.695 C 207.200 334.922,208.729 330.462,209.210 328.600 C 209.695 326.726,213.055 317.404,214.762 313.200 C 220.122 299.993,220.981 298.090,226.404 287.400 C 231.143 278.057,232.461 275.649,237.124 267.800 C 240.395 262.295,246.206 253.459,246.976 252.820 C 247.469 252.410,261.490 258.486,267.295 261.624 C 269.639 262.892,277.908 256.354,287.560 245.600 C 293.957 238.474,294.802 237.081,293.836 235.262 C 293.526 234.678,293.003 233.570,292.676 232.800 C 291.677 230.455,289.044 224.852,286.640 219.957 L 284.359 215.314 286.136 211.757 C 288.331 207.361,290.566 201.974,291.868 197.939 C 293.191 193.837,293.072 193.938,299.000 191.886 C 301.860 190.896,305.370 189.682,306.800 189.187 C 308.230 188.692,309.670 188.189,310.000 188.068 C 310.330 187.947,311.680 187.477,313.000 187.024 C 316.325 185.882,317.201 181.912,317.199 167.982 C 317.198 153.835,316.204 149.538,312.710 148.569 C 310.837 148.049,306.666 146.586,305.400 146.004 C 304.960 145.802,303.070 145.106,301.200 144.458 C 293.107 141.651,293.278 141.747,292.623 139.674 C 291.606 136.459,290.195 132.638,289.687 131.726 C 289.419 131.246,289.200 130.667,289.200 130.440 C 289.200 130.214,288.121 127.842,286.802 125.171 L 284.404 120.314 287.456 114.057 C 289.135 110.616,291.119 106.450,291.865 104.800 C 292.612 103.150,293.487 101.322,293.811 100.738 C 294.620 99.280,294.561 98.846,293.298 96.962 C 290.718 93.115,280.037 81.737,276.200 78.748 C 275.100 77.891,273.248 76.383,272.085 75.395 C 269.382 73.101,268.916 73.121,263.463 75.759 C 261.008 76.947,257.650 78.544,256.000 79.309 C 254.350 80.073,251.775 81.276,250.277 81.981 C 247.299 83.383,246.300 83.323,244.127 81.614 C 243.558 81.166,242.828 80.800,242.505 80.800 C 242.182 80.800,241.081 80.371,240.059 79.846 C 236.684 78.115,233.593 76.800,232.891 76.798 C 232.511 76.796,231.750 76.561,231.200 76.276 C 230.650 75.990,229.338 75.515,228.284 75.221 C 226.035 74.594,226.166 74.804,224.041 68.400 C 223.129 65.650,222.207 63.087,221.991 62.705 C 221.636 62.075,220.718 59.557,218.919 54.278 C 218.559 53.220,217.980 52.204,217.632 52.019 C 215.555 50.913,198.184 50.349,189.456 51.104 M211.870 51.741 C 217.186 52.300,217.731 52.549,218.427 54.732 C 218.684 55.539,219.126 56.740,219.409 57.400 C 220.199 59.246,221.794 63.693,223.639 69.200 C 225.659 75.227,225.318 74.841,230.000 76.408 C 234.570 77.936,237.264 79.043,242.738 81.638 C 247.890 84.081,247.149 84.137,254.240 80.766 C 257.518 79.208,261.712 77.213,263.561 76.333 C 268.562 73.953,268.685 73.920,269.995 74.598 C 274.047 76.693,288.456 90.948,292.766 97.125 C 293.963 98.841,293.834 99.406,290.780 105.808 C 284.831 118.276,284.000 120.068,284.000 120.431 C 284.000 120.643,284.799 122.407,285.775 124.351 C 288.019 128.818,290.421 134.584,291.545 138.200 C 292.920 142.623,290.426 141.309,311.545 148.732 C 315.647 150.173,315.620 150.110,316.343 159.866 C 316.973 168.359,316.356 183.120,315.291 185.023 C 315.053 185.448,312.902 186.436,309.947 187.477 C 307.226 188.435,302.750 190.007,300.000 190.970 C 297.250 191.934,294.533 192.904,293.962 193.127 C 292.886 193.548,292.586 194.112,291.211 198.302 C 289.881 202.355,288.102 206.633,285.984 210.871 C 283.587 215.666,283.582 214.726,286.036 219.905 C 292.444 233.423,293.600 235.996,293.600 236.738 C 293.600 238.655,282.361 250.966,274.819 257.310 C 268.712 262.447,270.275 262.491,258.313 256.838 C 252.683 254.177,247.795 252.000,247.451 252.000 C 246.397 252.000,237.905 264.706,233.416 273.000 C 232.582 274.540,231.763 275.980,231.596 276.200 C 230.807 277.235,222.583 293.684,220.096 299.200 C 214.057 312.595,206.933 332.490,203.603 345.262 C 202.788 348.388,201.838 349.600,200.206 349.600 C 197.809 349.600,197.408 348.912,195.195 341.000 C 192.208 330.322,187.713 317.532,182.826 305.800 C 174.645 286.165,155.389 252.000,152.503 252.000 C 152.133 252.000,149.124 253.289,145.815 254.863 C 131.310 261.768,131.489 261.695,130.300 261.223 C 126.801 259.835,109.949 243.118,106.997 238.106 C 106.057 236.510,106.129 236.277,110.289 227.600 C 111.924 224.190,113.904 220.002,114.689 218.294 L 116.117 215.188 114.060 211.009 C 111.781 206.378,110.011 202.079,108.585 197.712 C 107.230 193.564,107.108 193.415,104.319 192.489 C 102.934 192.029,99.730 190.907,97.200 189.996 C 94.670 189.084,90.918 187.767,88.862 187.069 C 86.569 186.290,84.970 185.512,84.723 185.054 C 83.640 183.039,83.050 168.337,83.700 159.565 C 84.423 149.799,84.232 150.225,88.600 148.680 C 90.140 148.135,94.508 146.592,98.306 145.252 C 107.616 141.966,107.279 142.175,108.173 139.134 C 109.278 135.370,111.784 129.196,114.021 124.719 C 116.425 119.910,116.476 121.012,113.560 114.908 C 108.397 104.097,106.400 99.618,106.400 98.847 C 106.400 96.280,125.449 76.785,130.147 74.545 C 131.420 73.938,131.470 73.956,141.613 78.767 C 153.357 84.338,152.165 84.091,156.686 81.888 C 161.240 79.668,165.663 77.832,169.382 76.618 C 174.586 74.920,174.245 75.318,176.813 67.956 C 180.486 57.424,182.011 53.437,182.591 52.847 C 183.974 51.440,202.394 50.744,211.870 51.741 M194.400 126.613 C 168.471 130.694,152.810 155.178,160.251 180.000 C 160.812 181.870,161.434 183.571,161.635 183.780 C 161.836 183.989,162.000 184.408,162.000 184.710 C 162.000 185.013,162.750 186.552,163.667 188.130 C 182.330 220.265,229.361 214.762,239.989 179.200 C 248.445 150.907,223.423 122.044,194.400 126.613 M204.165 127.001 C 209.029 127.607,209.856 127.807,214.400 129.474 C 226.350 133.858,236.359 144.537,239.361 156.105 C 239.690 157.372,240.070 158.590,240.206 158.810 C 242.324 162.236,240.038 181.782,237.083 185.516 C 236.859 185.800,236.262 186.924,235.758 188.012 C 227.413 206.023,200.566 214.200,181.487 204.542 C 165.021 196.207,154.837 174.139,160.043 158.079 C 160.307 157.265,160.782 155.790,161.100 154.800 C 164.833 143.155,175.595 132.281,186.609 129.025 C 187.924 128.636,189.455 128.151,190.010 127.948 C 190.566 127.744,192.906 127.336,195.210 127.040 C 197.515 126.744,199.400 126.481,199.400 126.454 C 199.400 126.428,201.544 126.674,204.165 127.001 " stroke="none" fill="#ee8d6e" fill-rule="evenodd"></path><path id="path3" d="M0.000 1.500 C 0.000 1.665,90.000 1.800,200.000 1.800 C 310.000 1.800,400.000 1.665,400.000 1.500 C 400.000 1.335,310.000 1.200,200.000 1.200 C 90.000 1.200,0.000 1.335,0.000 1.500 M192.900 49.882 C 190.270 50.389,192.865 50.701,200.000 50.736 C 207.293 50.772,209.505 50.497,207.100 49.852 C 206.100 49.584,194.318 49.609,192.900 49.882 M181.949 51.877 C 181.536 52.386,181.529 52.476,181.920 52.241 C 182.206 52.069,183.286 51.785,184.320 51.611 L 186.200 51.294 184.349 51.247 C 183.051 51.214,182.334 51.402,181.949 51.877 M215.600 51.564 C 216.590 51.705,217.670 51.986,218.000 52.187 C 218.518 52.503,218.525 52.461,218.051 51.877 C 217.664 51.400,216.955 51.216,215.651 51.253 L 213.800 51.307 215.600 51.564 M180.155 55.596 C 179.991 56.143,179.349 57.556,178.728 58.736 C 177.658 60.771,177.194 63.098,177.952 62.630 C 178.146 62.510,178.606 61.464,178.974 60.306 C 179.343 59.148,179.917 57.607,180.250 56.882 C 180.582 56.157,180.764 55.347,180.654 55.082 C 180.544 54.817,180.319 55.048,180.155 55.596 M219.315 55.437 C 220.261 58.428,221.717 62.263,222.028 62.580 C 222.888 63.458,222.321 60.730,221.200 58.600 C 220.540 57.345,220.000 56.078,220.000 55.783 C 220.000 55.488,219.792 55.118,219.537 54.961 C 219.223 54.767,219.152 54.921,219.315 55.437 M176.050 66.707 C 175.841 67.096,175.566 68.131,175.438 69.007 C 175.257 70.250,175.286 70.381,175.572 69.600 C 176.690 66.545,176.937 65.050,176.050 66.707 M223.659 67.300 C 224.684 70.604,224.728 70.698,224.766 69.687 C 224.800 68.772,223.810 66.000,223.448 66.000 C 223.342 66.000,223.437 66.585,223.659 67.300 M173.118 72.022 C 173.312 73.346,171.997 75.200,170.864 75.200 C 170.535 75.200,170.385 75.318,170.529 75.463 C 171.724 76.658,175.486 72.709,174.400 71.400 C 173.552 70.378,172.922 70.685,173.118 72.022 M225.629 71.365 C 225.107 71.994,226.020 74.800,226.747 74.800 C 226.960 74.800,227.464 74.926,227.867 75.080 C 228.426 75.293,228.338 75.047,227.500 74.049 C 226.315 72.638,226.175 72.186,226.800 71.800 C 227.020 71.664,227.200 71.383,227.200 71.176 C 227.200 70.603,226.158 70.728,225.629 71.365 M270.120 73.118 C 269.652 73.415,270.044 73.777,276.130 78.661 C 280.183 81.913,290.756 93.168,293.233 96.868 C 294.246 98.380,294.280 98.395,294.971 97.633 C 295.653 96.879,295.623 96.828,294.037 96.019 C 292.987 95.483,292.400 94.911,292.400 94.423 C 292.400 93.489,290.536 91.200,289.775 91.200 C 289.470 91.200,288.961 90.698,288.644 90.085 C 288.327 89.472,286.691 87.627,285.009 85.985 C 283.327 84.343,281.287 82.317,280.476 81.482 C 279.664 80.647,278.505 79.698,277.900 79.372 C 277.295 79.046,276.800 78.521,276.800 78.205 C 276.800 77.378,275.221 76.028,273.834 75.669 C 273.135 75.488,272.379 74.884,272.004 74.208 C 271.296 72.929,270.836 72.663,270.120 73.118 M127.763 74.600 C 127.403 75.150,126.783 75.600,126.385 75.600 C 125.480 75.600,123.200 77.480,123.200 78.225 C 123.200 78.530,122.705 79.046,122.100 79.372 C 121.495 79.698,120.321 80.647,119.490 81.482 C 110.275 90.748,107.600 93.639,107.600 94.329 C 107.600 94.812,107.047 95.447,106.184 95.957 C 104.914 96.706,104.816 96.882,105.234 97.663 C 105.690 98.516,105.716 98.506,106.550 97.141 C 109.238 92.741,122.053 79.871,129.200 74.393 C 130.193 73.632,130.194 73.627,129.309 73.613 C 128.790 73.606,128.145 74.018,127.763 74.600 M132.453 73.786 C 133.034 74.368,138.848 76.740,138.416 76.220 C 138.133 75.879,137.752 75.600,137.569 75.600 C 137.385 75.600,136.572 75.150,135.762 74.600 C 134.570 73.791,131.769 73.102,132.453 73.786 M264.200 74.612 C 263.540 75.153,262.623 75.597,262.162 75.598 C 261.701 75.599,260.996 75.963,260.595 76.406 C 260.193 76.849,259.169 77.323,258.318 77.460 C 257.412 77.604,256.607 78.013,256.376 78.444 C 256.049 79.057,256.102 79.139,256.691 78.928 C 258.241 78.372,267.200 74.011,267.200 73.812 C 267.200 73.228,265.255 73.747,264.200 74.612 M166.900 75.865 C 166.156 76.165,166.295 76.803,167.100 76.782 C 167.485 76.772,168.340 76.517,169.000 76.214 L 170.200 75.665 168.800 75.664 C 168.030 75.664,167.175 75.754,166.900 75.865 M230.581 75.969 C 230.877 76.447,233.179 76.955,233.517 76.616 C 233.660 76.473,233.512 76.189,233.188 75.984 C 232.424 75.501,230.284 75.488,230.581 75.969 M162.941 77.597 C 161.916 78.011,161.336 78.807,162.076 78.783 C 163.012 78.753,165.502 77.232,164.600 77.242 C 164.160 77.247,163.413 77.407,162.941 77.597 M236.000 77.962 C 236.770 78.404,237.664 78.774,237.986 78.783 C 239.152 78.817,237.458 77.629,235.995 77.388 L 234.600 77.157 236.000 77.962 M143.800 79.200 C 147.306 80.893,147.933 81.084,147.235 80.242 C 146.980 79.935,146.150 79.567,145.391 79.425 C 144.626 79.281,143.823 78.816,143.591 78.383 C 143.302 77.844,142.772 77.608,141.886 77.627 C 140.748 77.651,140.968 77.832,143.800 79.200 M158.700 79.487 C 158.095 79.578,157.414 80.000,157.187 80.424 C 156.802 81.144,156.848 81.162,157.887 80.704 C 161.142 79.270,161.256 79.099,158.700 79.487 M239.600 79.390 C 239.600 79.652,241.864 80.800,242.380 80.800 C 243.276 80.800,242.738 80.057,241.540 79.639 C 240.180 79.165,239.600 79.090,239.600 79.390 M254.129 79.478 C 253.650 79.572,253.043 79.907,252.780 80.224 C 252.080 81.068,252.921 80.958,254.490 80.001 C 255.798 79.204,255.768 79.160,254.129 79.478 M148.400 81.346 C 148.400 81.435,149.385 81.907,150.588 82.395 L 152.776 83.283 154.609 82.396 C 156.962 81.257,156.748 81.098,153.788 81.786 C 152.479 82.091,151.227 82.198,151.004 82.025 C 150.538 81.662,148.400 81.105,148.400 81.346 M244.622 82.036 C 245.197 82.965,247.505 83.208,249.144 82.510 L 250.813 81.800 247.623 81.765 C 245.869 81.746,244.518 81.868,244.622 82.036 M106.000 101.393 C 106.000 101.965,106.387 102.831,106.859 103.317 C 107.654 104.134,107.695 104.140,107.408 103.400 C 107.237 102.960,107.009 102.192,106.901 101.694 C 106.616 100.381,106.000 100.175,106.000 101.393 M293.246 101.794 C 292.746 102.995,291.600 105.541,291.309 106.100 C 291.223 106.265,291.331 106.400,291.549 106.400 C 291.768 106.400,292.072 105.995,292.226 105.500 C 292.379 105.005,292.854 104.105,293.280 103.499 C 293.707 102.894,293.985 101.994,293.899 101.499 C 293.753 100.659,293.710 100.678,293.246 101.794 M109.616 109.076 C 109.607 109.558,109.420 110.064,109.200 110.200 C 108.636 110.548,108.702 111.201,109.300 111.194 C 110.573 111.178,110.902 110.544,110.256 109.352 C 109.693 108.313,109.630 108.286,109.616 109.076 M288.617 111.685 C 286.602 115.902,286.574 115.988,287.570 114.856 C 288.026 114.336,288.400 113.563,288.400 113.137 C 288.400 112.710,288.863 111.933,289.429 111.408 C 290.137 110.752,290.418 110.129,290.329 109.412 C 290.223 108.556,289.918 108.961,288.617 111.685 M111.600 113.332 C 111.600 113.651,111.957 114.336,112.394 114.856 L 113.188 115.800 112.755 114.499 C 112.285 113.090,111.600 112.397,111.600 113.332 M113.330 116.449 C 113.875 118.170,114.016 120.774,113.650 122.389 C 113.111 124.768,113.267 124.778,114.538 122.442 L 115.606 120.481 114.827 118.740 C 113.969 116.823,112.959 115.277,113.330 116.449 M285.448 118.135 L 284.414 120.320 286.382 124.260 C 287.493 126.485,288.360 127.832,288.375 127.354 C 288.389 126.889,288.029 126.036,287.576 125.460 C 287.123 124.884,286.650 123.783,286.525 123.013 C 286.400 122.243,286.050 121.408,285.749 121.157 C 285.126 120.640,285.003 119.200,285.581 119.200 C 285.960 119.200,286.913 116.380,286.630 116.097 C 286.549 116.016,286.017 116.933,285.448 118.135 M112.176 125.780 C 111.823 126.320,111.595 127.080,111.671 127.471 C 111.761 127.938,112.035 127.603,112.472 126.491 C 113.222 124.581,113.121 124.338,112.176 125.780 M195.052 127.058 C 190.056 127.696,187.740 128.594,192.061 128.218 C 193.524 128.090,195.267 127.795,195.935 127.563 C 198.482 126.675,210.450 128.171,213.527 129.762 C 214.257 130.140,215.247 130.393,215.727 130.324 C 216.553 130.207,215.249 129.657,210.365 128.063 C 209.239 127.696,199.400 126.252,199.400 126.454 C 199.400 126.481,197.444 126.753,195.052 127.058 M186.200 129.053 C 182.115 130.483,176.204 134.000,173.200 136.789 C 170.408 139.381,172.312 138.600,175.533 135.833 C 176.706 134.825,177.933 134.000,178.261 134.000 C 178.588 134.000,179.709 133.281,180.751 132.402 C 182.059 131.299,183.243 130.693,184.573 130.445 C 185.633 130.247,186.628 129.878,186.784 129.625 C 186.940 129.373,187.593 129.009,188.234 128.817 C 188.964 128.599,189.101 128.473,188.600 128.481 C 188.160 128.488,187.080 128.745,186.200 129.053 M109.818 130.500 C 108.926 133.339,108.750 134.083,108.927 134.260 C 109.136 134.469,110.800 130.994,110.800 130.349 C 110.800 129.812,109.995 129.936,109.818 130.500 M289.200 130.478 C 289.200 130.777,289.439 131.377,289.730 131.811 C 290.022 132.245,290.566 133.590,290.940 134.800 C 291.710 137.295,292.389 138.610,292.385 137.600 C 292.381 136.497,290.099 130.233,289.646 130.082 C 289.401 130.000,289.200 130.178,289.200 130.478 M219.433 132.577 C 220.295 133.334,221.495 134.068,222.100 134.208 C 222.704 134.349,223.424 134.764,223.700 135.132 C 224.315 135.954,226.651 137.706,228.000 138.359 C 229.296 138.985,225.570 135.465,223.432 134.043 C 219.098 131.161,216.908 130.358,219.433 132.577 M108.295 135.200 C 108.170 135.530,107.961 136.340,107.832 137.000 L 107.597 138.200 108.224 137.077 C 108.568 136.459,108.776 135.649,108.687 135.277 C 108.550 134.709,108.487 134.697,108.295 135.200 M168.885 140.954 C 167.138 142.849,165.737 144.938,163.890 148.400 L 162.716 150.600 164.341 148.800 C 165.235 147.810,165.974 146.666,165.983 146.259 C 165.992 145.851,166.823 144.602,167.828 143.484 C 169.454 141.676,171.091 139.200,170.661 139.200 C 170.574 139.200,169.774 139.989,168.885 140.954 M229.711 140.200 C 230.046 140.860,231.058 142.238,231.960 143.261 C 232.955 144.391,233.600 145.520,233.600 146.132 C 233.600 146.711,233.995 147.453,234.526 147.871 C 235.869 148.929,236.828 150.544,237.264 152.486 C 237.474 153.422,237.930 154.501,238.276 154.884 C 240.346 157.172,240.365 178.892,238.298 180.049 C 237.860 180.294,237.600 180.918,237.600 181.723 C 237.600 182.428,237.423 183.622,237.207 184.376 C 236.339 187.401,237.592 184.723,238.973 180.600 C 240.994 174.567,241.745 161.299,240.206 158.810 C 240.070 158.590,239.690 157.372,239.361 156.105 C 238.070 151.130,233.579 143.167,230.392 140.200 L 229.103 139.000 229.711 140.200 M105.776 140.587 C 105.349 140.910,104.505 141.180,103.900 141.187 C 102.751 141.201,102.354 142.143,103.338 142.521 C 104.148 142.832,107.200 141.329,107.200 140.620 C 107.200 139.843,106.773 139.834,105.776 140.587 M292.806 140.300 C 292.827 141.307,295.631 142.902,296.700 142.515 C 297.663 142.166,297.226 141.200,296.100 141.187 C 295.495 141.180,294.651 140.910,294.224 140.587 C 293.377 139.947,292.797 139.829,292.806 140.300 M98.920 143.642 C 97.615 144.020,96.726 144.825,97.676 144.769 C 97.964 144.752,99.100 144.406,100.200 144.000 C 102.340 143.210,101.360 142.937,98.920 143.642 M299.968 144.009 C 301.160 144.443,302.211 144.723,302.302 144.631 C 302.597 144.336,301.046 143.712,299.400 143.463 C 297.912 143.238,297.952 143.277,299.968 144.009 M304.000 145.459 C 304.330 145.569,304.960 145.819,305.400 146.015 C 306.747 146.616,310.903 148.067,312.710 148.569 C 315.357 149.303,316.024 150.225,316.382 153.648 L 316.691 156.600 316.746 153.654 L 316.800 150.708 315.100 149.154 C 314.034 148.180,313.011 147.600,312.356 147.600 C 311.782 147.600,310.692 147.179,309.934 146.665 C 309.000 146.031,307.726 145.654,305.978 145.495 C 304.560 145.365,303.670 145.349,304.000 145.459 M90.400 146.600 C 89.655 147.150,88.562 147.600,87.971 147.600 C 87.381 147.600,86.651 147.899,86.349 148.264 C 85.644 149.117,86.468 148.946,91.132 147.268 C 95.118 145.835,95.429 145.600,93.344 145.600 C 92.278 145.600,91.310 145.929,90.400 146.600 M84.000 149.600 C 83.357 150.243,83.210 150.891,83.249 152.900 L 83.298 155.400 83.643 153.032 C 83.866 151.505,84.299 150.333,84.864 149.732 C 85.930 148.597,85.126 148.474,84.000 149.600 M161.895 152.273 C 161.449 153.063,161.219 154.800,161.561 154.800 C 161.970 154.800,162.600 152.467,162.278 152.145 C 162.169 152.036,161.997 152.094,161.895 152.273 M160.400 156.760 C 160.400 157.251,160.220 157.989,160.000 158.401 C 158.535 161.137,158.917 174.150,160.613 179.292 C 162.388 184.677,162.806 185.440,162.535 182.800 C 162.380 181.291,162.073 180.428,161.555 180.051 C 161.075 179.703,160.800 179.015,160.800 178.167 C 160.800 177.433,160.511 175.007,160.158 172.775 C 159.562 169.014,159.565 168.270,160.201 162.536 C 160.578 159.135,160.777 156.244,160.643 156.110 C 160.509 155.976,160.400 156.269,160.400 156.760 M82.130 162.700 C 81.713 165.189,81.852 172.670,82.345 174.200 C 82.625 175.071,82.741 173.398,82.766 168.100 C 82.801 160.542,82.674 159.460,82.130 162.700 M317.224 168.200 C 317.224 174.187,317.324 175.630,317.692 175.000 C 318.329 173.909,318.329 162.491,317.692 161.400 C 317.324 160.770,317.224 162.213,317.224 168.200 M83.151 182.828 C 82.810 185.630,83.157 186.102,86.415 187.275 C 89.654 188.441,90.382 188.608,89.780 188.044 C 89.571 187.849,88.374 187.396,87.120 187.039 C 84.533 186.302,84.418 186.177,83.786 183.414 L 83.325 181.400 83.151 182.828 M316.263 183.150 C 315.822 185.829,315.393 186.323,312.890 187.036 C 311.631 187.395,310.420 187.869,310.200 188.089 C 309.732 188.558,310.706 188.314,314.069 187.121 C 316.673 186.196,317.377 185.108,316.863 182.800 L 316.551 181.400 316.263 183.150 M164.010 187.600 C 167.475 194.625,175.934 202.265,183.996 205.652 C 186.872 206.861,188.000 206.919,188.000 205.859 C 188.000 205.449,187.310 205.247,185.500 205.127 C 182.756 204.944,180.363 203.710,179.628 202.100 C 179.351 201.493,178.868 201.200,178.147 201.200 C 177.430 201.200,176.391 200.574,174.994 199.300 C 173.848 198.255,172.462 197.032,171.913 196.582 C 171.365 196.132,170.681 195.325,170.394 194.789 C 170.108 194.254,169.408 193.452,168.841 193.008 C 166.890 191.481,166.400 190.797,166.400 189.600 C 166.400 188.940,166.210 188.400,165.977 188.400 C 165.745 188.400,165.007 187.815,164.338 187.100 L 163.122 185.800 164.010 187.600 M235.445 187.388 C 235.080 187.944,234.516 188.400,234.191 188.400 C 233.799 188.400,233.600 188.810,233.600 189.616 C 233.600 190.523,233.118 191.330,231.700 192.798 C 230.655 193.880,229.287 195.403,228.661 196.182 C 228.034 196.962,227.279 197.600,226.983 197.600 C 226.686 197.600,225.685 198.410,224.757 199.400 C 223.410 200.837,222.800 201.200,221.735 201.200 C 220.845 201.200,220.400 201.390,220.400 201.771 C 220.400 202.085,219.729 202.895,218.909 203.571 C 217.250 204.938,217.391 205.133,219.320 204.142 C 225.081 201.182,232.960 193.575,235.575 188.449 C 236.558 186.522,236.472 185.820,235.445 187.388 M90.883 189.055 C 91.456 189.627,95.535 190.598,95.888 190.245 C 96.068 190.066,91.451 188.400,90.773 188.400 C 90.359 188.400,90.385 188.556,90.883 189.055 M305.400 189.640 C 303.860 190.281,303.140 190.720,303.800 190.616 C 307.211 190.080,307.890 189.885,308.805 189.182 C 310.327 188.013,308.828 188.215,305.400 189.640 M98.800 191.559 C 98.800 192.200,100.210 192.802,101.674 192.784 L 103.000 192.769 101.774 192.235 C 99.680 191.323,98.800 191.123,98.800 191.559 M298.600 192.018 C 296.739 192.715,296.689 192.768,297.874 192.783 C 299.414 192.803,301.200 192.173,301.200 191.610 C 301.200 191.086,301.012 191.115,298.600 192.018 M104.400 193.709 C 104.400 194.018,105.022 194.838,105.783 195.530 C 106.644 196.314,107.334 197.432,107.612 198.494 C 107.857 199.432,108.404 200.932,108.829 201.826 C 109.253 202.721,109.600 203.673,109.600 203.943 C 109.600 204.213,110.140 205.588,110.800 207.000 C 111.460 208.412,112.000 209.671,112.000 209.800 C 112.000 209.928,112.370 210.533,112.822 211.144 C 113.732 212.375,114.063 216.278,113.471 218.800 C 113.234 219.812,113.482 219.501,114.367 217.674 L 115.591 215.148 114.272 212.674 C 113.547 211.313,112.541 209.210,112.038 208.000 C 111.535 206.790,110.756 204.990,110.307 204.000 C 109.275 201.724,109.096 201.232,108.014 197.727 C 107.012 194.479,106.581 193.794,105.300 193.413 C 104.666 193.225,104.400 193.313,104.400 193.709 M294.164 193.589 C 293.285 193.944,292.955 194.606,291.602 198.730 C 290.417 202.338,288.198 207.627,286.132 211.764 L 284.353 215.327 285.601 217.864 C 287.069 220.844,287.275 221.006,286.666 218.700 C 285.680 214.969,286.933 209.822,289.614 206.584 C 289.804 206.355,290.141 205.356,290.363 204.364 C 290.586 203.371,291.131 201.759,291.575 200.780 C 292.019 199.801,292.386 198.582,292.391 198.071 C 292.397 197.500,293.017 196.588,294.000 195.705 C 296.122 193.800,296.202 192.765,294.164 193.589 M214.500 205.096 C 212.344 205.219,212.000 205.345,212.000 206.011 C 212.000 206.743,211.157 207.144,209.600 207.152 C 209.270 207.154,207.020 207.368,204.600 207.629 C 201.266 207.987,198.989 207.992,195.200 207.648 C 188.926 207.079,188.088 207.119,190.600 207.869 C 193.320 208.681,203.161 209.028,206.580 208.433 C 209.441 207.935,216.352 205.761,216.980 205.162 C 217.189 204.963,217.279 204.835,217.180 204.877 C 217.081 204.919,215.875 205.018,214.500 205.096 M112.000 221.600 C 111.744 222.078,111.625 222.559,111.735 222.669 C 111.845 222.779,112.144 222.478,112.400 222.000 C 112.656 221.522,112.775 221.041,112.665 220.931 C 112.555 220.821,112.256 221.122,112.000 221.600 M287.227 221.000 C 287.229 221.706,288.370 223.455,288.386 222.776 C 288.394 222.434,288.136 221.804,287.813 221.376 C 287.490 220.949,287.226 220.780,287.227 221.000 M110.539 224.309 C 109.983 224.755,109.594 225.639,109.444 226.800 C 109.315 227.790,109.323 228.330,109.461 228.000 C 109.599 227.670,110.140 226.545,110.663 225.500 C 111.186 224.455,111.565 223.604,111.507 223.609 C 111.448 223.614,111.012 223.929,110.539 224.309 M289.614 226.094 C 290.834 228.674,291.506 229.658,290.825 227.866 C 290.591 227.251,290.399 226.265,290.397 225.674 C 290.395 224.935,290.097 224.462,289.442 224.159 L 288.490 223.718 289.614 226.094 M107.843 229.833 C 107.406 230.972,107.613 231.416,108.213 230.624 C 108.536 230.196,108.800 229.701,108.800 229.524 C 108.800 228.951,108.094 229.179,107.843 229.833 M291.200 229.389 C 291.200 229.563,292.644 232.849,293.741 235.171 C 294.196 236.134,294.201 236.131,294.329 234.827 C 294.417 233.922,294.202 233.240,293.637 232.639 C 293.185 232.159,292.615 231.188,292.369 230.483 C 292.001 229.429,291.200 228.679,291.200 229.389 M106.446 232.633 C 105.628 233.672,105.191 236.578,105.972 235.780 C 106.404 235.339,107.630 231.897,107.428 231.695 C 107.353 231.619,106.911 232.042,106.446 232.633 M105.500 237.830 C 104.893 238.445,105.230 239.416,106.253 240.000 C 106.833 240.331,107.506 241.221,107.753 241.983 C 108.026 242.829,108.777 243.762,109.686 244.383 C 110.503 244.942,111.678 246.084,112.297 246.919 C 112.916 247.755,114.194 249.049,115.137 249.795 C 116.081 250.542,117.351 251.840,117.959 252.680 C 118.568 253.521,119.993 254.837,121.126 255.604 C 122.258 256.372,123.300 257.360,123.440 257.800 C 123.844 259.070,124.787 259.934,126.079 260.217 C 126.852 260.387,127.553 260.953,128.064 261.819 C 128.784 263.039,128.942 263.118,129.847 262.706 C 130.756 262.291,130.779 262.221,130.120 261.860 C 125.972 259.593,111.298 245.099,106.600 238.628 C 106.160 238.022,105.665 237.663,105.500 237.830 M291.704 240.711 C 290.379 242.410,287.908 245.285,286.213 247.100 C 282.411 251.171,282.961 251.465,286.962 247.500 C 288.572 245.905,290.349 244.288,290.911 243.906 C 291.474 243.525,292.057 242.651,292.208 241.964 C 292.380 241.179,292.911 240.472,293.639 240.058 C 294.751 239.425,295.173 238.278,294.456 237.835 C 294.267 237.718,293.028 239.012,291.704 240.711 M281.173 252.260 C 278.893 254.665,269.919 261.999,269.237 262.014 C 268.814 262.024,268.935 262.220,269.600 262.600 C 270.980 263.389,271.017 263.377,271.947 261.800 C 272.430 260.982,273.089 260.400,273.533 260.400 C 274.483 260.400,276.400 258.927,276.400 258.197 C 276.400 257.897,277.571 256.618,279.001 255.354 C 281.487 253.158,283.046 251.313,282.705 250.971 C 282.617 250.884,281.928 251.464,281.173 252.260 M147.800 254.607 C 145.380 255.817,143.940 256.706,144.600 256.584 C 145.260 256.462,146.301 256.001,146.914 255.559 C 149.190 253.917,152.619 253.722,153.960 255.157 C 155.397 256.695,155.926 256.768,154.993 255.300 C 152.835 251.904,153.150 251.934,147.800 254.607 M246.544 253.300 C 245.335 254.666,244.335 256.400,244.755 256.400 C 244.961 256.400,245.618 255.815,246.216 255.100 C 247.801 253.205,248.346 253.149,250.543 254.661 C 251.614 255.397,252.901 256.000,253.404 256.000 C 253.907 256.000,255.291 256.511,256.479 257.137 C 258.362 258.127,261.359 259.199,260.799 258.681 C 260.547 258.448,247.758 252.400,247.518 252.400 C 247.420 252.400,246.981 252.805,246.544 253.300 M141.000 257.813 C 139.900 258.364,139.330 258.722,139.733 258.608 C 140.136 258.493,140.701 258.400,140.988 258.400 C 141.469 258.400,143.654 256.837,143.200 256.818 C 143.090 256.814,142.100 257.261,141.000 257.813 M155.997 258.188 C 156.169 258.948,156.903 260.321,157.630 261.238 C 159.957 264.176,160.779 265.370,161.416 266.732 C 161.758 267.465,162.749 269.106,163.619 270.380 C 164.488 271.655,165.200 273.081,165.200 273.551 C 165.200 274.021,165.667 274.809,166.238 275.303 C 166.809 275.796,167.542 276.712,167.868 277.337 C 168.193 277.963,168.538 278.395,168.635 278.298 C 169.038 277.895,157.006 257.622,155.991 256.994 C 155.823 256.891,155.826 257.428,155.997 258.188 M241.896 260.100 C 236.380 268.546,226.880 285.414,227.365 285.899 C 227.471 286.005,228.397 284.366,229.423 282.258 C 230.449 280.150,231.538 278.217,231.844 277.963 C 232.150 277.710,232.400 277.259,232.400 276.963 C 232.400 276.667,232.940 276.025,233.600 275.537 C 234.425 274.927,234.800 274.307,234.800 273.555 C 234.800 272.916,235.396 271.680,236.236 270.580 C 237.025 269.546,238.018 267.957,238.440 267.050 C 238.863 266.142,239.702 264.751,240.305 263.959 C 242.845 260.616,243.894 258.936,244.085 257.900 C 244.373 256.346,244.297 256.422,241.896 260.100 M136.200 259.970 C 134.880 260.598,133.440 261.253,133.000 261.426 C 132.232 261.728,132.236 261.747,133.100 261.898 C 134.117 262.076,137.269 260.629,138.266 259.527 C 139.105 258.600,139.066 258.609,136.200 259.970 M261.510 259.425 C 261.967 260.241,265.504 262.000,266.688 262.000 C 268.113 262.000,267.738 261.725,264.227 260.199 C 262.491 259.444,261.337 259.116,261.510 259.425 M169.613 280.078 C 169.591 280.564,172.396 285.950,172.802 286.201 C 173.340 286.534,172.855 285.315,171.729 283.508 C 171.218 282.687,170.800 281.867,170.800 281.684 C 170.800 281.275,169.630 279.692,169.613 280.078 M173.223 287.600 C 173.216 288.150,173.748 289.660,174.405 290.956 C 175.062 292.252,175.600 293.535,175.600 293.807 C 175.600 294.079,175.861 294.518,176.180 294.783 C 176.498 295.048,176.968 295.925,177.224 296.732 C 177.479 297.539,177.938 298.400,178.244 298.644 C 178.921 299.185,181.200 304.610,181.200 305.681 C 181.200 306.630,181.812 307.812,182.830 308.830 C 183.864 309.864,183.801 309.328,182.534 306.326 C 178.669 297.169,173.241 286.252,173.223 287.600 M223.426 293.300 C 220.785 298.747,216.400 308.580,216.400 309.057 C 216.400 309.991,218.112 307.518,218.598 305.883 C 218.922 304.791,219.345 303.695,219.539 303.449 C 219.732 303.202,220.000 302.537,220.135 301.971 C 220.269 301.405,220.804 300.317,221.322 299.553 C 221.840 298.789,222.469 297.579,222.718 296.863 C 222.967 296.148,223.538 295.097,223.986 294.527 C 224.434 293.958,224.800 293.169,224.800 292.775 C 224.800 292.380,225.042 291.816,225.337 291.520 C 226.093 290.764,226.800 289.366,226.800 288.626 C 226.800 287.024,225.791 288.422,223.426 293.300 M183.821 311.000 C 183.974 311.660,184.345 312.461,184.645 312.781 C 185.109 313.275,185.132 313.159,184.802 312.008 C 184.287 310.210,183.436 309.335,183.821 311.000 M216.000 310.151 C 216.000 310.234,215.714 310.999,215.365 311.851 C 214.840 313.132,214.831 313.296,215.315 312.800 C 215.900 312.201,216.601 310.000,216.208 310.000 C 216.093 310.000,216.000 310.068,216.000 310.151 M214.057 314.915 C 213.012 317.560,209.513 327.445,209.212 328.600 C 208.723 330.479,207.197 334.927,206.779 335.695 C 206.570 336.077,206.397 336.707,206.394 337.095 C 206.391 337.483,205.941 339.240,205.394 341.000 C 204.847 342.760,204.401 344.470,204.402 344.800 C 204.404 345.847,205.941 342.924,206.227 341.329 C 206.378 340.488,206.827 339.070,207.225 338.177 C 207.624 337.285,208.160 335.305,208.417 333.777 C 208.674 332.250,209.150 330.578,209.475 330.063 C 210.115 329.050,212.400 322.216,212.400 321.317 C 212.400 321.015,212.733 320.100,213.141 319.284 C 213.887 317.789,214.953 314.019,214.700 313.767 C 214.625 313.692,214.336 314.209,214.057 314.915 M185.604 315.633 C 185.606 316.165,186.030 317.506,186.546 318.614 C 187.061 319.721,187.613 321.521,187.771 322.614 C 187.929 323.706,188.767 326.150,189.632 328.044 C 190.498 329.937,191.397 332.547,191.631 333.844 C 192.412 338.177,195.170 345.889,195.541 344.777 C 195.728 344.217,195.104 342.120,191.143 330.000 C 186.600 316.101,185.595 313.495,185.604 315.633 M195.788 347.000 C 196.033 348.578,197.515 350.413,198.522 350.388 C 198.785 350.381,198.668 350.183,198.263 349.947 C 197.857 349.711,197.079 348.592,196.533 347.459 L 195.540 345.400 195.788 347.000 M203.854 346.529 C 203.725 347.040,203.167 348.126,202.614 348.941 C 201.806 350.131,201.752 350.347,202.337 350.034 C 203.457 349.434,203.903 348.735,204.209 347.100 C 204.513 345.470,204.233 345.019,203.854 346.529 " stroke="none" fill="#cd553a" fill-rule="evenodd"></path><path id="path4" d="M187.467 51.801 C 181.790 52.448,182.707 51.056,176.813 67.956 C 174.245 75.318,174.586 74.920,169.382 76.618 C 165.663 77.832,161.240 79.668,156.686 81.888 C 152.165 84.091,153.357 84.338,141.613 78.767 C 131.470 73.956,131.420 73.938,130.147 74.545 C 125.449 76.785,106.400 96.280,106.400 98.847 C 106.400 99.618,108.397 104.097,113.560 114.908 C 116.476 121.012,116.425 119.910,114.021 124.719 C 111.784 129.196,109.278 135.370,108.173 139.134 C 107.279 142.175,107.616 141.966,98.306 145.252 C 82.497 150.831,84.492 148.876,83.700 159.565 C 83.050 168.337,83.640 183.039,84.723 185.054 C 84.970 185.512,86.569 186.290,88.862 187.069 C 90.918 187.767,94.670 189.084,97.200 189.996 C 99.730 190.907,102.934 192.029,104.319 192.489 C 107.108 193.415,107.230 193.564,108.585 197.712 C 110.011 202.079,111.781 206.378,114.060 211.009 L 116.117 215.188 114.689 218.294 C 113.904 220.002,111.924 224.190,110.289 227.600 C 106.129 236.277,106.057 236.510,106.997 238.106 C 109.949 243.118,126.801 259.835,130.300 261.223 C 131.489 261.695,131.310 261.768,145.815 254.863 C 149.124 253.289,152.133 252.000,152.503 252.000 C 155.389 252.000,174.645 286.165,182.826 305.800 C 187.713 317.532,192.208 330.322,195.195 341.000 C 197.408 348.912,197.809 349.600,200.206 349.600 C 201.838 349.600,202.788 348.388,203.603 345.262 C 206.933 332.490,214.057 312.595,220.096 299.200 C 222.583 293.684,230.807 277.235,231.596 276.200 C 231.763 275.980,232.582 274.540,233.416 273.000 C 237.905 264.706,246.397 252.000,247.451 252.000 C 247.795 252.000,252.683 254.177,258.313 256.838 C 270.275 262.491,268.712 262.447,274.819 257.310 C 282.361 250.966,293.600 238.655,293.600 236.738 C 293.600 235.996,292.444 233.423,286.036 219.905 C 283.582 214.726,283.587 215.666,285.984 210.871 C 288.102 206.633,289.881 202.355,291.211 198.302 C 292.586 194.112,292.886 193.548,293.962 193.127 C 294.533 192.904,297.250 191.934,300.000 190.970 C 317.724 184.763,315.498 186.779,316.321 176.189 C 316.890 168.859,316.892 167.267,316.343 159.866 C 315.620 150.110,315.647 150.173,311.545 148.732 C 290.426 141.309,292.920 142.623,291.545 138.200 C 290.421 134.584,288.019 128.818,285.775 124.351 C 284.799 122.407,284.000 120.643,284.000 120.431 C 284.000 120.068,284.831 118.276,290.780 105.808 C 293.834 99.406,293.963 98.841,292.766 97.125 C 288.456 90.948,274.047 76.693,269.995 74.598 C 268.685 73.920,268.562 73.953,263.561 76.333 C 245.514 84.922,248.214 84.234,242.738 81.638 C 237.264 79.043,234.570 77.936,230.000 76.408 C 225.318 74.841,225.659 75.227,223.639 69.200 C 221.794 63.693,220.199 59.246,219.409 57.400 C 219.126 56.740,218.684 55.539,218.427 54.732 C 218.170 53.925,217.685 53.037,217.350 52.758 C 215.698 51.388,196.496 50.772,187.467 51.801 M210.671 52.384 C 216.620 52.787,217.270 53.011,217.893 54.874 C 218.137 55.603,218.789 57.460,219.341 59.000 C 219.894 60.540,221.350 64.668,222.577 68.174 C 224.940 74.922,225.424 75.773,227.129 76.189 C 229.824 76.846,236.643 79.502,241.146 81.649 C 243.866 82.946,246.499 84.110,246.998 84.235 C 248.010 84.489,248.102 84.451,259.400 79.035 C 268.194 74.820,269.112 74.609,271.312 76.300 C 278.804 82.057,290.212 93.774,292.380 97.937 C 293.143 99.402,293.021 99.723,286.846 112.537 C 282.994 120.531,283.037 120.015,285.763 125.694 C 288.512 131.420,288.943 132.473,290.654 137.665 C 292.259 142.533,292.460 142.771,296.000 143.998 C 305.643 147.338,308.952 148.505,311.593 149.498 L 314.587 150.624 315.056 152.740 C 316.719 160.224,315.853 184.778,313.906 185.376 C 313.628 185.461,312.140 185.981,310.600 186.530 C 309.060 187.080,305.370 188.377,302.400 189.412 C 291.452 193.229,292.293 192.532,290.075 199.617 C 289.061 202.855,288.460 204.289,285.763 209.906 C 282.852 215.969,282.430 214.097,290.441 230.663 C 292.866 235.679,293.129 236.831,292.187 238.295 C 289.161 242.994,274.127 258.013,270.526 259.934 C 268.995 260.751,267.666 260.452,262.786 258.194 C 260.164 256.980,257.609 255.811,257.109 255.595 C 256.609 255.379,255.930 255.025,255.600 254.809 C 254.826 254.302,249.265 251.802,248.065 251.421 C 244.997 250.447,225.924 282.807,217.782 302.800 C 210.429 320.856,208.462 326.335,204.647 339.400 C 204.133 341.160,203.398 343.680,203.013 345.000 C 201.417 350.476,198.278 350.204,196.805 344.462 C 196.542 343.438,195.716 340.530,194.968 338.000 C 189.439 319.283,183.073 303.313,174.159 285.800 C 167.680 273.070,157.407 255.776,154.286 252.345 C 152.918 250.841,152.524 250.907,147.000 253.562 C 131.564 260.979,131.489 261.006,129.474 259.936 C 125.702 257.934,109.782 241.866,107.858 238.120 C 106.805 236.071,106.220 237.671,113.951 221.467 C 116.855 215.381,116.857 215.350,114.761 211.113 C 112.591 206.726,111.096 203.095,109.360 198.000 C 107.478 192.476,108.138 192.920,95.400 188.604 C 86.510 185.591,85.817 185.293,85.292 184.259 C 83.987 181.686,83.726 159.063,84.931 152.985 C 85.398 150.631,85.408 150.619,87.400 149.901 C 88.500 149.505,89.760 149.011,90.200 148.802 C 90.902 148.470,96.424 146.559,104.284 143.929 C 107.475 142.861,107.689 142.594,109.351 137.592 C 110.921 132.870,111.629 131.154,114.433 125.280 C 116.904 120.104,116.918 120.347,113.759 113.731 C 105.875 97.223,106.277 99.166,109.834 94.764 C 115.081 88.271,123.701 79.902,129.054 76.103 C 131.161 74.607,131.561 74.638,135.589 76.609 C 153.603 85.420,152.056 84.983,156.784 82.608 C 161.137 80.422,165.877 78.465,170.400 76.988 C 174.929 75.508,174.790 75.694,177.824 67.000 C 179.283 62.820,180.909 58.289,181.438 56.932 C 181.967 55.574,182.400 54.276,182.400 54.046 C 182.400 53.170,184.243 52.724,189.333 52.370 C 199.565 51.659,199.970 51.659,210.671 52.384 M194.200 125.847 C 193.760 125.958,191.780 126.417,189.800 126.868 C 167.640 131.916,153.514 155.316,159.014 177.867 C 164.480 200.277,187.610 214.382,209.888 208.891 C 215.144 207.596,218.575 206.093,223.400 202.974 C 253.513 183.511,245.657 136.108,210.800 126.951 C 207.093 125.978,196.489 125.272,194.200 125.847 M205.200 126.579 C 234.420 130.999,250.232 161.132,236.890 186.971 C 223.991 211.950,189.656 217.089,170.376 196.926 C 166.540 192.914,162.000 186.293,162.000 184.710 C 162.000 184.408,161.836 183.989,161.635 183.780 C 161.088 183.211,159.289 176.963,158.819 174.000 C 154.557 147.162,178.621 122.560,205.200 126.579 " stroke="none" fill="#f6a48a" fill-rule="evenodd"></path></g></svg>