<?xml version="1.0" encoding="UTF-8"?>
<!DOCTYPE svg PUBLIC "-//W3C//DTD SVG 1.1//EN" "http://www.w3.org/Graphics/SVG/1.1/DTD/svg11.dtd">
<svg xmlns="http://www.w3.org/2000/svg" version="1.1" width="192px" height="192px" style="shape-rendering:geometricPrecision; text-rendering:geometricPrecision; image-rendering:optimizeQuality; fill-rule:evenodd; clip-rule:evenodd" xmlns:xlink="http://www.w3.org/1999/xlink">
<g><path style="opacity:1" fill="#fdd404" d="M -0.5,-0.5 C 63.5,-0.5 127.5,-0.5 191.5,-0.5C 191.5,63.5 191.5,127.5 191.5,191.5C 127.5,191.5 63.5,191.5 -0.5,191.5C -0.5,127.5 -0.5,63.5 -0.5,-0.5 Z"/></g>
<g><path style="opacity:1" fill="#3b4b51" d="M 27.5,38.5 C 36.4354,36.9701 43.2688,39.9701 48,47.5C 52.8694,65.9384 58.0361,84.2718 63.5,102.5C 68.9413,84.9997 74.108,67.333 79,49.5C 85.0008,38.2389 93.8341,35.4055 105.5,41C 109.993,44.8337 112.826,49.667 114,55.5C 118.046,71.359 122.546,87.0256 127.5,102.5C 132.949,84.3097 138.116,65.9764 143,47.5C 149.181,38.1704 157.348,36.0037 167.5,41C 172.486,44.6237 174.319,49.4571 173,55.5C 164.863,83.5751 156.53,111.575 148,139.5C 142.246,149.206 133.746,152.706 122.5,150C 118.759,148.262 115.592,145.762 113,142.5C 107.054,124.164 101.221,105.831 95.5,87.5C 89.7809,105.826 83.9476,124.159 78,142.5C 71.8518,149.993 64.0184,152.493 54.5,150C 49.3907,147.89 45.5574,144.39 43,139.5C 34.4643,111.56 26.131,83.5596 18,55.5C 16.6967,47.3098 19.8634,41.6431 27.5,38.5 Z"/></g>
</svg>
